G04 #@! TF.GenerationSoftware,KiCad,Pcbnew,(5.1.10-1-10_14)*
G04 #@! TF.CreationDate,2021-10-11T21:18:44+02:00*
G04 #@! TF.ProjectId,main,6d61696e-2e6b-4696-9361-645f70636258,rev?*
G04 #@! TF.SameCoordinates,Original*
G04 #@! TF.FileFunction,Legend,Bot*
G04 #@! TF.FilePolarity,Positive*
%FSLAX46Y46*%
G04 Gerber Fmt 4.6, Leading zero omitted, Abs format (unit mm)*
G04 Created by KiCad (PCBNEW (5.1.10-1-10_14)) date 2021-10-11 21:18:44*
%MOMM*%
%LPD*%
G01*
G04 APERTURE LIST*
%ADD10C,0.120000*%
%ADD11C,0.150000*%
%ADD12O,2.720000X3.240000*%
%ADD13C,1.800000*%
%ADD14R,1.800000X1.800000*%
%ADD15O,2.300000X3.100000*%
%ADD16C,1.700000*%
%ADD17R,0.500000X0.500000*%
G04 APERTURE END LIST*
D10*
X142704000Y-97472500D02*
X142704000Y-100922500D01*
X142704000Y-97472500D02*
X142704000Y-95522500D01*
X137584000Y-97472500D02*
X137584000Y-99422500D01*
X137584000Y-97472500D02*
X137584000Y-95522500D01*
X122384000Y-97917000D02*
X122384000Y-101367000D01*
X122384000Y-97917000D02*
X122384000Y-95967000D01*
X117264000Y-97917000D02*
X117264000Y-99867000D01*
X117264000Y-97917000D02*
X117264000Y-95967000D01*
X138868000Y-55684064D02*
X138868000Y-55229936D01*
X140338000Y-55684064D02*
X140338000Y-55229936D01*
X119114936Y-61711500D02*
X119569064Y-61711500D01*
X119114936Y-63181500D02*
X119569064Y-63181500D01*
X138868000Y-60094064D02*
X138868000Y-59639936D01*
X140338000Y-60094064D02*
X140338000Y-59639936D01*
X117965936Y-78731000D02*
X118420064Y-78731000D01*
X117965936Y-80201000D02*
X118420064Y-80201000D01*
X138779000Y-86515064D02*
X138779000Y-86060936D01*
X140249000Y-86515064D02*
X140249000Y-86060936D01*
X119114936Y-64661500D02*
X119569064Y-64661500D01*
X119114936Y-66131500D02*
X119569064Y-66131500D01*
X138779000Y-90925064D02*
X138779000Y-90470936D01*
X140249000Y-90925064D02*
X140249000Y-90470936D01*
X117965936Y-81681000D02*
X118420064Y-81681000D01*
X117965936Y-83151000D02*
X118420064Y-83151000D01*
X138868000Y-64504064D02*
X138868000Y-64049936D01*
X140338000Y-64504064D02*
X140338000Y-64049936D01*
X138839000Y-82105064D02*
X138839000Y-81650936D01*
X140309000Y-82105064D02*
X140309000Y-81650936D01*
X119568000Y-113169000D02*
X119568000Y-122289000D01*
X119568000Y-122289000D02*
X140148000Y-122289000D01*
X140148000Y-122289000D02*
X140148000Y-113169000D01*
X140148000Y-113169000D02*
X119568000Y-113169000D01*
X127808000Y-113169000D02*
X127808000Y-114479000D01*
X127808000Y-114479000D02*
X120868000Y-114479000D01*
X120868000Y-114479000D02*
X120868000Y-120979000D01*
X120868000Y-120979000D02*
X138848000Y-120979000D01*
X138848000Y-120979000D02*
X138848000Y-114479000D01*
X138848000Y-114479000D02*
X131908000Y-114479000D01*
X131908000Y-114479000D02*
X131908000Y-114479000D01*
X131908000Y-114479000D02*
X131908000Y-113169000D01*
X124778000Y-112779000D02*
X124278000Y-111779000D01*
X124278000Y-111779000D02*
X125278000Y-111779000D01*
X125278000Y-111779000D02*
X124778000Y-112779000D01*
X117762000Y-60346500D02*
X120312000Y-60346500D01*
X117762000Y-58646500D02*
X120312000Y-58646500D01*
X117762000Y-60346500D02*
X117762000Y-58646500D01*
X116613000Y-77366000D02*
X119163000Y-77366000D01*
X116613000Y-75666000D02*
X119163000Y-75666000D01*
X116613000Y-77366000D02*
X116613000Y-75666000D01*
X117473000Y-74416000D02*
X120023000Y-74416000D01*
X117473000Y-72716000D02*
X120023000Y-72716000D01*
X117473000Y-74416000D02*
X117473000Y-72716000D01*
X140424000Y-79048000D02*
X140424000Y-76498000D01*
X138724000Y-79048000D02*
X138724000Y-76498000D01*
X140424000Y-79048000D02*
X138724000Y-79048000D01*
X117753000Y-54507500D02*
X120303000Y-54507500D01*
X117753000Y-52807500D02*
X120303000Y-52807500D01*
X117753000Y-54507500D02*
X117753000Y-52807500D01*
X140453000Y-52627000D02*
X140453000Y-50077000D01*
X138753000Y-52627000D02*
X138753000Y-50077000D01*
X140453000Y-52627000D02*
X138753000Y-52627000D01*
X140424000Y-74798000D02*
X140424000Y-72248000D01*
X138724000Y-74798000D02*
X138724000Y-72248000D01*
X140424000Y-74798000D02*
X138724000Y-74798000D01*
X117762000Y-57396500D02*
X120312000Y-57396500D01*
X117762000Y-55696500D02*
X120312000Y-55696500D01*
X117762000Y-57396500D02*
X117762000Y-55696500D01*
X117951748Y-84661000D02*
X118474252Y-84661000D01*
X117951748Y-86131000D02*
X118474252Y-86131000D01*
X138838000Y-68968252D02*
X138838000Y-68445748D01*
X140308000Y-68968252D02*
X140308000Y-68445748D01*
D11*
X142996380Y-96710595D02*
X143805904Y-96710595D01*
X143901142Y-96758214D01*
X143948761Y-96805833D01*
X143996380Y-96901071D01*
X143996380Y-97091547D01*
X143948761Y-97186785D01*
X143901142Y-97234404D01*
X143805904Y-97282023D01*
X142996380Y-97282023D01*
X143091619Y-97710595D02*
X143044000Y-97758214D01*
X142996380Y-97853452D01*
X142996380Y-98091547D01*
X143044000Y-98186785D01*
X143091619Y-98234404D01*
X143186857Y-98282023D01*
X143282095Y-98282023D01*
X143424952Y-98234404D01*
X143996380Y-97662976D01*
X143996380Y-98282023D01*
X122676380Y-97155095D02*
X123485904Y-97155095D01*
X123581142Y-97202714D01*
X123628761Y-97250333D01*
X123676380Y-97345571D01*
X123676380Y-97536047D01*
X123628761Y-97631285D01*
X123581142Y-97678904D01*
X123485904Y-97726523D01*
X122676380Y-97726523D01*
X123676380Y-98726523D02*
X123676380Y-98155095D01*
X123676380Y-98440809D02*
X122676380Y-98440809D01*
X122819238Y-98345571D01*
X122914476Y-98250333D01*
X122962095Y-98155095D01*
X141705380Y-54814142D02*
X141229190Y-54480809D01*
X141705380Y-54242714D02*
X140705380Y-54242714D01*
X140705380Y-54623666D01*
X140753000Y-54718904D01*
X140800619Y-54766523D01*
X140895857Y-54814142D01*
X141038714Y-54814142D01*
X141133952Y-54766523D01*
X141181571Y-54718904D01*
X141229190Y-54623666D01*
X141229190Y-54242714D01*
X141705380Y-55766523D02*
X141705380Y-55195095D01*
X141705380Y-55480809D02*
X140705380Y-55480809D01*
X140848238Y-55385571D01*
X140943476Y-55290333D01*
X140991095Y-55195095D01*
X140705380Y-56385571D02*
X140705380Y-56480809D01*
X140753000Y-56576047D01*
X140800619Y-56623666D01*
X140895857Y-56671285D01*
X141086333Y-56718904D01*
X141324428Y-56718904D01*
X141514904Y-56671285D01*
X141610142Y-56623666D01*
X141657761Y-56576047D01*
X141705380Y-56480809D01*
X141705380Y-56385571D01*
X141657761Y-56290333D01*
X141610142Y-56242714D01*
X141514904Y-56195095D01*
X141324428Y-56147476D01*
X141086333Y-56147476D01*
X140895857Y-56195095D01*
X140800619Y-56242714D01*
X140753000Y-56290333D01*
X140705380Y-56385571D01*
X119508666Y-64548880D02*
X119842000Y-64072690D01*
X120080095Y-64548880D02*
X120080095Y-63548880D01*
X119699142Y-63548880D01*
X119603904Y-63596500D01*
X119556285Y-63644119D01*
X119508666Y-63739357D01*
X119508666Y-63882214D01*
X119556285Y-63977452D01*
X119603904Y-64025071D01*
X119699142Y-64072690D01*
X120080095Y-64072690D01*
X119032476Y-64548880D02*
X118842000Y-64548880D01*
X118746761Y-64501261D01*
X118699142Y-64453642D01*
X118603904Y-64310785D01*
X118556285Y-64120309D01*
X118556285Y-63739357D01*
X118603904Y-63644119D01*
X118651523Y-63596500D01*
X118746761Y-63548880D01*
X118937238Y-63548880D01*
X119032476Y-63596500D01*
X119080095Y-63644119D01*
X119127714Y-63739357D01*
X119127714Y-63977452D01*
X119080095Y-64072690D01*
X119032476Y-64120309D01*
X118937238Y-64167928D01*
X118746761Y-64167928D01*
X118651523Y-64120309D01*
X118603904Y-64072690D01*
X118556285Y-63977452D01*
X141705380Y-59700333D02*
X141229190Y-59367000D01*
X141705380Y-59128904D02*
X140705380Y-59128904D01*
X140705380Y-59509857D01*
X140753000Y-59605095D01*
X140800619Y-59652714D01*
X140895857Y-59700333D01*
X141038714Y-59700333D01*
X141133952Y-59652714D01*
X141181571Y-59605095D01*
X141229190Y-59509857D01*
X141229190Y-59128904D01*
X141133952Y-60271761D02*
X141086333Y-60176523D01*
X141038714Y-60128904D01*
X140943476Y-60081285D01*
X140895857Y-60081285D01*
X140800619Y-60128904D01*
X140753000Y-60176523D01*
X140705380Y-60271761D01*
X140705380Y-60462238D01*
X140753000Y-60557476D01*
X140800619Y-60605095D01*
X140895857Y-60652714D01*
X140943476Y-60652714D01*
X141038714Y-60605095D01*
X141086333Y-60557476D01*
X141133952Y-60462238D01*
X141133952Y-60271761D01*
X141181571Y-60176523D01*
X141229190Y-60128904D01*
X141324428Y-60081285D01*
X141514904Y-60081285D01*
X141610142Y-60128904D01*
X141657761Y-60176523D01*
X141705380Y-60271761D01*
X141705380Y-60462238D01*
X141657761Y-60557476D01*
X141610142Y-60605095D01*
X141514904Y-60652714D01*
X141324428Y-60652714D01*
X141229190Y-60605095D01*
X141181571Y-60557476D01*
X141133952Y-60462238D01*
X118359666Y-81568380D02*
X118693000Y-81092190D01*
X118931095Y-81568380D02*
X118931095Y-80568380D01*
X118550142Y-80568380D01*
X118454904Y-80616000D01*
X118407285Y-80663619D01*
X118359666Y-80758857D01*
X118359666Y-80901714D01*
X118407285Y-80996952D01*
X118454904Y-81044571D01*
X118550142Y-81092190D01*
X118931095Y-81092190D01*
X118026333Y-80568380D02*
X117359666Y-80568380D01*
X117788238Y-81568380D01*
X141616380Y-86121333D02*
X141140190Y-85788000D01*
X141616380Y-85549904D02*
X140616380Y-85549904D01*
X140616380Y-85930857D01*
X140664000Y-86026095D01*
X140711619Y-86073714D01*
X140806857Y-86121333D01*
X140949714Y-86121333D01*
X141044952Y-86073714D01*
X141092571Y-86026095D01*
X141140190Y-85930857D01*
X141140190Y-85549904D01*
X140616380Y-86978476D02*
X140616380Y-86788000D01*
X140664000Y-86692761D01*
X140711619Y-86645142D01*
X140854476Y-86549904D01*
X141044952Y-86502285D01*
X141425904Y-86502285D01*
X141521142Y-86549904D01*
X141568761Y-86597523D01*
X141616380Y-86692761D01*
X141616380Y-86883238D01*
X141568761Y-86978476D01*
X141521142Y-87026095D01*
X141425904Y-87073714D01*
X141187809Y-87073714D01*
X141092571Y-87026095D01*
X141044952Y-86978476D01*
X140997333Y-86883238D01*
X140997333Y-86692761D01*
X141044952Y-86597523D01*
X141092571Y-86549904D01*
X141187809Y-86502285D01*
X119508666Y-67498880D02*
X119842000Y-67022690D01*
X120080095Y-67498880D02*
X120080095Y-66498880D01*
X119699142Y-66498880D01*
X119603904Y-66546500D01*
X119556285Y-66594119D01*
X119508666Y-66689357D01*
X119508666Y-66832214D01*
X119556285Y-66927452D01*
X119603904Y-66975071D01*
X119699142Y-67022690D01*
X120080095Y-67022690D01*
X118603904Y-66498880D02*
X119080095Y-66498880D01*
X119127714Y-66975071D01*
X119080095Y-66927452D01*
X118984857Y-66879833D01*
X118746761Y-66879833D01*
X118651523Y-66927452D01*
X118603904Y-66975071D01*
X118556285Y-67070309D01*
X118556285Y-67308404D01*
X118603904Y-67403642D01*
X118651523Y-67451261D01*
X118746761Y-67498880D01*
X118984857Y-67498880D01*
X119080095Y-67451261D01*
X119127714Y-67403642D01*
X141616380Y-90531333D02*
X141140190Y-90198000D01*
X141616380Y-89959904D02*
X140616380Y-89959904D01*
X140616380Y-90340857D01*
X140664000Y-90436095D01*
X140711619Y-90483714D01*
X140806857Y-90531333D01*
X140949714Y-90531333D01*
X141044952Y-90483714D01*
X141092571Y-90436095D01*
X141140190Y-90340857D01*
X141140190Y-89959904D01*
X140949714Y-91388476D02*
X141616380Y-91388476D01*
X140568761Y-91150380D02*
X141283047Y-90912285D01*
X141283047Y-91531333D01*
X118359666Y-84518380D02*
X118693000Y-84042190D01*
X118931095Y-84518380D02*
X118931095Y-83518380D01*
X118550142Y-83518380D01*
X118454904Y-83566000D01*
X118407285Y-83613619D01*
X118359666Y-83708857D01*
X118359666Y-83851714D01*
X118407285Y-83946952D01*
X118454904Y-83994571D01*
X118550142Y-84042190D01*
X118931095Y-84042190D01*
X118026333Y-83518380D02*
X117407285Y-83518380D01*
X117740619Y-83899333D01*
X117597761Y-83899333D01*
X117502523Y-83946952D01*
X117454904Y-83994571D01*
X117407285Y-84089809D01*
X117407285Y-84327904D01*
X117454904Y-84423142D01*
X117502523Y-84470761D01*
X117597761Y-84518380D01*
X117883476Y-84518380D01*
X117978714Y-84470761D01*
X118026333Y-84423142D01*
X141705380Y-64110333D02*
X141229190Y-63777000D01*
X141705380Y-63538904D02*
X140705380Y-63538904D01*
X140705380Y-63919857D01*
X140753000Y-64015095D01*
X140800619Y-64062714D01*
X140895857Y-64110333D01*
X141038714Y-64110333D01*
X141133952Y-64062714D01*
X141181571Y-64015095D01*
X141229190Y-63919857D01*
X141229190Y-63538904D01*
X140800619Y-64491285D02*
X140753000Y-64538904D01*
X140705380Y-64634142D01*
X140705380Y-64872238D01*
X140753000Y-64967476D01*
X140800619Y-65015095D01*
X140895857Y-65062714D01*
X140991095Y-65062714D01*
X141133952Y-65015095D01*
X141705380Y-64443666D01*
X141705380Y-65062714D01*
X141676380Y-81711333D02*
X141200190Y-81378000D01*
X141676380Y-81139904D02*
X140676380Y-81139904D01*
X140676380Y-81520857D01*
X140724000Y-81616095D01*
X140771619Y-81663714D01*
X140866857Y-81711333D01*
X141009714Y-81711333D01*
X141104952Y-81663714D01*
X141152571Y-81616095D01*
X141200190Y-81520857D01*
X141200190Y-81139904D01*
X141676380Y-82663714D02*
X141676380Y-82092285D01*
X141676380Y-82378000D02*
X140676380Y-82378000D01*
X140819238Y-82282761D01*
X140914476Y-82187523D01*
X140962095Y-82092285D01*
X118130380Y-117395666D02*
X118844666Y-117395666D01*
X118987523Y-117348047D01*
X119082761Y-117252809D01*
X119130380Y-117109952D01*
X119130380Y-117014714D01*
X119130380Y-118395666D02*
X119130380Y-117824238D01*
X119130380Y-118109952D02*
X118130380Y-118109952D01*
X118273238Y-118014714D01*
X118368476Y-117919476D01*
X118416095Y-117824238D01*
X120000095Y-61798880D02*
X120000095Y-60798880D01*
X119762000Y-60798880D01*
X119619142Y-60846500D01*
X119523904Y-60941738D01*
X119476285Y-61036976D01*
X119428666Y-61227452D01*
X119428666Y-61370309D01*
X119476285Y-61560785D01*
X119523904Y-61656023D01*
X119619142Y-61751261D01*
X119762000Y-61798880D01*
X120000095Y-61798880D01*
X118857238Y-61227452D02*
X118952476Y-61179833D01*
X119000095Y-61132214D01*
X119047714Y-61036976D01*
X119047714Y-60989357D01*
X119000095Y-60894119D01*
X118952476Y-60846500D01*
X118857238Y-60798880D01*
X118666761Y-60798880D01*
X118571523Y-60846500D01*
X118523904Y-60894119D01*
X118476285Y-60989357D01*
X118476285Y-61036976D01*
X118523904Y-61132214D01*
X118571523Y-61179833D01*
X118666761Y-61227452D01*
X118857238Y-61227452D01*
X118952476Y-61275071D01*
X119000095Y-61322690D01*
X119047714Y-61417928D01*
X119047714Y-61608404D01*
X119000095Y-61703642D01*
X118952476Y-61751261D01*
X118857238Y-61798880D01*
X118666761Y-61798880D01*
X118571523Y-61751261D01*
X118523904Y-61703642D01*
X118476285Y-61608404D01*
X118476285Y-61417928D01*
X118523904Y-61322690D01*
X118571523Y-61275071D01*
X118666761Y-61227452D01*
X118851095Y-78818380D02*
X118851095Y-77818380D01*
X118613000Y-77818380D01*
X118470142Y-77866000D01*
X118374904Y-77961238D01*
X118327285Y-78056476D01*
X118279666Y-78246952D01*
X118279666Y-78389809D01*
X118327285Y-78580285D01*
X118374904Y-78675523D01*
X118470142Y-78770761D01*
X118613000Y-78818380D01*
X118851095Y-78818380D01*
X117946333Y-77818380D02*
X117279666Y-77818380D01*
X117708238Y-78818380D01*
X119711095Y-75868380D02*
X119711095Y-74868380D01*
X119473000Y-74868380D01*
X119330142Y-74916000D01*
X119234904Y-75011238D01*
X119187285Y-75106476D01*
X119139666Y-75296952D01*
X119139666Y-75439809D01*
X119187285Y-75630285D01*
X119234904Y-75725523D01*
X119330142Y-75820761D01*
X119473000Y-75868380D01*
X119711095Y-75868380D01*
X118282523Y-74868380D02*
X118473000Y-74868380D01*
X118568238Y-74916000D01*
X118615857Y-74963619D01*
X118711095Y-75106476D01*
X118758714Y-75296952D01*
X118758714Y-75677904D01*
X118711095Y-75773142D01*
X118663476Y-75820761D01*
X118568238Y-75868380D01*
X118377761Y-75868380D01*
X118282523Y-75820761D01*
X118234904Y-75773142D01*
X118187285Y-75677904D01*
X118187285Y-75439809D01*
X118234904Y-75344571D01*
X118282523Y-75296952D01*
X118377761Y-75249333D01*
X118568238Y-75249333D01*
X118663476Y-75296952D01*
X118711095Y-75344571D01*
X118758714Y-75439809D01*
X141876380Y-76809904D02*
X140876380Y-76809904D01*
X140876380Y-77048000D01*
X140924000Y-77190857D01*
X141019238Y-77286095D01*
X141114476Y-77333714D01*
X141304952Y-77381333D01*
X141447809Y-77381333D01*
X141638285Y-77333714D01*
X141733523Y-77286095D01*
X141828761Y-77190857D01*
X141876380Y-77048000D01*
X141876380Y-76809904D01*
X140876380Y-78286095D02*
X140876380Y-77809904D01*
X141352571Y-77762285D01*
X141304952Y-77809904D01*
X141257333Y-77905142D01*
X141257333Y-78143238D01*
X141304952Y-78238476D01*
X141352571Y-78286095D01*
X141447809Y-78333714D01*
X141685904Y-78333714D01*
X141781142Y-78286095D01*
X141828761Y-78238476D01*
X141876380Y-78143238D01*
X141876380Y-77905142D01*
X141828761Y-77809904D01*
X141781142Y-77762285D01*
X119991095Y-55959880D02*
X119991095Y-54959880D01*
X119753000Y-54959880D01*
X119610142Y-55007500D01*
X119514904Y-55102738D01*
X119467285Y-55197976D01*
X119419666Y-55388452D01*
X119419666Y-55531309D01*
X119467285Y-55721785D01*
X119514904Y-55817023D01*
X119610142Y-55912261D01*
X119753000Y-55959880D01*
X119991095Y-55959880D01*
X118562523Y-55293214D02*
X118562523Y-55959880D01*
X118800619Y-54912261D02*
X119038714Y-55626547D01*
X118419666Y-55626547D01*
X141905380Y-50388904D02*
X140905380Y-50388904D01*
X140905380Y-50627000D01*
X140953000Y-50769857D01*
X141048238Y-50865095D01*
X141143476Y-50912714D01*
X141333952Y-50960333D01*
X141476809Y-50960333D01*
X141667285Y-50912714D01*
X141762523Y-50865095D01*
X141857761Y-50769857D01*
X141905380Y-50627000D01*
X141905380Y-50388904D01*
X140905380Y-51293666D02*
X140905380Y-51912714D01*
X141286333Y-51579380D01*
X141286333Y-51722238D01*
X141333952Y-51817476D01*
X141381571Y-51865095D01*
X141476809Y-51912714D01*
X141714904Y-51912714D01*
X141810142Y-51865095D01*
X141857761Y-51817476D01*
X141905380Y-51722238D01*
X141905380Y-51436523D01*
X141857761Y-51341285D01*
X141810142Y-51293666D01*
X141876380Y-72559904D02*
X140876380Y-72559904D01*
X140876380Y-72798000D01*
X140924000Y-72940857D01*
X141019238Y-73036095D01*
X141114476Y-73083714D01*
X141304952Y-73131333D01*
X141447809Y-73131333D01*
X141638285Y-73083714D01*
X141733523Y-73036095D01*
X141828761Y-72940857D01*
X141876380Y-72798000D01*
X141876380Y-72559904D01*
X140971619Y-73512285D02*
X140924000Y-73559904D01*
X140876380Y-73655142D01*
X140876380Y-73893238D01*
X140924000Y-73988476D01*
X140971619Y-74036095D01*
X141066857Y-74083714D01*
X141162095Y-74083714D01*
X141304952Y-74036095D01*
X141876380Y-73464666D01*
X141876380Y-74083714D01*
X120000095Y-58848880D02*
X120000095Y-57848880D01*
X119762000Y-57848880D01*
X119619142Y-57896500D01*
X119523904Y-57991738D01*
X119476285Y-58086976D01*
X119428666Y-58277452D01*
X119428666Y-58420309D01*
X119476285Y-58610785D01*
X119523904Y-58706023D01*
X119619142Y-58801261D01*
X119762000Y-58848880D01*
X120000095Y-58848880D01*
X118476285Y-58848880D02*
X119047714Y-58848880D01*
X118762000Y-58848880D02*
X118762000Y-57848880D01*
X118857238Y-57991738D01*
X118952476Y-58086976D01*
X119047714Y-58134595D01*
X118379666Y-87433142D02*
X118427285Y-87480761D01*
X118570142Y-87528380D01*
X118665380Y-87528380D01*
X118808238Y-87480761D01*
X118903476Y-87385523D01*
X118951095Y-87290285D01*
X118998714Y-87099809D01*
X118998714Y-86956952D01*
X118951095Y-86766476D01*
X118903476Y-86671238D01*
X118808238Y-86576000D01*
X118665380Y-86528380D01*
X118570142Y-86528380D01*
X118427285Y-86576000D01*
X118379666Y-86623619D01*
X117998714Y-86623619D02*
X117951095Y-86576000D01*
X117855857Y-86528380D01*
X117617761Y-86528380D01*
X117522523Y-86576000D01*
X117474904Y-86623619D01*
X117427285Y-86718857D01*
X117427285Y-86814095D01*
X117474904Y-86956952D01*
X118046333Y-87528380D01*
X117427285Y-87528380D01*
X141610142Y-68540333D02*
X141657761Y-68492714D01*
X141705380Y-68349857D01*
X141705380Y-68254619D01*
X141657761Y-68111761D01*
X141562523Y-68016523D01*
X141467285Y-67968904D01*
X141276809Y-67921285D01*
X141133952Y-67921285D01*
X140943476Y-67968904D01*
X140848238Y-68016523D01*
X140753000Y-68111761D01*
X140705380Y-68254619D01*
X140705380Y-68349857D01*
X140753000Y-68492714D01*
X140800619Y-68540333D01*
X141705380Y-69492714D02*
X141705380Y-68921285D01*
X141705380Y-69207000D02*
X140705380Y-69207000D01*
X140848238Y-69111761D01*
X140943476Y-69016523D01*
X140991095Y-68921285D01*
%LPC*%
G36*
G01*
X142199000Y-95972500D02*
X141899000Y-95972500D01*
G75*
G02*
X141749000Y-95822500I0J150000D01*
G01*
X141749000Y-94172500D01*
G75*
G02*
X141899000Y-94022500I150000J0D01*
G01*
X142199000Y-94022500D01*
G75*
G02*
X142349000Y-94172500I0J-150000D01*
G01*
X142349000Y-95822500D01*
G75*
G02*
X142199000Y-95972500I-150000J0D01*
G01*
G37*
G36*
G01*
X140929000Y-95972500D02*
X140629000Y-95972500D01*
G75*
G02*
X140479000Y-95822500I0J150000D01*
G01*
X140479000Y-94172500D01*
G75*
G02*
X140629000Y-94022500I150000J0D01*
G01*
X140929000Y-94022500D01*
G75*
G02*
X141079000Y-94172500I0J-150000D01*
G01*
X141079000Y-95822500D01*
G75*
G02*
X140929000Y-95972500I-150000J0D01*
G01*
G37*
G36*
G01*
X139659000Y-95972500D02*
X139359000Y-95972500D01*
G75*
G02*
X139209000Y-95822500I0J150000D01*
G01*
X139209000Y-94172500D01*
G75*
G02*
X139359000Y-94022500I150000J0D01*
G01*
X139659000Y-94022500D01*
G75*
G02*
X139809000Y-94172500I0J-150000D01*
G01*
X139809000Y-95822500D01*
G75*
G02*
X139659000Y-95972500I-150000J0D01*
G01*
G37*
G36*
G01*
X138389000Y-95972500D02*
X138089000Y-95972500D01*
G75*
G02*
X137939000Y-95822500I0J150000D01*
G01*
X137939000Y-94172500D01*
G75*
G02*
X138089000Y-94022500I150000J0D01*
G01*
X138389000Y-94022500D01*
G75*
G02*
X138539000Y-94172500I0J-150000D01*
G01*
X138539000Y-95822500D01*
G75*
G02*
X138389000Y-95972500I-150000J0D01*
G01*
G37*
G36*
G01*
X138389000Y-100922500D02*
X138089000Y-100922500D01*
G75*
G02*
X137939000Y-100772500I0J150000D01*
G01*
X137939000Y-99122500D01*
G75*
G02*
X138089000Y-98972500I150000J0D01*
G01*
X138389000Y-98972500D01*
G75*
G02*
X138539000Y-99122500I0J-150000D01*
G01*
X138539000Y-100772500D01*
G75*
G02*
X138389000Y-100922500I-150000J0D01*
G01*
G37*
G36*
G01*
X139659000Y-100922500D02*
X139359000Y-100922500D01*
G75*
G02*
X139209000Y-100772500I0J150000D01*
G01*
X139209000Y-99122500D01*
G75*
G02*
X139359000Y-98972500I150000J0D01*
G01*
X139659000Y-98972500D01*
G75*
G02*
X139809000Y-99122500I0J-150000D01*
G01*
X139809000Y-100772500D01*
G75*
G02*
X139659000Y-100922500I-150000J0D01*
G01*
G37*
G36*
G01*
X140929000Y-100922500D02*
X140629000Y-100922500D01*
G75*
G02*
X140479000Y-100772500I0J150000D01*
G01*
X140479000Y-99122500D01*
G75*
G02*
X140629000Y-98972500I150000J0D01*
G01*
X140929000Y-98972500D01*
G75*
G02*
X141079000Y-99122500I0J-150000D01*
G01*
X141079000Y-100772500D01*
G75*
G02*
X140929000Y-100922500I-150000J0D01*
G01*
G37*
G36*
G01*
X142199000Y-100922500D02*
X141899000Y-100922500D01*
G75*
G02*
X141749000Y-100772500I0J150000D01*
G01*
X141749000Y-99122500D01*
G75*
G02*
X141899000Y-98972500I150000J0D01*
G01*
X142199000Y-98972500D01*
G75*
G02*
X142349000Y-99122500I0J-150000D01*
G01*
X142349000Y-100772500D01*
G75*
G02*
X142199000Y-100922500I-150000J0D01*
G01*
G37*
G36*
G01*
X121879000Y-96417000D02*
X121579000Y-96417000D01*
G75*
G02*
X121429000Y-96267000I0J150000D01*
G01*
X121429000Y-94617000D01*
G75*
G02*
X121579000Y-94467000I150000J0D01*
G01*
X121879000Y-94467000D01*
G75*
G02*
X122029000Y-94617000I0J-150000D01*
G01*
X122029000Y-96267000D01*
G75*
G02*
X121879000Y-96417000I-150000J0D01*
G01*
G37*
G36*
G01*
X120609000Y-96417000D02*
X120309000Y-96417000D01*
G75*
G02*
X120159000Y-96267000I0J150000D01*
G01*
X120159000Y-94617000D01*
G75*
G02*
X120309000Y-94467000I150000J0D01*
G01*
X120609000Y-94467000D01*
G75*
G02*
X120759000Y-94617000I0J-150000D01*
G01*
X120759000Y-96267000D01*
G75*
G02*
X120609000Y-96417000I-150000J0D01*
G01*
G37*
G36*
G01*
X119339000Y-96417000D02*
X119039000Y-96417000D01*
G75*
G02*
X118889000Y-96267000I0J150000D01*
G01*
X118889000Y-94617000D01*
G75*
G02*
X119039000Y-94467000I150000J0D01*
G01*
X119339000Y-94467000D01*
G75*
G02*
X119489000Y-94617000I0J-150000D01*
G01*
X119489000Y-96267000D01*
G75*
G02*
X119339000Y-96417000I-150000J0D01*
G01*
G37*
G36*
G01*
X118069000Y-96417000D02*
X117769000Y-96417000D01*
G75*
G02*
X117619000Y-96267000I0J150000D01*
G01*
X117619000Y-94617000D01*
G75*
G02*
X117769000Y-94467000I150000J0D01*
G01*
X118069000Y-94467000D01*
G75*
G02*
X118219000Y-94617000I0J-150000D01*
G01*
X118219000Y-96267000D01*
G75*
G02*
X118069000Y-96417000I-150000J0D01*
G01*
G37*
G36*
G01*
X118069000Y-101367000D02*
X117769000Y-101367000D01*
G75*
G02*
X117619000Y-101217000I0J150000D01*
G01*
X117619000Y-99567000D01*
G75*
G02*
X117769000Y-99417000I150000J0D01*
G01*
X118069000Y-99417000D01*
G75*
G02*
X118219000Y-99567000I0J-150000D01*
G01*
X118219000Y-101217000D01*
G75*
G02*
X118069000Y-101367000I-150000J0D01*
G01*
G37*
G36*
G01*
X119339000Y-101367000D02*
X119039000Y-101367000D01*
G75*
G02*
X118889000Y-101217000I0J150000D01*
G01*
X118889000Y-99567000D01*
G75*
G02*
X119039000Y-99417000I150000J0D01*
G01*
X119339000Y-99417000D01*
G75*
G02*
X119489000Y-99567000I0J-150000D01*
G01*
X119489000Y-101217000D01*
G75*
G02*
X119339000Y-101367000I-150000J0D01*
G01*
G37*
G36*
G01*
X120609000Y-101367000D02*
X120309000Y-101367000D01*
G75*
G02*
X120159000Y-101217000I0J150000D01*
G01*
X120159000Y-99567000D01*
G75*
G02*
X120309000Y-99417000I150000J0D01*
G01*
X120609000Y-99417000D01*
G75*
G02*
X120759000Y-99567000I0J-150000D01*
G01*
X120759000Y-101217000D01*
G75*
G02*
X120609000Y-101367000I-150000J0D01*
G01*
G37*
G36*
G01*
X121879000Y-101367000D02*
X121579000Y-101367000D01*
G75*
G02*
X121429000Y-101217000I0J150000D01*
G01*
X121429000Y-99567000D01*
G75*
G02*
X121579000Y-99417000I150000J0D01*
G01*
X121879000Y-99417000D01*
G75*
G02*
X122029000Y-99567000I0J-150000D01*
G01*
X122029000Y-101217000D01*
G75*
G02*
X121879000Y-101367000I-150000J0D01*
G01*
G37*
D12*
X125018000Y-87369000D03*
X134618000Y-87369000D03*
D13*
X132318000Y-94869000D03*
X129818000Y-94869000D03*
D14*
X127318000Y-94869000D03*
D12*
X125018000Y-104006000D03*
X134618000Y-104006000D03*
D13*
X132318000Y-111506000D03*
X129818000Y-111506000D03*
D14*
X127318000Y-111506000D03*
D12*
X125144000Y-53460000D03*
X134744000Y-53460000D03*
D13*
X132444000Y-60960000D03*
X129944000Y-60960000D03*
D14*
X127444000Y-60960000D03*
D12*
X125208000Y-71049500D03*
X134808000Y-71049500D03*
D13*
X132508000Y-78549500D03*
X130008000Y-78549500D03*
D14*
X127508000Y-78549500D03*
G36*
G01*
X140053001Y-55057000D02*
X139152999Y-55057000D01*
G75*
G02*
X138903000Y-54807001I0J249999D01*
G01*
X138903000Y-54281999D01*
G75*
G02*
X139152999Y-54032000I249999J0D01*
G01*
X140053001Y-54032000D01*
G75*
G02*
X140303000Y-54281999I0J-249999D01*
G01*
X140303000Y-54807001D01*
G75*
G02*
X140053001Y-55057000I-249999J0D01*
G01*
G37*
G36*
G01*
X140053001Y-56882000D02*
X139152999Y-56882000D01*
G75*
G02*
X138903000Y-56632001I0J249999D01*
G01*
X138903000Y-56106999D01*
G75*
G02*
X139152999Y-55857000I249999J0D01*
G01*
X140053001Y-55857000D01*
G75*
G02*
X140303000Y-56106999I0J-249999D01*
G01*
X140303000Y-56632001D01*
G75*
G02*
X140053001Y-56882000I-249999J0D01*
G01*
G37*
G36*
G01*
X119742000Y-62896501D02*
X119742000Y-61996499D01*
G75*
G02*
X119991999Y-61746500I249999J0D01*
G01*
X120517001Y-61746500D01*
G75*
G02*
X120767000Y-61996499I0J-249999D01*
G01*
X120767000Y-62896501D01*
G75*
G02*
X120517001Y-63146500I-249999J0D01*
G01*
X119991999Y-63146500D01*
G75*
G02*
X119742000Y-62896501I0J249999D01*
G01*
G37*
G36*
G01*
X117917000Y-62896501D02*
X117917000Y-61996499D01*
G75*
G02*
X118166999Y-61746500I249999J0D01*
G01*
X118692001Y-61746500D01*
G75*
G02*
X118942000Y-61996499I0J-249999D01*
G01*
X118942000Y-62896501D01*
G75*
G02*
X118692001Y-63146500I-249999J0D01*
G01*
X118166999Y-63146500D01*
G75*
G02*
X117917000Y-62896501I0J249999D01*
G01*
G37*
G36*
G01*
X140053001Y-59467000D02*
X139152999Y-59467000D01*
G75*
G02*
X138903000Y-59217001I0J249999D01*
G01*
X138903000Y-58691999D01*
G75*
G02*
X139152999Y-58442000I249999J0D01*
G01*
X140053001Y-58442000D01*
G75*
G02*
X140303000Y-58691999I0J-249999D01*
G01*
X140303000Y-59217001D01*
G75*
G02*
X140053001Y-59467000I-249999J0D01*
G01*
G37*
G36*
G01*
X140053001Y-61292000D02*
X139152999Y-61292000D01*
G75*
G02*
X138903000Y-61042001I0J249999D01*
G01*
X138903000Y-60516999D01*
G75*
G02*
X139152999Y-60267000I249999J0D01*
G01*
X140053001Y-60267000D01*
G75*
G02*
X140303000Y-60516999I0J-249999D01*
G01*
X140303000Y-61042001D01*
G75*
G02*
X140053001Y-61292000I-249999J0D01*
G01*
G37*
G36*
G01*
X118593000Y-79916001D02*
X118593000Y-79015999D01*
G75*
G02*
X118842999Y-78766000I249999J0D01*
G01*
X119368001Y-78766000D01*
G75*
G02*
X119618000Y-79015999I0J-249999D01*
G01*
X119618000Y-79916001D01*
G75*
G02*
X119368001Y-80166000I-249999J0D01*
G01*
X118842999Y-80166000D01*
G75*
G02*
X118593000Y-79916001I0J249999D01*
G01*
G37*
G36*
G01*
X116768000Y-79916001D02*
X116768000Y-79015999D01*
G75*
G02*
X117017999Y-78766000I249999J0D01*
G01*
X117543001Y-78766000D01*
G75*
G02*
X117793000Y-79015999I0J-249999D01*
G01*
X117793000Y-79916001D01*
G75*
G02*
X117543001Y-80166000I-249999J0D01*
G01*
X117017999Y-80166000D01*
G75*
G02*
X116768000Y-79916001I0J249999D01*
G01*
G37*
G36*
G01*
X139964001Y-85888000D02*
X139063999Y-85888000D01*
G75*
G02*
X138814000Y-85638001I0J249999D01*
G01*
X138814000Y-85112999D01*
G75*
G02*
X139063999Y-84863000I249999J0D01*
G01*
X139964001Y-84863000D01*
G75*
G02*
X140214000Y-85112999I0J-249999D01*
G01*
X140214000Y-85638001D01*
G75*
G02*
X139964001Y-85888000I-249999J0D01*
G01*
G37*
G36*
G01*
X139964001Y-87713000D02*
X139063999Y-87713000D01*
G75*
G02*
X138814000Y-87463001I0J249999D01*
G01*
X138814000Y-86937999D01*
G75*
G02*
X139063999Y-86688000I249999J0D01*
G01*
X139964001Y-86688000D01*
G75*
G02*
X140214000Y-86937999I0J-249999D01*
G01*
X140214000Y-87463001D01*
G75*
G02*
X139964001Y-87713000I-249999J0D01*
G01*
G37*
G36*
G01*
X119742000Y-65846501D02*
X119742000Y-64946499D01*
G75*
G02*
X119991999Y-64696500I249999J0D01*
G01*
X120517001Y-64696500D01*
G75*
G02*
X120767000Y-64946499I0J-249999D01*
G01*
X120767000Y-65846501D01*
G75*
G02*
X120517001Y-66096500I-249999J0D01*
G01*
X119991999Y-66096500D01*
G75*
G02*
X119742000Y-65846501I0J249999D01*
G01*
G37*
G36*
G01*
X117917000Y-65846501D02*
X117917000Y-64946499D01*
G75*
G02*
X118166999Y-64696500I249999J0D01*
G01*
X118692001Y-64696500D01*
G75*
G02*
X118942000Y-64946499I0J-249999D01*
G01*
X118942000Y-65846501D01*
G75*
G02*
X118692001Y-66096500I-249999J0D01*
G01*
X118166999Y-66096500D01*
G75*
G02*
X117917000Y-65846501I0J249999D01*
G01*
G37*
G36*
G01*
X139964001Y-90298000D02*
X139063999Y-90298000D01*
G75*
G02*
X138814000Y-90048001I0J249999D01*
G01*
X138814000Y-89522999D01*
G75*
G02*
X139063999Y-89273000I249999J0D01*
G01*
X139964001Y-89273000D01*
G75*
G02*
X140214000Y-89522999I0J-249999D01*
G01*
X140214000Y-90048001D01*
G75*
G02*
X139964001Y-90298000I-249999J0D01*
G01*
G37*
G36*
G01*
X139964001Y-92123000D02*
X139063999Y-92123000D01*
G75*
G02*
X138814000Y-91873001I0J249999D01*
G01*
X138814000Y-91347999D01*
G75*
G02*
X139063999Y-91098000I249999J0D01*
G01*
X139964001Y-91098000D01*
G75*
G02*
X140214000Y-91347999I0J-249999D01*
G01*
X140214000Y-91873001D01*
G75*
G02*
X139964001Y-92123000I-249999J0D01*
G01*
G37*
G36*
G01*
X118593000Y-82866001D02*
X118593000Y-81965999D01*
G75*
G02*
X118842999Y-81716000I249999J0D01*
G01*
X119368001Y-81716000D01*
G75*
G02*
X119618000Y-81965999I0J-249999D01*
G01*
X119618000Y-82866001D01*
G75*
G02*
X119368001Y-83116000I-249999J0D01*
G01*
X118842999Y-83116000D01*
G75*
G02*
X118593000Y-82866001I0J249999D01*
G01*
G37*
G36*
G01*
X116768000Y-82866001D02*
X116768000Y-81965999D01*
G75*
G02*
X117017999Y-81716000I249999J0D01*
G01*
X117543001Y-81716000D01*
G75*
G02*
X117793000Y-81965999I0J-249999D01*
G01*
X117793000Y-82866001D01*
G75*
G02*
X117543001Y-83116000I-249999J0D01*
G01*
X117017999Y-83116000D01*
G75*
G02*
X116768000Y-82866001I0J249999D01*
G01*
G37*
G36*
G01*
X140053001Y-63877000D02*
X139152999Y-63877000D01*
G75*
G02*
X138903000Y-63627001I0J249999D01*
G01*
X138903000Y-63101999D01*
G75*
G02*
X139152999Y-62852000I249999J0D01*
G01*
X140053001Y-62852000D01*
G75*
G02*
X140303000Y-63101999I0J-249999D01*
G01*
X140303000Y-63627001D01*
G75*
G02*
X140053001Y-63877000I-249999J0D01*
G01*
G37*
G36*
G01*
X140053001Y-65702000D02*
X139152999Y-65702000D01*
G75*
G02*
X138903000Y-65452001I0J249999D01*
G01*
X138903000Y-64926999D01*
G75*
G02*
X139152999Y-64677000I249999J0D01*
G01*
X140053001Y-64677000D01*
G75*
G02*
X140303000Y-64926999I0J-249999D01*
G01*
X140303000Y-65452001D01*
G75*
G02*
X140053001Y-65702000I-249999J0D01*
G01*
G37*
G36*
G01*
X140024001Y-81478000D02*
X139123999Y-81478000D01*
G75*
G02*
X138874000Y-81228001I0J249999D01*
G01*
X138874000Y-80702999D01*
G75*
G02*
X139123999Y-80453000I249999J0D01*
G01*
X140024001Y-80453000D01*
G75*
G02*
X140274000Y-80702999I0J-249999D01*
G01*
X140274000Y-81228001D01*
G75*
G02*
X140024001Y-81478000I-249999J0D01*
G01*
G37*
G36*
G01*
X140024001Y-83303000D02*
X139123999Y-83303000D01*
G75*
G02*
X138874000Y-83053001I0J249999D01*
G01*
X138874000Y-82527999D01*
G75*
G02*
X139123999Y-82278000I249999J0D01*
G01*
X140024001Y-82278000D01*
G75*
G02*
X140274000Y-82527999I0J-249999D01*
G01*
X140274000Y-83053001D01*
G75*
G02*
X140024001Y-83303000I-249999J0D01*
G01*
G37*
G36*
G01*
X132318000Y-140048000D02*
X131018000Y-140048000D01*
G75*
G02*
X130368000Y-139398000I0J650000D01*
G01*
X130368000Y-138098000D01*
G75*
G02*
X131018000Y-137448000I650000J0D01*
G01*
X132318000Y-137448000D01*
G75*
G02*
X132968000Y-138098000I0J-650000D01*
G01*
X132968000Y-139398000D01*
G75*
G02*
X132318000Y-140048000I-650000J0D01*
G01*
G37*
D15*
X143068000Y-138748000D03*
G36*
G01*
X140618000Y-140048000D02*
X139318000Y-140048000D01*
G75*
G02*
X138668000Y-139398000I0J650000D01*
G01*
X138668000Y-138098000D01*
G75*
G02*
X139318000Y-137448000I650000J0D01*
G01*
X140618000Y-137448000D01*
G75*
G02*
X141268000Y-138098000I0J-650000D01*
G01*
X141268000Y-139398000D01*
G75*
G02*
X140618000Y-140048000I-650000J0D01*
G01*
G37*
G36*
G01*
X127333000Y-137448000D02*
X128633000Y-137448000D01*
G75*
G02*
X129283000Y-138098000I0J-650000D01*
G01*
X129283000Y-139398000D01*
G75*
G02*
X128633000Y-140048000I-650000J0D01*
G01*
X127333000Y-140048000D01*
G75*
G02*
X126683000Y-139398000I0J650000D01*
G01*
X126683000Y-138098000D01*
G75*
G02*
X127333000Y-137448000I650000J0D01*
G01*
G37*
X116583000Y-138748000D03*
G36*
G01*
X119033000Y-137448000D02*
X120333000Y-137448000D01*
G75*
G02*
X120983000Y-138098000I0J-650000D01*
G01*
X120983000Y-139398000D01*
G75*
G02*
X120333000Y-140048000I-650000J0D01*
G01*
X119033000Y-140048000D01*
G75*
G02*
X118383000Y-139398000I0J650000D01*
G01*
X118383000Y-138098000D01*
G75*
G02*
X119033000Y-137448000I650000J0D01*
G01*
G37*
D16*
X134938000Y-118999000D03*
X132398000Y-118999000D03*
X129858000Y-118999000D03*
X127318000Y-118999000D03*
X124778000Y-118999000D03*
X134938000Y-116459000D03*
X132398000Y-116459000D03*
X129858000Y-116459000D03*
X127318000Y-116459000D03*
G36*
G01*
X124178000Y-115609000D02*
X125378000Y-115609000D01*
G75*
G02*
X125628000Y-115859000I0J-250000D01*
G01*
X125628000Y-117059000D01*
G75*
G02*
X125378000Y-117309000I-250000J0D01*
G01*
X124178000Y-117309000D01*
G75*
G02*
X123928000Y-117059000I0J250000D01*
G01*
X123928000Y-115859000D01*
G75*
G02*
X124178000Y-115609000I250000J0D01*
G01*
G37*
G36*
G01*
X132255000Y-126268000D02*
X130955000Y-126268000D01*
G75*
G02*
X130305000Y-125618000I0J650000D01*
G01*
X130305000Y-124318000D01*
G75*
G02*
X130955000Y-123668000I650000J0D01*
G01*
X132255000Y-123668000D01*
G75*
G02*
X132905000Y-124318000I0J-650000D01*
G01*
X132905000Y-125618000D01*
G75*
G02*
X132255000Y-126268000I-650000J0D01*
G01*
G37*
D15*
X143005000Y-124968000D03*
G36*
G01*
X140555000Y-126268000D02*
X139255000Y-126268000D01*
G75*
G02*
X138605000Y-125618000I0J650000D01*
G01*
X138605000Y-124318000D01*
G75*
G02*
X139255000Y-123668000I650000J0D01*
G01*
X140555000Y-123668000D01*
G75*
G02*
X141205000Y-124318000I0J-650000D01*
G01*
X141205000Y-125618000D01*
G75*
G02*
X140555000Y-126268000I-650000J0D01*
G01*
G37*
G36*
G01*
X127650000Y-123604000D02*
X128950000Y-123604000D01*
G75*
G02*
X129600000Y-124254000I0J-650000D01*
G01*
X129600000Y-125554000D01*
G75*
G02*
X128950000Y-126204000I-650000J0D01*
G01*
X127650000Y-126204000D01*
G75*
G02*
X127000000Y-125554000I0J650000D01*
G01*
X127000000Y-124254000D01*
G75*
G02*
X127650000Y-123604000I650000J0D01*
G01*
G37*
X116900000Y-124904000D03*
G36*
G01*
X119350000Y-123604000D02*
X120650000Y-123604000D01*
G75*
G02*
X121300000Y-124254000I0J-650000D01*
G01*
X121300000Y-125554000D01*
G75*
G02*
X120650000Y-126204000I-650000J0D01*
G01*
X119350000Y-126204000D01*
G75*
G02*
X118700000Y-125554000I0J650000D01*
G01*
X118700000Y-124254000D01*
G75*
G02*
X119350000Y-123604000I650000J0D01*
G01*
G37*
D17*
X120362000Y-59496500D03*
X118162000Y-59496500D03*
X119213000Y-76516000D03*
X117013000Y-76516000D03*
X120073000Y-73566000D03*
X117873000Y-73566000D03*
X139574000Y-76448000D03*
X139574000Y-78648000D03*
X120353000Y-53657500D03*
X118153000Y-53657500D03*
X139603000Y-50027000D03*
X139603000Y-52227000D03*
X139574000Y-72198000D03*
X139574000Y-74398000D03*
X120362000Y-56546500D03*
X118162000Y-56546500D03*
G36*
G01*
X118663000Y-85871000D02*
X118663000Y-84921000D01*
G75*
G02*
X118913000Y-84671000I250000J0D01*
G01*
X119413000Y-84671000D01*
G75*
G02*
X119663000Y-84921000I0J-250000D01*
G01*
X119663000Y-85871000D01*
G75*
G02*
X119413000Y-86121000I-250000J0D01*
G01*
X118913000Y-86121000D01*
G75*
G02*
X118663000Y-85871000I0J250000D01*
G01*
G37*
G36*
G01*
X116763000Y-85871000D02*
X116763000Y-84921000D01*
G75*
G02*
X117013000Y-84671000I250000J0D01*
G01*
X117513000Y-84671000D01*
G75*
G02*
X117763000Y-84921000I0J-250000D01*
G01*
X117763000Y-85871000D01*
G75*
G02*
X117513000Y-86121000I-250000J0D01*
G01*
X117013000Y-86121000D01*
G75*
G02*
X116763000Y-85871000I0J250000D01*
G01*
G37*
G36*
G01*
X140048000Y-68257000D02*
X139098000Y-68257000D01*
G75*
G02*
X138848000Y-68007000I0J250000D01*
G01*
X138848000Y-67507000D01*
G75*
G02*
X139098000Y-67257000I250000J0D01*
G01*
X140048000Y-67257000D01*
G75*
G02*
X140298000Y-67507000I0J-250000D01*
G01*
X140298000Y-68007000D01*
G75*
G02*
X140048000Y-68257000I-250000J0D01*
G01*
G37*
G36*
G01*
X140048000Y-70157000D02*
X139098000Y-70157000D01*
G75*
G02*
X138848000Y-69907000I0J250000D01*
G01*
X138848000Y-69407000D01*
G75*
G02*
X139098000Y-69157000I250000J0D01*
G01*
X140048000Y-69157000D01*
G75*
G02*
X140298000Y-69407000I0J-250000D01*
G01*
X140298000Y-69907000D01*
G75*
G02*
X140048000Y-70157000I-250000J0D01*
G01*
G37*
M02*
