M48
; DRILL file {KiCad (5.1.10-1-10_14)} date Saturday, November 27, 2021 at 03:41:33 PM
; FORMAT={-:-/ absolute / inch / decimal}
; #@! TF.CreationDate,2021-11-27T15:41:33+01:00
; #@! TF.GenerationSoftware,Kicad,Pcbnew,(5.1.10-1-10_14)
; #@! TF.FileFunction,Plated,1,2,PTH
FMAT,2
INCH
T1C0.0157
T2C0.0236
T3C0.0394
T4C0.0433
%
G90
G05
T1
X4.6171Y-2.6471
X4.6437Y-3.1909
X4.6635Y-2.1913
X4.682Y-2.9544
X4.6853Y-3.8425
X4.688Y-3.1801
X4.6965Y-2.5233
X4.7043Y-2.737
X4.7046Y-2.1502
X4.7425Y-3.8306
X4.8091Y-3.2998
X4.8091Y-3.8203
X4.8403Y-2.5316
X4.8491Y-4.1921
X5.1674Y-2.9405
X5.1973Y-3.4623
X5.3555Y-3.8021
X5.4009Y-3.7274
X5.4554Y-3.1944
X5.4694Y-3.4075
X5.4694Y-3.8392
X5.5025Y-2.6234
X5.5112Y-3.0677
X5.5291Y-4.1112
X5.5327Y-2.2895
X5.5723Y-2.2827
T3
X4.9125Y-4.585
X4.9125Y-4.685
X5.0125Y-3.735
X5.0125Y-4.39
X5.0125Y-4.585
X5.0125Y-4.685
X5.0175Y-2.4
X5.02Y-3.0925
X5.1109Y-3.735
X5.1109Y-4.39
X5.1125Y-4.585
X5.1125Y-4.685
X5.1159Y-2.4
X5.1184Y-3.0925
X5.2094Y-3.735
X5.2094Y-4.39
X5.2125Y-4.585
X5.2125Y-4.685
X5.2143Y-2.4
X5.2169Y-3.0925
X5.3125Y-4.585
X5.3125Y-4.685
T2
G00X4.5899Y-5.4428
M15
G01X4.5899Y-5.4822
M16
G05
G00X4.6024Y-4.8978
M15
G01X4.6024Y-4.9372
M16
G05
G00X4.7119Y-5.4428
M15
G01X4.7119Y-5.4822
M16
G05
G00X4.7244Y-4.8978
M15
G01X4.7244Y-4.9372
M16
G05
G00X5.0387Y-5.4428
M15
G01X5.0387Y-5.4822
M16
G05
G00X5.0512Y-4.8978
M15
G01X5.0512Y-4.9372
M16
G05
G00X5.1813Y-4.9397
M15
G01X5.1813Y-4.9003
M16
G05
G00X5.1838Y-5.4822
M15
G01X5.1838Y-5.4428
M16
G05
G00X5.5081Y-4.9397
M15
G01X5.5081Y-4.9003
M16
G05
G00X5.5106Y-5.4822
M15
G01X5.5106Y-5.4428
M16
G05
G00X5.6301Y-4.9397
M15
G01X5.6301Y-4.9003
M16
G05
G00X5.6326Y-5.4822
M15
G01X5.6326Y-5.4428
M16
G05
T4
G00X4.922Y-3.4535
M15
G01X4.922Y-3.4259
M16
G05
G00X4.922Y-4.1085
M15
G01X4.922Y-4.0809
M16
G05
G00X4.9269Y-2.1185
M15
G01X4.9269Y-2.0909
M16
G05
G00X4.9294Y-2.811
M15
G01X4.9294Y-2.7834
M16
G05
G00X5.2999Y-3.4535
M15
G01X5.2999Y-3.4259
M16
G05
G00X5.2999Y-4.1085
M15
G01X5.2999Y-4.0809
M16
G05
G00X5.3049Y-2.1185
M15
G01X5.3049Y-2.0909
M16
G05
G00X5.3074Y-2.811
M15
G01X5.3074Y-2.7834
M16
G05
T0
M30
