G04 #@! TF.GenerationSoftware,KiCad,Pcbnew,(5.1.10-1-10_14)*
G04 #@! TF.CreationDate,2021-11-27T15:41:33+01:00*
G04 #@! TF.ProjectId,main,6d61696e-2e6b-4696-9361-645f70636258,rev?*
G04 #@! TF.SameCoordinates,Original*
G04 #@! TF.FileFunction,Copper,L2,Bot*
G04 #@! TF.FilePolarity,Positive*
%FSLAX46Y46*%
G04 Gerber Fmt 4.6, Leading zero omitted, Abs format (unit mm)*
G04 Created by KiCad (PCBNEW (5.1.10-1-10_14)) date 2021-11-27 15:41:33*
%MOMM*%
%LPD*%
G01*
G04 APERTURE LIST*
G04 #@! TA.AperFunction,ComponentPad*
%ADD10O,2.720000X3.240000*%
G04 #@! TD*
G04 #@! TA.AperFunction,ComponentPad*
%ADD11C,1.800000*%
G04 #@! TD*
G04 #@! TA.AperFunction,ComponentPad*
%ADD12R,1.800000X1.800000*%
G04 #@! TD*
G04 #@! TA.AperFunction,ComponentPad*
%ADD13O,2.300000X3.100000*%
G04 #@! TD*
G04 #@! TA.AperFunction,ComponentPad*
%ADD14C,1.700000*%
G04 #@! TD*
G04 #@! TA.AperFunction,SMDPad,CuDef*
%ADD15R,0.500000X0.500000*%
G04 #@! TD*
G04 #@! TA.AperFunction,ViaPad*
%ADD16C,0.800000*%
G04 #@! TD*
G04 #@! TA.AperFunction,Conductor*
%ADD17C,0.250000*%
G04 #@! TD*
G04 APERTURE END LIST*
G04 #@! TA.AperFunction,SMDPad,CuDef*
G36*
G01*
X139286000Y-108392000D02*
X138336000Y-108392000D01*
G75*
G02*
X138086000Y-108142000I0J250000D01*
G01*
X138086000Y-107642000D01*
G75*
G02*
X138336000Y-107392000I250000J0D01*
G01*
X139286000Y-107392000D01*
G75*
G02*
X139536000Y-107642000I0J-250000D01*
G01*
X139536000Y-108142000D01*
G75*
G02*
X139286000Y-108392000I-250000J0D01*
G01*
G37*
G04 #@! TD.AperFunction*
G04 #@! TA.AperFunction,SMDPad,CuDef*
G36*
G01*
X139286000Y-110292000D02*
X138336000Y-110292000D01*
G75*
G02*
X138086000Y-110042000I0J250000D01*
G01*
X138086000Y-109542000D01*
G75*
G02*
X138336000Y-109292000I250000J0D01*
G01*
X139286000Y-109292000D01*
G75*
G02*
X139536000Y-109542000I0J-250000D01*
G01*
X139536000Y-110042000D01*
G75*
G02*
X139286000Y-110292000I-250000J0D01*
G01*
G37*
G04 #@! TD.AperFunction*
G04 #@! TA.AperFunction,SMDPad,CuDef*
G36*
G01*
X118521000Y-109204000D02*
X117571000Y-109204000D01*
G75*
G02*
X117321000Y-108954000I0J250000D01*
G01*
X117321000Y-108454000D01*
G75*
G02*
X117571000Y-108204000I250000J0D01*
G01*
X118521000Y-108204000D01*
G75*
G02*
X118771000Y-108454000I0J-250000D01*
G01*
X118771000Y-108954000D01*
G75*
G02*
X118521000Y-109204000I-250000J0D01*
G01*
G37*
G04 #@! TD.AperFunction*
G04 #@! TA.AperFunction,SMDPad,CuDef*
G36*
G01*
X118521000Y-111104000D02*
X117571000Y-111104000D01*
G75*
G02*
X117321000Y-110854000I0J250000D01*
G01*
X117321000Y-110354000D01*
G75*
G02*
X117571000Y-110104000I250000J0D01*
G01*
X118521000Y-110104000D01*
G75*
G02*
X118771000Y-110354000I0J-250000D01*
G01*
X118771000Y-110854000D01*
G75*
G02*
X118521000Y-111104000I-250000J0D01*
G01*
G37*
G04 #@! TD.AperFunction*
G04 #@! TA.AperFunction,SMDPad,CuDef*
G36*
G01*
X139286000Y-104074000D02*
X138336000Y-104074000D01*
G75*
G02*
X138086000Y-103824000I0J250000D01*
G01*
X138086000Y-103324000D01*
G75*
G02*
X138336000Y-103074000I250000J0D01*
G01*
X139286000Y-103074000D01*
G75*
G02*
X139536000Y-103324000I0J-250000D01*
G01*
X139536000Y-103824000D01*
G75*
G02*
X139286000Y-104074000I-250000J0D01*
G01*
G37*
G04 #@! TD.AperFunction*
G04 #@! TA.AperFunction,SMDPad,CuDef*
G36*
G01*
X139286000Y-105974000D02*
X138336000Y-105974000D01*
G75*
G02*
X138086000Y-105724000I0J250000D01*
G01*
X138086000Y-105224000D01*
G75*
G02*
X138336000Y-104974000I250000J0D01*
G01*
X139286000Y-104974000D01*
G75*
G02*
X139536000Y-105224000I0J-250000D01*
G01*
X139536000Y-105724000D01*
G75*
G02*
X139286000Y-105974000I-250000J0D01*
G01*
G37*
G04 #@! TD.AperFunction*
G04 #@! TA.AperFunction,SMDPad,CuDef*
G36*
G01*
X121506000Y-104960000D02*
X120556000Y-104960000D01*
G75*
G02*
X120306000Y-104710000I0J250000D01*
G01*
X120306000Y-104210000D01*
G75*
G02*
X120556000Y-103960000I250000J0D01*
G01*
X121506000Y-103960000D01*
G75*
G02*
X121756000Y-104210000I0J-250000D01*
G01*
X121756000Y-104710000D01*
G75*
G02*
X121506000Y-104960000I-250000J0D01*
G01*
G37*
G04 #@! TD.AperFunction*
G04 #@! TA.AperFunction,SMDPad,CuDef*
G36*
G01*
X121506000Y-106860000D02*
X120556000Y-106860000D01*
G75*
G02*
X120306000Y-106610000I0J250000D01*
G01*
X120306000Y-106110000D01*
G75*
G02*
X120556000Y-105860000I250000J0D01*
G01*
X121506000Y-105860000D01*
G75*
G02*
X121756000Y-106110000I0J-250000D01*
G01*
X121756000Y-106610000D01*
G75*
G02*
X121506000Y-106860000I-250000J0D01*
G01*
G37*
G04 #@! TD.AperFunction*
G04 #@! TA.AperFunction,SMDPad,CuDef*
G36*
G01*
X142461000Y-104130000D02*
X141511000Y-104130000D01*
G75*
G02*
X141261000Y-103880000I0J250000D01*
G01*
X141261000Y-103380000D01*
G75*
G02*
X141511000Y-103130000I250000J0D01*
G01*
X142461000Y-103130000D01*
G75*
G02*
X142711000Y-103380000I0J-250000D01*
G01*
X142711000Y-103880000D01*
G75*
G02*
X142461000Y-104130000I-250000J0D01*
G01*
G37*
G04 #@! TD.AperFunction*
G04 #@! TA.AperFunction,SMDPad,CuDef*
G36*
G01*
X142461000Y-106030000D02*
X141511000Y-106030000D01*
G75*
G02*
X141261000Y-105780000I0J250000D01*
G01*
X141261000Y-105280000D01*
G75*
G02*
X141511000Y-105030000I250000J0D01*
G01*
X142461000Y-105030000D01*
G75*
G02*
X142711000Y-105280000I0J-250000D01*
G01*
X142711000Y-105780000D01*
G75*
G02*
X142461000Y-106030000I-250000J0D01*
G01*
G37*
G04 #@! TD.AperFunction*
G04 #@! TA.AperFunction,SMDPad,CuDef*
G36*
G01*
X118585000Y-104833000D02*
X117635000Y-104833000D01*
G75*
G02*
X117385000Y-104583000I0J250000D01*
G01*
X117385000Y-104083000D01*
G75*
G02*
X117635000Y-103833000I250000J0D01*
G01*
X118585000Y-103833000D01*
G75*
G02*
X118835000Y-104083000I0J-250000D01*
G01*
X118835000Y-104583000D01*
G75*
G02*
X118585000Y-104833000I-250000J0D01*
G01*
G37*
G04 #@! TD.AperFunction*
G04 #@! TA.AperFunction,SMDPad,CuDef*
G36*
G01*
X118585000Y-106733000D02*
X117635000Y-106733000D01*
G75*
G02*
X117385000Y-106483000I0J250000D01*
G01*
X117385000Y-105983000D01*
G75*
G02*
X117635000Y-105733000I250000J0D01*
G01*
X118585000Y-105733000D01*
G75*
G02*
X118835000Y-105983000I0J-250000D01*
G01*
X118835000Y-106483000D01*
G75*
G02*
X118585000Y-106733000I-250000J0D01*
G01*
G37*
G04 #@! TD.AperFunction*
G04 #@! TA.AperFunction,SMDPad,CuDef*
G36*
G01*
X142461000Y-108580000D02*
X141511000Y-108580000D01*
G75*
G02*
X141261000Y-108330000I0J250000D01*
G01*
X141261000Y-107830000D01*
G75*
G02*
X141511000Y-107580000I250000J0D01*
G01*
X142461000Y-107580000D01*
G75*
G02*
X142711000Y-107830000I0J-250000D01*
G01*
X142711000Y-108330000D01*
G75*
G02*
X142461000Y-108580000I-250000J0D01*
G01*
G37*
G04 #@! TD.AperFunction*
G04 #@! TA.AperFunction,SMDPad,CuDef*
G36*
G01*
X142461000Y-110480000D02*
X141511000Y-110480000D01*
G75*
G02*
X141261000Y-110230000I0J250000D01*
G01*
X141261000Y-109730000D01*
G75*
G02*
X141511000Y-109480000I250000J0D01*
G01*
X142461000Y-109480000D01*
G75*
G02*
X142711000Y-109730000I0J-250000D01*
G01*
X142711000Y-110230000D01*
G75*
G02*
X142461000Y-110480000I-250000J0D01*
G01*
G37*
G04 #@! TD.AperFunction*
G04 #@! TA.AperFunction,SMDPad,CuDef*
G36*
G01*
X142199000Y-95972500D02*
X141899000Y-95972500D01*
G75*
G02*
X141749000Y-95822500I0J150000D01*
G01*
X141749000Y-94172500D01*
G75*
G02*
X141899000Y-94022500I150000J0D01*
G01*
X142199000Y-94022500D01*
G75*
G02*
X142349000Y-94172500I0J-150000D01*
G01*
X142349000Y-95822500D01*
G75*
G02*
X142199000Y-95972500I-150000J0D01*
G01*
G37*
G04 #@! TD.AperFunction*
G04 #@! TA.AperFunction,SMDPad,CuDef*
G36*
G01*
X140929000Y-95972500D02*
X140629000Y-95972500D01*
G75*
G02*
X140479000Y-95822500I0J150000D01*
G01*
X140479000Y-94172500D01*
G75*
G02*
X140629000Y-94022500I150000J0D01*
G01*
X140929000Y-94022500D01*
G75*
G02*
X141079000Y-94172500I0J-150000D01*
G01*
X141079000Y-95822500D01*
G75*
G02*
X140929000Y-95972500I-150000J0D01*
G01*
G37*
G04 #@! TD.AperFunction*
G04 #@! TA.AperFunction,SMDPad,CuDef*
G36*
G01*
X139659000Y-95972500D02*
X139359000Y-95972500D01*
G75*
G02*
X139209000Y-95822500I0J150000D01*
G01*
X139209000Y-94172500D01*
G75*
G02*
X139359000Y-94022500I150000J0D01*
G01*
X139659000Y-94022500D01*
G75*
G02*
X139809000Y-94172500I0J-150000D01*
G01*
X139809000Y-95822500D01*
G75*
G02*
X139659000Y-95972500I-150000J0D01*
G01*
G37*
G04 #@! TD.AperFunction*
G04 #@! TA.AperFunction,SMDPad,CuDef*
G36*
G01*
X138389000Y-95972500D02*
X138089000Y-95972500D01*
G75*
G02*
X137939000Y-95822500I0J150000D01*
G01*
X137939000Y-94172500D01*
G75*
G02*
X138089000Y-94022500I150000J0D01*
G01*
X138389000Y-94022500D01*
G75*
G02*
X138539000Y-94172500I0J-150000D01*
G01*
X138539000Y-95822500D01*
G75*
G02*
X138389000Y-95972500I-150000J0D01*
G01*
G37*
G04 #@! TD.AperFunction*
G04 #@! TA.AperFunction,SMDPad,CuDef*
G36*
G01*
X138389000Y-100922500D02*
X138089000Y-100922500D01*
G75*
G02*
X137939000Y-100772500I0J150000D01*
G01*
X137939000Y-99122500D01*
G75*
G02*
X138089000Y-98972500I150000J0D01*
G01*
X138389000Y-98972500D01*
G75*
G02*
X138539000Y-99122500I0J-150000D01*
G01*
X138539000Y-100772500D01*
G75*
G02*
X138389000Y-100922500I-150000J0D01*
G01*
G37*
G04 #@! TD.AperFunction*
G04 #@! TA.AperFunction,SMDPad,CuDef*
G36*
G01*
X139659000Y-100922500D02*
X139359000Y-100922500D01*
G75*
G02*
X139209000Y-100772500I0J150000D01*
G01*
X139209000Y-99122500D01*
G75*
G02*
X139359000Y-98972500I150000J0D01*
G01*
X139659000Y-98972500D01*
G75*
G02*
X139809000Y-99122500I0J-150000D01*
G01*
X139809000Y-100772500D01*
G75*
G02*
X139659000Y-100922500I-150000J0D01*
G01*
G37*
G04 #@! TD.AperFunction*
G04 #@! TA.AperFunction,SMDPad,CuDef*
G36*
G01*
X140929000Y-100922500D02*
X140629000Y-100922500D01*
G75*
G02*
X140479000Y-100772500I0J150000D01*
G01*
X140479000Y-99122500D01*
G75*
G02*
X140629000Y-98972500I150000J0D01*
G01*
X140929000Y-98972500D01*
G75*
G02*
X141079000Y-99122500I0J-150000D01*
G01*
X141079000Y-100772500D01*
G75*
G02*
X140929000Y-100922500I-150000J0D01*
G01*
G37*
G04 #@! TD.AperFunction*
G04 #@! TA.AperFunction,SMDPad,CuDef*
G36*
G01*
X142199000Y-100922500D02*
X141899000Y-100922500D01*
G75*
G02*
X141749000Y-100772500I0J150000D01*
G01*
X141749000Y-99122500D01*
G75*
G02*
X141899000Y-98972500I150000J0D01*
G01*
X142199000Y-98972500D01*
G75*
G02*
X142349000Y-99122500I0J-150000D01*
G01*
X142349000Y-100772500D01*
G75*
G02*
X142199000Y-100922500I-150000J0D01*
G01*
G37*
G04 #@! TD.AperFunction*
G04 #@! TA.AperFunction,SMDPad,CuDef*
G36*
G01*
X121879000Y-96417000D02*
X121579000Y-96417000D01*
G75*
G02*
X121429000Y-96267000I0J150000D01*
G01*
X121429000Y-94617000D01*
G75*
G02*
X121579000Y-94467000I150000J0D01*
G01*
X121879000Y-94467000D01*
G75*
G02*
X122029000Y-94617000I0J-150000D01*
G01*
X122029000Y-96267000D01*
G75*
G02*
X121879000Y-96417000I-150000J0D01*
G01*
G37*
G04 #@! TD.AperFunction*
G04 #@! TA.AperFunction,SMDPad,CuDef*
G36*
G01*
X120609000Y-96417000D02*
X120309000Y-96417000D01*
G75*
G02*
X120159000Y-96267000I0J150000D01*
G01*
X120159000Y-94617000D01*
G75*
G02*
X120309000Y-94467000I150000J0D01*
G01*
X120609000Y-94467000D01*
G75*
G02*
X120759000Y-94617000I0J-150000D01*
G01*
X120759000Y-96267000D01*
G75*
G02*
X120609000Y-96417000I-150000J0D01*
G01*
G37*
G04 #@! TD.AperFunction*
G04 #@! TA.AperFunction,SMDPad,CuDef*
G36*
G01*
X119339000Y-96417000D02*
X119039000Y-96417000D01*
G75*
G02*
X118889000Y-96267000I0J150000D01*
G01*
X118889000Y-94617000D01*
G75*
G02*
X119039000Y-94467000I150000J0D01*
G01*
X119339000Y-94467000D01*
G75*
G02*
X119489000Y-94617000I0J-150000D01*
G01*
X119489000Y-96267000D01*
G75*
G02*
X119339000Y-96417000I-150000J0D01*
G01*
G37*
G04 #@! TD.AperFunction*
G04 #@! TA.AperFunction,SMDPad,CuDef*
G36*
G01*
X118069000Y-96417000D02*
X117769000Y-96417000D01*
G75*
G02*
X117619000Y-96267000I0J150000D01*
G01*
X117619000Y-94617000D01*
G75*
G02*
X117769000Y-94467000I150000J0D01*
G01*
X118069000Y-94467000D01*
G75*
G02*
X118219000Y-94617000I0J-150000D01*
G01*
X118219000Y-96267000D01*
G75*
G02*
X118069000Y-96417000I-150000J0D01*
G01*
G37*
G04 #@! TD.AperFunction*
G04 #@! TA.AperFunction,SMDPad,CuDef*
G36*
G01*
X118069000Y-101367000D02*
X117769000Y-101367000D01*
G75*
G02*
X117619000Y-101217000I0J150000D01*
G01*
X117619000Y-99567000D01*
G75*
G02*
X117769000Y-99417000I150000J0D01*
G01*
X118069000Y-99417000D01*
G75*
G02*
X118219000Y-99567000I0J-150000D01*
G01*
X118219000Y-101217000D01*
G75*
G02*
X118069000Y-101367000I-150000J0D01*
G01*
G37*
G04 #@! TD.AperFunction*
G04 #@! TA.AperFunction,SMDPad,CuDef*
G36*
G01*
X119339000Y-101367000D02*
X119039000Y-101367000D01*
G75*
G02*
X118889000Y-101217000I0J150000D01*
G01*
X118889000Y-99567000D01*
G75*
G02*
X119039000Y-99417000I150000J0D01*
G01*
X119339000Y-99417000D01*
G75*
G02*
X119489000Y-99567000I0J-150000D01*
G01*
X119489000Y-101217000D01*
G75*
G02*
X119339000Y-101367000I-150000J0D01*
G01*
G37*
G04 #@! TD.AperFunction*
G04 #@! TA.AperFunction,SMDPad,CuDef*
G36*
G01*
X120609000Y-101367000D02*
X120309000Y-101367000D01*
G75*
G02*
X120159000Y-101217000I0J150000D01*
G01*
X120159000Y-99567000D01*
G75*
G02*
X120309000Y-99417000I150000J0D01*
G01*
X120609000Y-99417000D01*
G75*
G02*
X120759000Y-99567000I0J-150000D01*
G01*
X120759000Y-101217000D01*
G75*
G02*
X120609000Y-101367000I-150000J0D01*
G01*
G37*
G04 #@! TD.AperFunction*
G04 #@! TA.AperFunction,SMDPad,CuDef*
G36*
G01*
X121879000Y-101367000D02*
X121579000Y-101367000D01*
G75*
G02*
X121429000Y-101217000I0J150000D01*
G01*
X121429000Y-99567000D01*
G75*
G02*
X121579000Y-99417000I150000J0D01*
G01*
X121879000Y-99417000D01*
G75*
G02*
X122029000Y-99567000I0J-150000D01*
G01*
X122029000Y-101217000D01*
G75*
G02*
X121879000Y-101367000I-150000J0D01*
G01*
G37*
G04 #@! TD.AperFunction*
D10*
X125018000Y-87369000D03*
X134618000Y-87369000D03*
D11*
X132318000Y-94869000D03*
X129818000Y-94869000D03*
D12*
X127318000Y-94869000D03*
D10*
X125018000Y-104006000D03*
X134618000Y-104006000D03*
D11*
X132318000Y-111506000D03*
X129818000Y-111506000D03*
D12*
X127318000Y-111506000D03*
D10*
X125144000Y-53460000D03*
X134744000Y-53460000D03*
D11*
X132444000Y-60960000D03*
X129944000Y-60960000D03*
D12*
X127444000Y-60960000D03*
D10*
X125208000Y-71049500D03*
X134808000Y-71049500D03*
D11*
X132508000Y-78549500D03*
X130008000Y-78549500D03*
D12*
X127508000Y-78549500D03*
G04 #@! TA.AperFunction,SMDPad,CuDef*
G36*
G01*
X141014002Y-55374500D02*
X140113998Y-55374500D01*
G75*
G02*
X139864000Y-55124502I0J249998D01*
G01*
X139864000Y-54599498D01*
G75*
G02*
X140113998Y-54349500I249998J0D01*
G01*
X141014002Y-54349500D01*
G75*
G02*
X141264000Y-54599498I0J-249998D01*
G01*
X141264000Y-55124502D01*
G75*
G02*
X141014002Y-55374500I-249998J0D01*
G01*
G37*
G04 #@! TD.AperFunction*
G04 #@! TA.AperFunction,SMDPad,CuDef*
G36*
G01*
X141014002Y-57199500D02*
X140113998Y-57199500D01*
G75*
G02*
X139864000Y-56949502I0J249998D01*
G01*
X139864000Y-56424498D01*
G75*
G02*
X140113998Y-56174500I249998J0D01*
G01*
X141014002Y-56174500D01*
G75*
G02*
X141264000Y-56424498I0J-249998D01*
G01*
X141264000Y-56949502D01*
G75*
G02*
X141014002Y-57199500I-249998J0D01*
G01*
G37*
G04 #@! TD.AperFunction*
G04 #@! TA.AperFunction,SMDPad,CuDef*
G36*
G01*
X118593000Y-62896502D02*
X118593000Y-61996498D01*
G75*
G02*
X118842998Y-61746500I249998J0D01*
G01*
X119368002Y-61746500D01*
G75*
G02*
X119618000Y-61996498I0J-249998D01*
G01*
X119618000Y-62896502D01*
G75*
G02*
X119368002Y-63146500I-249998J0D01*
G01*
X118842998Y-63146500D01*
G75*
G02*
X118593000Y-62896502I0J249998D01*
G01*
G37*
G04 #@! TD.AperFunction*
G04 #@! TA.AperFunction,SMDPad,CuDef*
G36*
G01*
X116768000Y-62896502D02*
X116768000Y-61996498D01*
G75*
G02*
X117017998Y-61746500I249998J0D01*
G01*
X117543002Y-61746500D01*
G75*
G02*
X117793000Y-61996498I0J-249998D01*
G01*
X117793000Y-62896502D01*
G75*
G02*
X117543002Y-63146500I-249998J0D01*
G01*
X117017998Y-63146500D01*
G75*
G02*
X116768000Y-62896502I0J249998D01*
G01*
G37*
G04 #@! TD.AperFunction*
G04 #@! TA.AperFunction,SMDPad,CuDef*
G36*
G01*
X141014002Y-59784500D02*
X140113998Y-59784500D01*
G75*
G02*
X139864000Y-59534502I0J249998D01*
G01*
X139864000Y-59009498D01*
G75*
G02*
X140113998Y-58759500I249998J0D01*
G01*
X141014002Y-58759500D01*
G75*
G02*
X141264000Y-59009498I0J-249998D01*
G01*
X141264000Y-59534502D01*
G75*
G02*
X141014002Y-59784500I-249998J0D01*
G01*
G37*
G04 #@! TD.AperFunction*
G04 #@! TA.AperFunction,SMDPad,CuDef*
G36*
G01*
X141014002Y-61609500D02*
X140113998Y-61609500D01*
G75*
G02*
X139864000Y-61359502I0J249998D01*
G01*
X139864000Y-60834498D01*
G75*
G02*
X140113998Y-60584500I249998J0D01*
G01*
X141014002Y-60584500D01*
G75*
G02*
X141264000Y-60834498I0J-249998D01*
G01*
X141264000Y-61359502D01*
G75*
G02*
X141014002Y-61609500I-249998J0D01*
G01*
G37*
G04 #@! TD.AperFunction*
G04 #@! TA.AperFunction,SMDPad,CuDef*
G36*
G01*
X118593000Y-79916002D02*
X118593000Y-79015998D01*
G75*
G02*
X118842998Y-78766000I249998J0D01*
G01*
X119368002Y-78766000D01*
G75*
G02*
X119618000Y-79015998I0J-249998D01*
G01*
X119618000Y-79916002D01*
G75*
G02*
X119368002Y-80166000I-249998J0D01*
G01*
X118842998Y-80166000D01*
G75*
G02*
X118593000Y-79916002I0J249998D01*
G01*
G37*
G04 #@! TD.AperFunction*
G04 #@! TA.AperFunction,SMDPad,CuDef*
G36*
G01*
X116768000Y-79916002D02*
X116768000Y-79015998D01*
G75*
G02*
X117017998Y-78766000I249998J0D01*
G01*
X117543002Y-78766000D01*
G75*
G02*
X117793000Y-79015998I0J-249998D01*
G01*
X117793000Y-79916002D01*
G75*
G02*
X117543002Y-80166000I-249998J0D01*
G01*
X117017998Y-80166000D01*
G75*
G02*
X116768000Y-79916002I0J249998D01*
G01*
G37*
G04 #@! TD.AperFunction*
G04 #@! TA.AperFunction,SMDPad,CuDef*
G36*
G01*
X141014002Y-86205500D02*
X140113998Y-86205500D01*
G75*
G02*
X139864000Y-85955502I0J249998D01*
G01*
X139864000Y-85430498D01*
G75*
G02*
X140113998Y-85180500I249998J0D01*
G01*
X141014002Y-85180500D01*
G75*
G02*
X141264000Y-85430498I0J-249998D01*
G01*
X141264000Y-85955502D01*
G75*
G02*
X141014002Y-86205500I-249998J0D01*
G01*
G37*
G04 #@! TD.AperFunction*
G04 #@! TA.AperFunction,SMDPad,CuDef*
G36*
G01*
X141014002Y-88030500D02*
X140113998Y-88030500D01*
G75*
G02*
X139864000Y-87780502I0J249998D01*
G01*
X139864000Y-87255498D01*
G75*
G02*
X140113998Y-87005500I249998J0D01*
G01*
X141014002Y-87005500D01*
G75*
G02*
X141264000Y-87255498I0J-249998D01*
G01*
X141264000Y-87780502D01*
G75*
G02*
X141014002Y-88030500I-249998J0D01*
G01*
G37*
G04 #@! TD.AperFunction*
G04 #@! TA.AperFunction,SMDPad,CuDef*
G36*
G01*
X118593000Y-65846502D02*
X118593000Y-64946498D01*
G75*
G02*
X118842998Y-64696500I249998J0D01*
G01*
X119368002Y-64696500D01*
G75*
G02*
X119618000Y-64946498I0J-249998D01*
G01*
X119618000Y-65846502D01*
G75*
G02*
X119368002Y-66096500I-249998J0D01*
G01*
X118842998Y-66096500D01*
G75*
G02*
X118593000Y-65846502I0J249998D01*
G01*
G37*
G04 #@! TD.AperFunction*
G04 #@! TA.AperFunction,SMDPad,CuDef*
G36*
G01*
X116768000Y-65846502D02*
X116768000Y-64946498D01*
G75*
G02*
X117017998Y-64696500I249998J0D01*
G01*
X117543002Y-64696500D01*
G75*
G02*
X117793000Y-64946498I0J-249998D01*
G01*
X117793000Y-65846502D01*
G75*
G02*
X117543002Y-66096500I-249998J0D01*
G01*
X117017998Y-66096500D01*
G75*
G02*
X116768000Y-65846502I0J249998D01*
G01*
G37*
G04 #@! TD.AperFunction*
G04 #@! TA.AperFunction,SMDPad,CuDef*
G36*
G01*
X141014002Y-90615500D02*
X140113998Y-90615500D01*
G75*
G02*
X139864000Y-90365502I0J249998D01*
G01*
X139864000Y-89840498D01*
G75*
G02*
X140113998Y-89590500I249998J0D01*
G01*
X141014002Y-89590500D01*
G75*
G02*
X141264000Y-89840498I0J-249998D01*
G01*
X141264000Y-90365502D01*
G75*
G02*
X141014002Y-90615500I-249998J0D01*
G01*
G37*
G04 #@! TD.AperFunction*
G04 #@! TA.AperFunction,SMDPad,CuDef*
G36*
G01*
X141014002Y-92440500D02*
X140113998Y-92440500D01*
G75*
G02*
X139864000Y-92190502I0J249998D01*
G01*
X139864000Y-91665498D01*
G75*
G02*
X140113998Y-91415500I249998J0D01*
G01*
X141014002Y-91415500D01*
G75*
G02*
X141264000Y-91665498I0J-249998D01*
G01*
X141264000Y-92190502D01*
G75*
G02*
X141014002Y-92440500I-249998J0D01*
G01*
G37*
G04 #@! TD.AperFunction*
G04 #@! TA.AperFunction,SMDPad,CuDef*
G36*
G01*
X118593000Y-82866002D02*
X118593000Y-81965998D01*
G75*
G02*
X118842998Y-81716000I249998J0D01*
G01*
X119368002Y-81716000D01*
G75*
G02*
X119618000Y-81965998I0J-249998D01*
G01*
X119618000Y-82866002D01*
G75*
G02*
X119368002Y-83116000I-249998J0D01*
G01*
X118842998Y-83116000D01*
G75*
G02*
X118593000Y-82866002I0J249998D01*
G01*
G37*
G04 #@! TD.AperFunction*
G04 #@! TA.AperFunction,SMDPad,CuDef*
G36*
G01*
X116768000Y-82866002D02*
X116768000Y-81965998D01*
G75*
G02*
X117017998Y-81716000I249998J0D01*
G01*
X117543002Y-81716000D01*
G75*
G02*
X117793000Y-81965998I0J-249998D01*
G01*
X117793000Y-82866002D01*
G75*
G02*
X117543002Y-83116000I-249998J0D01*
G01*
X117017998Y-83116000D01*
G75*
G02*
X116768000Y-82866002I0J249998D01*
G01*
G37*
G04 #@! TD.AperFunction*
G04 #@! TA.AperFunction,SMDPad,CuDef*
G36*
G01*
X141014002Y-64194500D02*
X140113998Y-64194500D01*
G75*
G02*
X139864000Y-63944502I0J249998D01*
G01*
X139864000Y-63419498D01*
G75*
G02*
X140113998Y-63169500I249998J0D01*
G01*
X141014002Y-63169500D01*
G75*
G02*
X141264000Y-63419498I0J-249998D01*
G01*
X141264000Y-63944502D01*
G75*
G02*
X141014002Y-64194500I-249998J0D01*
G01*
G37*
G04 #@! TD.AperFunction*
G04 #@! TA.AperFunction,SMDPad,CuDef*
G36*
G01*
X141014002Y-66019500D02*
X140113998Y-66019500D01*
G75*
G02*
X139864000Y-65769502I0J249998D01*
G01*
X139864000Y-65244498D01*
G75*
G02*
X140113998Y-64994500I249998J0D01*
G01*
X141014002Y-64994500D01*
G75*
G02*
X141264000Y-65244498I0J-249998D01*
G01*
X141264000Y-65769502D01*
G75*
G02*
X141014002Y-66019500I-249998J0D01*
G01*
G37*
G04 #@! TD.AperFunction*
G04 #@! TA.AperFunction,SMDPad,CuDef*
G36*
G01*
X141014002Y-81795500D02*
X140113998Y-81795500D01*
G75*
G02*
X139864000Y-81545502I0J249998D01*
G01*
X139864000Y-81020498D01*
G75*
G02*
X140113998Y-80770500I249998J0D01*
G01*
X141014002Y-80770500D01*
G75*
G02*
X141264000Y-81020498I0J-249998D01*
G01*
X141264000Y-81545502D01*
G75*
G02*
X141014002Y-81795500I-249998J0D01*
G01*
G37*
G04 #@! TD.AperFunction*
G04 #@! TA.AperFunction,SMDPad,CuDef*
G36*
G01*
X141014002Y-83620500D02*
X140113998Y-83620500D01*
G75*
G02*
X139864000Y-83370502I0J249998D01*
G01*
X139864000Y-82845498D01*
G75*
G02*
X140113998Y-82595500I249998J0D01*
G01*
X141014002Y-82595500D01*
G75*
G02*
X141264000Y-82845498I0J-249998D01*
G01*
X141264000Y-83370502D01*
G75*
G02*
X141014002Y-83620500I-249998J0D01*
G01*
G37*
G04 #@! TD.AperFunction*
G04 #@! TA.AperFunction,ComponentPad*
G36*
G01*
X132318000Y-140048000D02*
X131018000Y-140048000D01*
G75*
G02*
X130368000Y-139398000I0J650000D01*
G01*
X130368000Y-138098000D01*
G75*
G02*
X131018000Y-137448000I650000J0D01*
G01*
X132318000Y-137448000D01*
G75*
G02*
X132968000Y-138098000I0J-650000D01*
G01*
X132968000Y-139398000D01*
G75*
G02*
X132318000Y-140048000I-650000J0D01*
G01*
G37*
G04 #@! TD.AperFunction*
D13*
X143068000Y-138748000D03*
G04 #@! TA.AperFunction,ComponentPad*
G36*
G01*
X140618000Y-140048000D02*
X139318000Y-140048000D01*
G75*
G02*
X138668000Y-139398000I0J650000D01*
G01*
X138668000Y-138098000D01*
G75*
G02*
X139318000Y-137448000I650000J0D01*
G01*
X140618000Y-137448000D01*
G75*
G02*
X141268000Y-138098000I0J-650000D01*
G01*
X141268000Y-139398000D01*
G75*
G02*
X140618000Y-140048000I-650000J0D01*
G01*
G37*
G04 #@! TD.AperFunction*
G04 #@! TA.AperFunction,ComponentPad*
G36*
G01*
X127333000Y-137448000D02*
X128633000Y-137448000D01*
G75*
G02*
X129283000Y-138098000I0J-650000D01*
G01*
X129283000Y-139398000D01*
G75*
G02*
X128633000Y-140048000I-650000J0D01*
G01*
X127333000Y-140048000D01*
G75*
G02*
X126683000Y-139398000I0J650000D01*
G01*
X126683000Y-138098000D01*
G75*
G02*
X127333000Y-137448000I650000J0D01*
G01*
G37*
G04 #@! TD.AperFunction*
X116583000Y-138748000D03*
G04 #@! TA.AperFunction,ComponentPad*
G36*
G01*
X119033000Y-137448000D02*
X120333000Y-137448000D01*
G75*
G02*
X120983000Y-138098000I0J-650000D01*
G01*
X120983000Y-139398000D01*
G75*
G02*
X120333000Y-140048000I-650000J0D01*
G01*
X119033000Y-140048000D01*
G75*
G02*
X118383000Y-139398000I0J650000D01*
G01*
X118383000Y-138098000D01*
G75*
G02*
X119033000Y-137448000I650000J0D01*
G01*
G37*
G04 #@! TD.AperFunction*
D14*
X134938000Y-118999000D03*
X132398000Y-118999000D03*
X129858000Y-118999000D03*
X127318000Y-118999000D03*
X124778000Y-118999000D03*
X134938000Y-116459000D03*
X132398000Y-116459000D03*
X129858000Y-116459000D03*
X127318000Y-116459000D03*
G04 #@! TA.AperFunction,ComponentPad*
G36*
G01*
X124178000Y-115609000D02*
X125378000Y-115609000D01*
G75*
G02*
X125628000Y-115859000I0J-250000D01*
G01*
X125628000Y-117059000D01*
G75*
G02*
X125378000Y-117309000I-250000J0D01*
G01*
X124178000Y-117309000D01*
G75*
G02*
X123928000Y-117059000I0J250000D01*
G01*
X123928000Y-115859000D01*
G75*
G02*
X124178000Y-115609000I250000J0D01*
G01*
G37*
G04 #@! TD.AperFunction*
G04 #@! TA.AperFunction,ComponentPad*
G36*
G01*
X132255000Y-126268000D02*
X130955000Y-126268000D01*
G75*
G02*
X130305000Y-125618000I0J650000D01*
G01*
X130305000Y-124318000D01*
G75*
G02*
X130955000Y-123668000I650000J0D01*
G01*
X132255000Y-123668000D01*
G75*
G02*
X132905000Y-124318000I0J-650000D01*
G01*
X132905000Y-125618000D01*
G75*
G02*
X132255000Y-126268000I-650000J0D01*
G01*
G37*
G04 #@! TD.AperFunction*
D13*
X143005000Y-124968000D03*
G04 #@! TA.AperFunction,ComponentPad*
G36*
G01*
X140555000Y-126268000D02*
X139255000Y-126268000D01*
G75*
G02*
X138605000Y-125618000I0J650000D01*
G01*
X138605000Y-124318000D01*
G75*
G02*
X139255000Y-123668000I650000J0D01*
G01*
X140555000Y-123668000D01*
G75*
G02*
X141205000Y-124318000I0J-650000D01*
G01*
X141205000Y-125618000D01*
G75*
G02*
X140555000Y-126268000I-650000J0D01*
G01*
G37*
G04 #@! TD.AperFunction*
G04 #@! TA.AperFunction,ComponentPad*
G36*
G01*
X127650000Y-123604000D02*
X128950000Y-123604000D01*
G75*
G02*
X129600000Y-124254000I0J-650000D01*
G01*
X129600000Y-125554000D01*
G75*
G02*
X128950000Y-126204000I-650000J0D01*
G01*
X127650000Y-126204000D01*
G75*
G02*
X127000000Y-125554000I0J650000D01*
G01*
X127000000Y-124254000D01*
G75*
G02*
X127650000Y-123604000I650000J0D01*
G01*
G37*
G04 #@! TD.AperFunction*
X116900000Y-124904000D03*
G04 #@! TA.AperFunction,ComponentPad*
G36*
G01*
X119350000Y-123604000D02*
X120650000Y-123604000D01*
G75*
G02*
X121300000Y-124254000I0J-650000D01*
G01*
X121300000Y-125554000D01*
G75*
G02*
X120650000Y-126204000I-650000J0D01*
G01*
X119350000Y-126204000D01*
G75*
G02*
X118700000Y-125554000I0J650000D01*
G01*
X118700000Y-124254000D01*
G75*
G02*
X119350000Y-123604000I650000J0D01*
G01*
G37*
G04 #@! TD.AperFunction*
D15*
X119293000Y-59496500D03*
X117093000Y-59496500D03*
X119293000Y-76516000D03*
X117093000Y-76516000D03*
X119293000Y-73566000D03*
X117093000Y-73566000D03*
X140564000Y-76765500D03*
X140564000Y-78965500D03*
X119293000Y-53657500D03*
X117093000Y-53657500D03*
X140564000Y-50344500D03*
X140564000Y-52544500D03*
X140564000Y-72515500D03*
X140564000Y-74715500D03*
X119293000Y-56546500D03*
X117093000Y-56546500D03*
G04 #@! TA.AperFunction,SMDPad,CuDef*
G36*
G01*
X141039000Y-68574500D02*
X140089000Y-68574500D01*
G75*
G02*
X139839000Y-68324500I0J250000D01*
G01*
X139839000Y-67824500D01*
G75*
G02*
X140089000Y-67574500I250000J0D01*
G01*
X141039000Y-67574500D01*
G75*
G02*
X141289000Y-67824500I0J-250000D01*
G01*
X141289000Y-68324500D01*
G75*
G02*
X141039000Y-68574500I-250000J0D01*
G01*
G37*
G04 #@! TD.AperFunction*
G04 #@! TA.AperFunction,SMDPad,CuDef*
G36*
G01*
X141039000Y-70474500D02*
X140089000Y-70474500D01*
G75*
G02*
X139839000Y-70224500I0J250000D01*
G01*
X139839000Y-69724500D01*
G75*
G02*
X140089000Y-69474500I250000J0D01*
G01*
X141039000Y-69474500D01*
G75*
G02*
X141289000Y-69724500I0J-250000D01*
G01*
X141289000Y-70224500D01*
G75*
G02*
X141039000Y-70474500I-250000J0D01*
G01*
G37*
G04 #@! TD.AperFunction*
D16*
X117274100Y-67235600D03*
X118924000Y-75041000D03*
X140437900Y-104425400D03*
X117949100Y-81050100D03*
X119007800Y-97600200D03*
X139984000Y-77920800D03*
X132010700Y-87941300D03*
X131252000Y-74688900D03*
X119496100Y-54615800D03*
X118453000Y-55658900D03*
X138567600Y-81137300D03*
X122944700Y-64302800D03*
X122150900Y-83815500D03*
X122150900Y-97035400D03*
X136028900Y-96573300D03*
X119291900Y-64092300D03*
X141536400Y-57979500D03*
X120459000Y-97297900D03*
X119075900Y-80775200D03*
X119489900Y-69520600D03*
X140531000Y-58152600D03*
X138922000Y-97515100D03*
X138922000Y-86551000D03*
X123167300Y-106478800D03*
X139763500Y-66635200D03*
X137183800Y-94676300D03*
D17*
X118924000Y-75928400D02*
X119725600Y-75928400D01*
X119725600Y-75928400D02*
X130807600Y-87010400D01*
X130807600Y-87010400D02*
X130807600Y-91617200D01*
X130807600Y-91617200D02*
X135303600Y-96113200D01*
X135303600Y-96113200D02*
X135303600Y-100066600D01*
X135303600Y-100066600D02*
X138811000Y-103574000D01*
X118924000Y-75928400D02*
X118895800Y-75928400D01*
X118895800Y-75928400D02*
X118715100Y-76109100D01*
X118715100Y-76109100D02*
X118715100Y-77150300D01*
X118715100Y-77150300D02*
X120009700Y-78444900D01*
X120009700Y-78444900D02*
X120009700Y-83093600D01*
X120009700Y-83093600D02*
X119627500Y-83475800D01*
X119627500Y-83475800D02*
X118340300Y-83475800D01*
X118340300Y-83475800D02*
X117280500Y-82416000D01*
X118924000Y-75928400D02*
X118924000Y-75041000D01*
X117274100Y-67235600D02*
X117280500Y-67229200D01*
X117280500Y-67229200D02*
X117280500Y-65396500D01*
X140437900Y-104425400D02*
X139662400Y-104425400D01*
X139662400Y-104425400D02*
X138811000Y-103574000D01*
X118110000Y-104333000D02*
X120904000Y-104333000D01*
X120904000Y-104333000D02*
X121031000Y-104460000D01*
X118046000Y-108704000D02*
X116378300Y-107036300D01*
X116378300Y-107036300D02*
X116378300Y-95281000D01*
X116378300Y-95281000D02*
X117589200Y-94070100D01*
X117589200Y-94070100D02*
X118260400Y-94070100D01*
X118260400Y-94070100D02*
X118554000Y-94363700D01*
X118554000Y-94363700D02*
X118554000Y-96656000D01*
X118554000Y-96656000D02*
X117293000Y-97917000D01*
X117293000Y-97917000D02*
X117293000Y-103516000D01*
X117293000Y-103516000D02*
X118110000Y-104333000D01*
X118616000Y-120949000D02*
X116993000Y-119326000D01*
X116993000Y-119326000D02*
X116993000Y-109757000D01*
X116993000Y-109757000D02*
X118046000Y-108704000D01*
X141370700Y-126602300D02*
X130485800Y-126602300D01*
X130485800Y-126602300D02*
X129952600Y-126069100D01*
X129952600Y-126069100D02*
X129952600Y-119093600D01*
X143005000Y-124968000D02*
X141370700Y-126602300D01*
X141370700Y-126602300D02*
X143068000Y-128299600D01*
X143068000Y-128299600D02*
X143068000Y-138748000D01*
X141986000Y-103630000D02*
X141233300Y-103630000D01*
X141233300Y-103630000D02*
X140437900Y-104425400D01*
X140638700Y-91928000D02*
X140564000Y-91928000D01*
X141986000Y-108080000D02*
X143581000Y-106485000D01*
X143581000Y-106485000D02*
X143581000Y-94870300D01*
X143581000Y-94870300D02*
X140638700Y-91928000D01*
X140564000Y-68074500D02*
X141636700Y-69147200D01*
X141636700Y-69147200D02*
X141636700Y-70476200D01*
X141636700Y-70476200D02*
X140967600Y-71145300D01*
X140967600Y-71145300D02*
X140682500Y-71145300D01*
X140682500Y-71145300D02*
X139929800Y-71898000D01*
X139929800Y-71898000D02*
X139929800Y-72894000D01*
X139929800Y-72894000D02*
X142993200Y-75957400D01*
X142993200Y-75957400D02*
X142993200Y-89573500D01*
X142993200Y-89573500D02*
X140638700Y-91928000D01*
X140564000Y-91928000D02*
X139512300Y-90876300D01*
X139512300Y-90876300D02*
X139512300Y-88569700D01*
X139512300Y-88569700D02*
X140564000Y-87518000D01*
X132398000Y-118999000D02*
X133573400Y-120174400D01*
X133573400Y-120174400D02*
X135490300Y-120174400D01*
X135490300Y-120174400D02*
X143059600Y-112605100D01*
X143059600Y-112605100D02*
X143059600Y-109153600D01*
X143059600Y-109153600D02*
X141986000Y-108080000D01*
X129952600Y-119093600D02*
X132303400Y-119093600D01*
X132303400Y-119093600D02*
X132398000Y-118999000D01*
X129952600Y-119093600D02*
X129858000Y-118999000D01*
X116900000Y-124904000D02*
X118616000Y-123188000D01*
X118616000Y-123188000D02*
X118616000Y-120949000D01*
X127318000Y-118999000D02*
X125368000Y-120949000D01*
X125368000Y-120949000D02*
X118616000Y-120949000D01*
X132398000Y-116459000D02*
X132398000Y-114305000D01*
X132398000Y-114305000D02*
X138811000Y-107892000D01*
X129858000Y-116459000D02*
X132398000Y-116459000D01*
X127318000Y-116459000D02*
X129858000Y-116459000D01*
X119293000Y-57121800D02*
X121091600Y-58920400D01*
X121091600Y-58920400D02*
X121091600Y-63475700D01*
X121091600Y-63475700D02*
X137842300Y-80226400D01*
X137842300Y-80226400D02*
X137842300Y-81437700D01*
X137842300Y-81437700D02*
X139512600Y-83108000D01*
X139512600Y-83108000D02*
X140564000Y-83108000D01*
X119293000Y-56546500D02*
X119293000Y-57121800D01*
X118132000Y-81050100D02*
X119105500Y-82023600D01*
X119105500Y-82023600D02*
X119105500Y-82416000D01*
X117949100Y-81050100D02*
X118132000Y-81050100D01*
X118132000Y-81050100D02*
X118132000Y-58160800D01*
X118132000Y-58160800D02*
X117093000Y-57121800D01*
X119189000Y-100392000D02*
X119189000Y-97781400D01*
X119189000Y-97781400D02*
X119007800Y-97600200D01*
X117093000Y-56546500D02*
X117093000Y-57121800D01*
X140564000Y-71940200D02*
X140826000Y-71940200D01*
X140826000Y-71940200D02*
X142108300Y-70657900D01*
X142108300Y-70657900D02*
X142108300Y-67051300D01*
X142108300Y-67051300D02*
X140564000Y-65507000D01*
X140564000Y-72515500D02*
X140564000Y-71940200D01*
X140564000Y-75290800D02*
X140779700Y-75290800D01*
X140779700Y-75290800D02*
X142529400Y-77040500D01*
X142529400Y-77040500D02*
X142529400Y-85727300D01*
X142529400Y-85727300D02*
X141608100Y-86648600D01*
X141608100Y-86648600D02*
X139854200Y-86648600D01*
X139854200Y-86648600D02*
X139036600Y-87466200D01*
X139036600Y-87466200D02*
X139036600Y-91930600D01*
X139036600Y-91930600D02*
X140409700Y-93303700D01*
X140409700Y-93303700D02*
X140786400Y-93303700D01*
X140786400Y-93303700D02*
X141414000Y-93931300D01*
X141414000Y-93931300D02*
X141414000Y-97020200D01*
X141414000Y-97020200D02*
X142676600Y-98282800D01*
X142676600Y-98282800D02*
X142676600Y-100995900D01*
X142676600Y-100995900D02*
X142402700Y-101269800D01*
X142402700Y-101269800D02*
X140407400Y-101269800D01*
X140407400Y-101269800D02*
X139509000Y-100371400D01*
X139509000Y-100371400D02*
X139509000Y-99947500D01*
X141608100Y-86648600D02*
X141608100Y-89058900D01*
X141608100Y-89058900D02*
X140564000Y-90103000D01*
X140564000Y-74715500D02*
X140564000Y-75290800D01*
X140564000Y-50919800D02*
X142261700Y-52617500D01*
X142261700Y-52617500D02*
X142261700Y-60986800D01*
X142261700Y-60986800D02*
X140859000Y-62389500D01*
X140859000Y-62389500D02*
X140269900Y-62389500D01*
X140269900Y-62389500D02*
X139016800Y-63642600D01*
X139016800Y-63642600D02*
X139016800Y-74380500D01*
X139016800Y-74380500D02*
X140821200Y-76184900D01*
X140821200Y-76184900D02*
X140980400Y-76184900D01*
X140980400Y-76184900D02*
X142051000Y-77255500D01*
X142051000Y-77255500D02*
X142051000Y-83795700D01*
X142051000Y-83795700D02*
X141391600Y-84455100D01*
X141391600Y-84455100D02*
X138413600Y-84455100D01*
X138413600Y-84455100D02*
X132508000Y-78549500D01*
X140564000Y-50344500D02*
X140564000Y-50919800D01*
X118717700Y-53657500D02*
X118142400Y-53082200D01*
X118142400Y-53082200D02*
X116669800Y-53082200D01*
X116669800Y-53082200D02*
X115523200Y-54228800D01*
X115523200Y-54228800D02*
X115523200Y-88048900D01*
X115523200Y-88048900D02*
X121094000Y-93619700D01*
X121094000Y-93619700D02*
X121094000Y-96906000D01*
X121094000Y-96906000D02*
X121236000Y-97048000D01*
X121236000Y-97048000D02*
X121236000Y-99899000D01*
X121236000Y-99899000D02*
X121729000Y-100392000D01*
X119293000Y-53657500D02*
X119868300Y-53657500D01*
X140564000Y-52544500D02*
X139988700Y-52544500D01*
X139988700Y-52544500D02*
X138936000Y-51491800D01*
X138936000Y-51491800D02*
X122034000Y-51491800D01*
X122034000Y-51491800D02*
X119868300Y-53657500D01*
X119293000Y-53657500D02*
X118717700Y-53657500D01*
X140564000Y-77340800D02*
X139984000Y-77920800D01*
X140564000Y-76765500D02*
X140564000Y-77340800D01*
X142049000Y-99947500D02*
X142049000Y-99481900D01*
X142049000Y-99481900D02*
X139356900Y-96789800D01*
X139356900Y-96789800D02*
X138254800Y-96789800D01*
X138254800Y-96789800D02*
X131258000Y-89793000D01*
X131258000Y-89793000D02*
X131258000Y-77387500D01*
X131258000Y-77387500D02*
X131326300Y-77319200D01*
X131326300Y-77319200D02*
X133086900Y-77319200D01*
X133086900Y-77319200D02*
X139743500Y-83975800D01*
X139743500Y-83975800D02*
X141234000Y-83975800D01*
X141234000Y-83975800D02*
X141595500Y-83614300D01*
X141595500Y-83614300D02*
X141595500Y-80572300D01*
X141595500Y-80572300D02*
X140564000Y-79540800D01*
X119293000Y-73566000D02*
X127436500Y-73566000D01*
X127436500Y-73566000D02*
X131258000Y-77387500D01*
X140564000Y-78965500D02*
X140564000Y-79540800D01*
X119293000Y-77091300D02*
X128543400Y-86341700D01*
X128543400Y-86341700D02*
X128543400Y-95904900D01*
X128543400Y-95904900D02*
X122728800Y-101719500D01*
X122728800Y-101719500D02*
X120128500Y-101719500D01*
X120128500Y-101719500D02*
X119824000Y-101415000D01*
X119824000Y-101415000D02*
X119824000Y-97688600D01*
X119824000Y-97688600D02*
X119733100Y-97597700D01*
X119733100Y-97597700D02*
X119733100Y-95986100D01*
X119733100Y-95986100D02*
X119189000Y-95442000D01*
X119293000Y-76516000D02*
X119293000Y-77091300D01*
X119189000Y-95442000D02*
X120459000Y-95442000D01*
X117093000Y-75940700D02*
X117668400Y-75365300D01*
X117668400Y-75365300D02*
X117668400Y-69674300D01*
X117668400Y-69674300D02*
X116423900Y-68429800D01*
X116423900Y-68429800D02*
X116423900Y-64097000D01*
X116423900Y-64097000D02*
X117280500Y-63240400D01*
X117280500Y-63240400D02*
X117280500Y-62446500D01*
X117093000Y-76516000D02*
X117093000Y-75940700D01*
X119293000Y-60071800D02*
X120017300Y-60796100D01*
X120017300Y-60796100D02*
X120017300Y-63038300D01*
X120017300Y-63038300D02*
X131252000Y-74273000D01*
X131252000Y-74273000D02*
X131252000Y-74688900D01*
X119293000Y-59496500D02*
X119293000Y-60071800D01*
X139509000Y-94997500D02*
X139509000Y-94548000D01*
X139509000Y-94548000D02*
X136307100Y-91346100D01*
X136307100Y-91346100D02*
X135415500Y-91346100D01*
X135415500Y-91346100D02*
X132010700Y-87941300D01*
X139509000Y-94997500D02*
X140779000Y-94997500D01*
X117093000Y-58921200D02*
X116517600Y-58345800D01*
X116517600Y-58345800D02*
X116517600Y-56161800D01*
X116517600Y-56161800D02*
X116808500Y-55870900D01*
X116808500Y-55870900D02*
X118241100Y-55870900D01*
X118241100Y-55870900D02*
X118241100Y-55870800D01*
X118241100Y-55870800D02*
X118453000Y-55658900D01*
X117093000Y-59496500D02*
X117093000Y-58921200D01*
X119496100Y-54615800D02*
X121567300Y-56687000D01*
X121567300Y-56687000D02*
X140564000Y-56687000D01*
X138567600Y-81137300D02*
X140418300Y-81137300D01*
X140418300Y-81137300D02*
X140564000Y-81283000D01*
X131605000Y-124968000D02*
X144042200Y-112530800D01*
X144042200Y-112530800D02*
X144042200Y-67160200D01*
X144042200Y-67160200D02*
X140564000Y-63682000D01*
X122944700Y-64302800D02*
X137358200Y-64302800D01*
X137358200Y-64302800D02*
X140564000Y-61097000D01*
X117280500Y-79466000D02*
X116423800Y-80322700D01*
X116423800Y-80322700D02*
X116423800Y-83128100D01*
X116423800Y-83128100D02*
X117255300Y-83959600D01*
X117255300Y-83959600D02*
X122006800Y-83959600D01*
X122006800Y-83959600D02*
X122150900Y-83815500D01*
X142049000Y-94997500D02*
X143126900Y-96075400D01*
X143126900Y-96075400D02*
X143126900Y-105989600D01*
X143126900Y-105989600D02*
X142311500Y-106805000D01*
X142311500Y-106805000D02*
X141677200Y-106805000D01*
X141677200Y-106805000D02*
X140492500Y-107989700D01*
X140492500Y-107989700D02*
X140492500Y-110904500D01*
X140492500Y-110904500D02*
X134938000Y-116459000D01*
X122150900Y-97035400D02*
X121729000Y-96613500D01*
X121729000Y-96613500D02*
X121729000Y-95442000D01*
X136028900Y-96573300D02*
X136028900Y-97737400D01*
X136028900Y-97737400D02*
X138239000Y-99947500D01*
X117919000Y-100392000D02*
X117919000Y-100859900D01*
X117919000Y-100859900D02*
X120042800Y-102983700D01*
X120042800Y-102983700D02*
X121113700Y-102983700D01*
X121113700Y-102983700D02*
X124778000Y-106648000D01*
X124778000Y-106648000D02*
X124778000Y-116459000D01*
X119105500Y-62446500D02*
X119105500Y-63905900D01*
X119105500Y-63905900D02*
X119291900Y-64092300D01*
X141536400Y-57979500D02*
X141602400Y-57913500D01*
X141602400Y-57913500D02*
X141602400Y-55900400D01*
X141602400Y-55900400D02*
X140564000Y-54862000D01*
X119105500Y-65396500D02*
X119105500Y-69136200D01*
X119105500Y-69136200D02*
X119489900Y-69520600D01*
X120459000Y-97297900D02*
X120459000Y-100392000D01*
X119075900Y-80775200D02*
X119105500Y-80745600D01*
X119105500Y-80745600D02*
X119105500Y-79466000D01*
X140564000Y-59272000D02*
X140564000Y-58185600D01*
X140564000Y-58185600D02*
X140531000Y-58152600D01*
X140779000Y-99947500D02*
X140779000Y-99372100D01*
X140779000Y-99372100D02*
X138922000Y-97515100D01*
X140564000Y-85693000D02*
X139780000Y-85693000D01*
X139780000Y-85693000D02*
X138922000Y-86551000D01*
X140564000Y-69974500D02*
X139490400Y-68900900D01*
X139490400Y-68900900D02*
X139490400Y-66908300D01*
X139490400Y-66908300D02*
X139763500Y-66635200D01*
X119634000Y-107757000D02*
X118110000Y-106233000D01*
X118046000Y-110604000D02*
X119634000Y-109016000D01*
X119634000Y-109016000D02*
X119634000Y-107757000D01*
X121031000Y-106360000D02*
X119634000Y-107757000D01*
X123167300Y-106478800D02*
X121149800Y-106478800D01*
X121149800Y-106478800D02*
X121031000Y-106360000D01*
X118110000Y-106233000D02*
X116842500Y-104965500D01*
X116842500Y-104965500D02*
X116842500Y-96518500D01*
X116842500Y-96518500D02*
X117919000Y-95442000D01*
X129944000Y-60960000D02*
X132444000Y-60960000D01*
X127508000Y-78549500D02*
X130008000Y-78549500D01*
X117668300Y-53657500D02*
X117668300Y-53813700D01*
X117668300Y-53813700D02*
X124814600Y-60960000D01*
X124814600Y-60960000D02*
X127444000Y-60960000D01*
X117093000Y-53657500D02*
X117668300Y-53657500D01*
X127318000Y-111506000D02*
X129818000Y-111506000D01*
X138811000Y-109792000D02*
X133762600Y-114840400D01*
X133762600Y-114840400D02*
X133762600Y-116984600D01*
X133762600Y-116984600D02*
X134429100Y-117651100D01*
X134429100Y-117651100D02*
X135476500Y-117651100D01*
X135476500Y-117651100D02*
X141986000Y-111141600D01*
X141986000Y-111141600D02*
X141986000Y-109980000D01*
X139862400Y-105530000D02*
X139862400Y-108740600D01*
X139862400Y-108740600D02*
X138811000Y-109792000D01*
X138239000Y-94997500D02*
X137917800Y-94676300D01*
X137917800Y-94676300D02*
X137183800Y-94676300D01*
X139862400Y-105530000D02*
X139806400Y-105474000D01*
X139806400Y-105474000D02*
X138811000Y-105474000D01*
X139862400Y-105530000D02*
X141986000Y-105530000D01*
X136325000Y-105474000D02*
X138811000Y-105474000D01*
X129818000Y-111506000D02*
X135850000Y-105474000D01*
X135850000Y-105474000D02*
X136325000Y-105474000D01*
X132318000Y-94869000D02*
X132318000Y-98164900D01*
X132318000Y-98164900D02*
X136325000Y-102171900D01*
X136325000Y-102171900D02*
X136325000Y-105474000D01*
X129818000Y-94869000D02*
X132318000Y-94869000D01*
X117093000Y-74141300D02*
X115973500Y-75260800D01*
X115973500Y-75260800D02*
X115973500Y-83314700D01*
X115973500Y-83314700D02*
X126302500Y-93643700D01*
X126302500Y-93643700D02*
X127318000Y-93643700D01*
X117093000Y-73566000D02*
X117093000Y-74141300D01*
X127318000Y-94869000D02*
X127318000Y-93643700D01*
M02*
