G04 #@! TF.GenerationSoftware,KiCad,Pcbnew,(5.1.10-1-10_14)*
G04 #@! TF.CreationDate,2021-10-11T21:18:44+02:00*
G04 #@! TF.ProjectId,main,6d61696e-2e6b-4696-9361-645f70636258,rev?*
G04 #@! TF.SameCoordinates,Original*
G04 #@! TF.FileFunction,Legend,Top*
G04 #@! TF.FilePolarity,Positive*
%FSLAX46Y46*%
G04 Gerber Fmt 4.6, Leading zero omitted, Abs format (unit mm)*
G04 Created by KiCad (PCBNEW (5.1.10-1-10_14)) date 2021-10-11 21:18:44*
%MOMM*%
%LPD*%
G01*
G04 APERTURE LIST*
%ADD10C,0.300000*%
%ADD11C,0.120000*%
%ADD12C,0.200000*%
%ADD13C,0.150000*%
%ADD14O,2.720000X3.240000*%
%ADD15C,1.800000*%
%ADD16R,1.800000X1.800000*%
%ADD17O,2.300000X3.100000*%
%ADD18C,1.700000*%
G04 APERTURE END LIST*
D10*
X118583714Y-132377571D02*
X117869428Y-132377571D01*
X117869428Y-130877571D01*
X119083714Y-132377571D02*
X119083714Y-130877571D01*
X119583714Y-131949000D01*
X120083714Y-130877571D01*
X120083714Y-132377571D01*
X120798000Y-132377571D02*
X120798000Y-130877571D01*
X121655142Y-132377571D01*
X121655142Y-130877571D01*
X123226571Y-132234714D02*
X123155142Y-132306142D01*
X122940857Y-132377571D01*
X122798000Y-132377571D01*
X122583714Y-132306142D01*
X122440857Y-132163285D01*
X122369428Y-132020428D01*
X122298000Y-131734714D01*
X122298000Y-131520428D01*
X122369428Y-131234714D01*
X122440857Y-131091857D01*
X122583714Y-130949000D01*
X122798000Y-130877571D01*
X122940857Y-130877571D01*
X123155142Y-130949000D01*
X123226571Y-131020428D01*
X124940857Y-131020428D02*
X125012285Y-130949000D01*
X125155142Y-130877571D01*
X125512285Y-130877571D01*
X125655142Y-130949000D01*
X125726571Y-131020428D01*
X125798000Y-131163285D01*
X125798000Y-131306142D01*
X125726571Y-131520428D01*
X124869428Y-132377571D01*
X125798000Y-132377571D01*
X126298000Y-132377571D02*
X127083714Y-131377571D01*
X126298000Y-131377571D02*
X127083714Y-132377571D01*
X128726571Y-131949000D02*
X129440857Y-131949000D01*
X128583714Y-132377571D02*
X129083714Y-130877571D01*
X129583714Y-132377571D01*
X130940857Y-132377571D02*
X130440857Y-131663285D01*
X130083714Y-132377571D02*
X130083714Y-130877571D01*
X130655142Y-130877571D01*
X130798000Y-130949000D01*
X130869428Y-131020428D01*
X130940857Y-131163285D01*
X130940857Y-131377571D01*
X130869428Y-131520428D01*
X130798000Y-131591857D01*
X130655142Y-131663285D01*
X130083714Y-131663285D01*
X132726571Y-131591857D02*
X133226571Y-131591857D01*
X133440857Y-132377571D02*
X132726571Y-132377571D01*
X132726571Y-130877571D01*
X133440857Y-130877571D01*
X134083714Y-132377571D02*
X134083714Y-130877571D01*
X134940857Y-132377571D01*
X134940857Y-130877571D01*
X135440857Y-130877571D02*
X135940857Y-132377571D01*
X136440857Y-130877571D01*
X137869428Y-130877571D02*
X138369428Y-132377571D01*
X138869428Y-130877571D01*
X140155142Y-132377571D02*
X139298000Y-132377571D01*
X139726571Y-132377571D02*
X139726571Y-130877571D01*
X139583714Y-131091857D01*
X139440857Y-131234714D01*
X139298000Y-131306142D01*
X140798000Y-132234714D02*
X140869428Y-132306142D01*
X140798000Y-132377571D01*
X140726571Y-132306142D01*
X140798000Y-132234714D01*
X140798000Y-132377571D01*
X141798000Y-130877571D02*
X141940857Y-130877571D01*
X142083714Y-130949000D01*
X142155142Y-131020428D01*
X142226571Y-131163285D01*
X142298000Y-131449000D01*
X142298000Y-131806142D01*
X142226571Y-132091857D01*
X142155142Y-132234714D01*
X142083714Y-132306142D01*
X141940857Y-132377571D01*
X141798000Y-132377571D01*
X141655142Y-132306142D01*
X141583714Y-132234714D01*
X141512285Y-132091857D01*
X141440857Y-131806142D01*
X141440857Y-131449000D01*
X141512285Y-131163285D01*
X141583714Y-131020428D01*
X141655142Y-130949000D01*
X141798000Y-130877571D01*
D11*
X131478000Y-93989000D02*
X130648000Y-93989000D01*
X129028000Y-93989000D02*
X128498000Y-93989000D01*
X126128000Y-93989000D02*
X124948000Y-93989000D01*
X134688000Y-93989000D02*
X134688000Y-89269000D01*
X124948000Y-85459000D02*
X124948000Y-82399000D01*
X124938000Y-93989000D02*
X124938000Y-89269000D01*
X134688000Y-85459000D02*
X134688000Y-82399000D01*
X134688000Y-93989000D02*
X133198000Y-93989000D01*
X134688000Y-82399000D02*
X124948000Y-82399000D01*
X131478000Y-110626000D02*
X130648000Y-110626000D01*
X129028000Y-110626000D02*
X128498000Y-110626000D01*
X126128000Y-110626000D02*
X124948000Y-110626000D01*
X134688000Y-110626000D02*
X134688000Y-105906000D01*
X124948000Y-102096000D02*
X124948000Y-99036000D01*
X124938000Y-110626000D02*
X124938000Y-105906000D01*
X134688000Y-102096000D02*
X134688000Y-99036000D01*
X134688000Y-110626000D02*
X133198000Y-110626000D01*
X134688000Y-99036000D02*
X124948000Y-99036000D01*
X131604000Y-60080000D02*
X130774000Y-60080000D01*
X129154000Y-60080000D02*
X128624000Y-60080000D01*
X126254000Y-60080000D02*
X125074000Y-60080000D01*
X134814000Y-60080000D02*
X134814000Y-55360000D01*
X125074000Y-51550000D02*
X125074000Y-48490000D01*
X125064000Y-60080000D02*
X125064000Y-55360000D01*
X134814000Y-51550000D02*
X134814000Y-48490000D01*
X134814000Y-60080000D02*
X133324000Y-60080000D01*
X134814000Y-48490000D02*
X125074000Y-48490000D01*
X131668000Y-77669500D02*
X130838000Y-77669500D01*
X129218000Y-77669500D02*
X128688000Y-77669500D01*
X126318000Y-77669500D02*
X125138000Y-77669500D01*
X134878000Y-77669500D02*
X134878000Y-72949500D01*
X125138000Y-69139500D02*
X125138000Y-66079500D01*
X125128000Y-77669500D02*
X125128000Y-72949500D01*
X134878000Y-69139500D02*
X134878000Y-66079500D01*
X134878000Y-77669500D02*
X133388000Y-77669500D01*
X134878000Y-66079500D02*
X125138000Y-66079500D01*
X139788000Y-138748000D02*
G75*
G03*
X139788000Y-138748000I-3200000J0D01*
G01*
D12*
X141088000Y-137248000D02*
X141088000Y-134248000D01*
X141088000Y-143248000D02*
X141088000Y-140248000D01*
X130588000Y-137148000D02*
X130588000Y-134248000D01*
X130588000Y-143248000D02*
X130588000Y-140348000D01*
X141088000Y-143248000D02*
X130588000Y-143248000D01*
X141088000Y-134248000D02*
X130588000Y-134248000D01*
D11*
X126263000Y-138748000D02*
G75*
G03*
X126263000Y-138748000I-3200000J0D01*
G01*
D12*
X118563000Y-140248000D02*
X118563000Y-143248000D01*
X118563000Y-134248000D02*
X118563000Y-137248000D01*
X129063000Y-140348000D02*
X129063000Y-143248000D01*
X129063000Y-134248000D02*
X129063000Y-137148000D01*
X118563000Y-134248000D02*
X129063000Y-134248000D01*
X118563000Y-143248000D02*
X129063000Y-143248000D01*
D11*
X139725000Y-124968000D02*
G75*
G03*
X139725000Y-124968000I-3200000J0D01*
G01*
D12*
X141025000Y-123468000D02*
X141025000Y-120468000D01*
X141025000Y-129468000D02*
X141025000Y-126468000D01*
X130525000Y-123368000D02*
X130525000Y-120468000D01*
X130525000Y-129468000D02*
X130525000Y-126568000D01*
X141025000Y-129468000D02*
X130525000Y-129468000D01*
X141025000Y-120468000D02*
X130525000Y-120468000D01*
D11*
X126580000Y-124904000D02*
G75*
G03*
X126580000Y-124904000I-3200000J0D01*
G01*
D12*
X118880000Y-126404000D02*
X118880000Y-129404000D01*
X118880000Y-120404000D02*
X118880000Y-123404000D01*
X129380000Y-126504000D02*
X129380000Y-129404000D01*
X129380000Y-120404000D02*
X129380000Y-123304000D01*
X118880000Y-120404000D02*
X129380000Y-120404000D01*
X118880000Y-129404000D02*
X129380000Y-129404000D01*
D13*
X113474666Y-49593380D02*
X113141333Y-49117190D01*
X112903238Y-49593380D02*
X112903238Y-48593380D01*
X113284190Y-48593380D01*
X113379428Y-48641000D01*
X113427047Y-48688619D01*
X113474666Y-48783857D01*
X113474666Y-48926714D01*
X113427047Y-49021952D01*
X113379428Y-49069571D01*
X113284190Y-49117190D01*
X112903238Y-49117190D01*
X113903238Y-49069571D02*
X114236571Y-49069571D01*
X114379428Y-49593380D02*
X113903238Y-49593380D01*
X113903238Y-48593380D01*
X114379428Y-48593380D01*
X115141333Y-49069571D02*
X114808000Y-49069571D01*
X114808000Y-49593380D02*
X114808000Y-48593380D01*
X115284190Y-48593380D01*
X115808000Y-48593380D02*
X115808000Y-48831476D01*
X115569904Y-48736238D02*
X115808000Y-48831476D01*
X116046095Y-48736238D01*
X115665142Y-49021952D02*
X115808000Y-48831476D01*
X115950857Y-49021952D01*
X116569904Y-48593380D02*
X116569904Y-48831476D01*
X116331809Y-48736238D02*
X116569904Y-48831476D01*
X116808000Y-48736238D01*
X116427047Y-49021952D02*
X116569904Y-48831476D01*
X116712761Y-49021952D01*
X108022285Y-48069571D02*
X108355619Y-48069571D01*
X108498476Y-48593380D02*
X108022285Y-48593380D01*
X108022285Y-47593380D01*
X108498476Y-47593380D01*
X109355619Y-47926714D02*
X109355619Y-48593380D01*
X108927047Y-47926714D02*
X108927047Y-48450523D01*
X108974666Y-48545761D01*
X109069904Y-48593380D01*
X109212761Y-48593380D01*
X109308000Y-48545761D01*
X109355619Y-48498142D01*
X109831809Y-48593380D02*
X109831809Y-47926714D01*
X109831809Y-48117190D02*
X109879428Y-48021952D01*
X109927047Y-47974333D01*
X110022285Y-47926714D01*
X110117523Y-47926714D01*
X110593714Y-48593380D02*
X110498476Y-48545761D01*
X110450857Y-48498142D01*
X110403238Y-48402904D01*
X110403238Y-48117190D01*
X110450857Y-48021952D01*
X110498476Y-47974333D01*
X110593714Y-47926714D01*
X110736571Y-47926714D01*
X110831809Y-47974333D01*
X110879428Y-48021952D01*
X110927047Y-48117190D01*
X110927047Y-48402904D01*
X110879428Y-48498142D01*
X110831809Y-48545761D01*
X110736571Y-48593380D01*
X110593714Y-48593380D01*
X111355619Y-48593380D02*
X111355619Y-47926714D01*
X111355619Y-48117190D02*
X111403238Y-48021952D01*
X111450857Y-47974333D01*
X111546095Y-47926714D01*
X111641333Y-47926714D01*
X112403238Y-48593380D02*
X112403238Y-48069571D01*
X112355619Y-47974333D01*
X112260380Y-47926714D01*
X112069904Y-47926714D01*
X111974666Y-47974333D01*
X112403238Y-48545761D02*
X112308000Y-48593380D01*
X112069904Y-48593380D01*
X111974666Y-48545761D01*
X111927047Y-48450523D01*
X111927047Y-48355285D01*
X111974666Y-48260047D01*
X112069904Y-48212428D01*
X112308000Y-48212428D01*
X112403238Y-48164809D01*
X113308000Y-48545761D02*
X113212761Y-48593380D01*
X113022285Y-48593380D01*
X112927047Y-48545761D01*
X112879428Y-48498142D01*
X112831809Y-48402904D01*
X112831809Y-48117190D01*
X112879428Y-48021952D01*
X112927047Y-47974333D01*
X113022285Y-47926714D01*
X113212761Y-47926714D01*
X113308000Y-47974333D01*
X113736571Y-48593380D02*
X113736571Y-47593380D01*
X113831809Y-48212428D02*
X114117523Y-48593380D01*
X114117523Y-47926714D02*
X113736571Y-48307666D01*
X114308000Y-48688619D02*
X115069904Y-48688619D01*
X115308000Y-48593380D02*
X115308000Y-47593380D01*
X115688952Y-47593380D01*
X115784190Y-47641000D01*
X115831809Y-47688619D01*
X115879428Y-47783857D01*
X115879428Y-47926714D01*
X115831809Y-48021952D01*
X115784190Y-48069571D01*
X115688952Y-48117190D01*
X115308000Y-48117190D01*
X116879428Y-48498142D02*
X116831809Y-48545761D01*
X116688952Y-48593380D01*
X116593714Y-48593380D01*
X116450857Y-48545761D01*
X116355619Y-48450523D01*
X116308000Y-48355285D01*
X116260380Y-48164809D01*
X116260380Y-48021952D01*
X116308000Y-47831476D01*
X116355619Y-47736238D01*
X116450857Y-47641000D01*
X116593714Y-47593380D01*
X116688952Y-47593380D01*
X116831809Y-47641000D01*
X116879428Y-47688619D01*
X117641333Y-48069571D02*
X117784190Y-48117190D01*
X117831809Y-48164809D01*
X117879428Y-48260047D01*
X117879428Y-48402904D01*
X117831809Y-48498142D01*
X117784190Y-48545761D01*
X117688952Y-48593380D01*
X117308000Y-48593380D01*
X117308000Y-47593380D01*
X117641333Y-47593380D01*
X117736571Y-47641000D01*
X117784190Y-47688619D01*
X117831809Y-47783857D01*
X117831809Y-47879095D01*
X117784190Y-47974333D01*
X117736571Y-48021952D01*
X117641333Y-48069571D01*
X117308000Y-48069571D01*
X118069904Y-48688619D02*
X118831809Y-48688619D01*
X119498476Y-47593380D02*
X119308000Y-47593380D01*
X119212761Y-47641000D01*
X119165142Y-47688619D01*
X119069904Y-47831476D01*
X119022285Y-48021952D01*
X119022285Y-48402904D01*
X119069904Y-48498142D01*
X119117523Y-48545761D01*
X119212761Y-48593380D01*
X119403238Y-48593380D01*
X119498476Y-48545761D01*
X119546095Y-48498142D01*
X119593714Y-48402904D01*
X119593714Y-48164809D01*
X119546095Y-48069571D01*
X119498476Y-48021952D01*
X119403238Y-47974333D01*
X119212761Y-47974333D01*
X119117523Y-48021952D01*
X119069904Y-48069571D01*
X119022285Y-48164809D01*
X120022285Y-48593380D02*
X120022285Y-47593380D01*
X120022285Y-48069571D02*
X120593714Y-48069571D01*
X120593714Y-48593380D02*
X120593714Y-47593380D01*
X121069904Y-48593380D02*
X121069904Y-47593380D01*
X121450857Y-47593380D01*
X121546095Y-47641000D01*
X121593714Y-47688619D01*
X121641333Y-47783857D01*
X121641333Y-47926714D01*
X121593714Y-48021952D01*
X121546095Y-48069571D01*
X121450857Y-48117190D01*
X121069904Y-48117190D01*
X122844666Y-91063761D02*
X122844666Y-90587571D01*
X123130380Y-91159000D02*
X122130380Y-90825666D01*
X123130380Y-90492333D01*
X122130380Y-90301857D02*
X122130380Y-89730428D01*
X123130380Y-90016142D02*
X122130380Y-90016142D01*
X122130380Y-89539952D02*
X122130380Y-88968523D01*
X123130380Y-89254238D02*
X122130380Y-89254238D01*
X122844666Y-88682809D02*
X122844666Y-88206619D01*
X123130380Y-88778047D02*
X122130380Y-88444714D01*
X123130380Y-88111380D01*
X123035142Y-87206619D02*
X123082761Y-87254238D01*
X123130380Y-87397095D01*
X123130380Y-87492333D01*
X123082761Y-87635190D01*
X122987523Y-87730428D01*
X122892285Y-87778047D01*
X122701809Y-87825666D01*
X122558952Y-87825666D01*
X122368476Y-87778047D01*
X122273238Y-87730428D01*
X122178000Y-87635190D01*
X122130380Y-87492333D01*
X122130380Y-87397095D01*
X122178000Y-87254238D01*
X122225619Y-87206619D01*
X123130380Y-86778047D02*
X122130380Y-86778047D01*
X123130380Y-86206619D02*
X122558952Y-86635190D01*
X122130380Y-86206619D02*
X122701809Y-86778047D01*
X122225619Y-85825666D02*
X122178000Y-85778047D01*
X122130380Y-85682809D01*
X122130380Y-85444714D01*
X122178000Y-85349476D01*
X122225619Y-85301857D01*
X122320857Y-85254238D01*
X122416095Y-85254238D01*
X122558952Y-85301857D01*
X123130380Y-85873285D01*
X123130380Y-85254238D01*
X123130380Y-107629333D02*
X122654190Y-107962666D01*
X123130380Y-108200761D02*
X122130380Y-108200761D01*
X122130380Y-107819809D01*
X122178000Y-107724571D01*
X122225619Y-107676952D01*
X122320857Y-107629333D01*
X122463714Y-107629333D01*
X122558952Y-107676952D01*
X122606571Y-107724571D01*
X122654190Y-107819809D01*
X122654190Y-108200761D01*
X122606571Y-107200761D02*
X122606571Y-106867428D01*
X123130380Y-106724571D02*
X123130380Y-107200761D01*
X122130380Y-107200761D01*
X122130380Y-106724571D01*
X123130380Y-105819809D02*
X123130380Y-106296000D01*
X122130380Y-106296000D01*
X122606571Y-105486476D02*
X122606571Y-105153142D01*
X123130380Y-105010285D02*
X123130380Y-105486476D01*
X122130380Y-105486476D01*
X122130380Y-105010285D01*
X122844666Y-104629333D02*
X122844666Y-104153142D01*
X123130380Y-104724571D02*
X122130380Y-104391238D01*
X123130380Y-104057904D01*
X123082761Y-103772190D02*
X123130380Y-103629333D01*
X123130380Y-103391238D01*
X123082761Y-103296000D01*
X123035142Y-103248380D01*
X122939904Y-103200761D01*
X122844666Y-103200761D01*
X122749428Y-103248380D01*
X122701809Y-103296000D01*
X122654190Y-103391238D01*
X122606571Y-103581714D01*
X122558952Y-103676952D01*
X122511333Y-103724571D01*
X122416095Y-103772190D01*
X122320857Y-103772190D01*
X122225619Y-103724571D01*
X122178000Y-103676952D01*
X122130380Y-103581714D01*
X122130380Y-103343619D01*
X122178000Y-103200761D01*
X122606571Y-102772190D02*
X122606571Y-102438857D01*
X123130380Y-102296000D02*
X123130380Y-102772190D01*
X122130380Y-102772190D01*
X122130380Y-102296000D01*
X122225619Y-101915047D02*
X122178000Y-101867428D01*
X122130380Y-101772190D01*
X122130380Y-101534095D01*
X122178000Y-101438857D01*
X122225619Y-101391238D01*
X122320857Y-101343619D01*
X122416095Y-101343619D01*
X122558952Y-101391238D01*
X123130380Y-101962666D01*
X123130380Y-101343619D01*
X122970666Y-57154761D02*
X122970666Y-56678571D01*
X123256380Y-57250000D02*
X122256380Y-56916666D01*
X123256380Y-56583333D01*
X122256380Y-56392857D02*
X122256380Y-55821428D01*
X123256380Y-56107142D02*
X122256380Y-56107142D01*
X122256380Y-55630952D02*
X122256380Y-55059523D01*
X123256380Y-55345238D02*
X122256380Y-55345238D01*
X122970666Y-54773809D02*
X122970666Y-54297619D01*
X123256380Y-54869047D02*
X122256380Y-54535714D01*
X123256380Y-54202380D01*
X123161142Y-53297619D02*
X123208761Y-53345238D01*
X123256380Y-53488095D01*
X123256380Y-53583333D01*
X123208761Y-53726190D01*
X123113523Y-53821428D01*
X123018285Y-53869047D01*
X122827809Y-53916666D01*
X122684952Y-53916666D01*
X122494476Y-53869047D01*
X122399238Y-53821428D01*
X122304000Y-53726190D01*
X122256380Y-53583333D01*
X122256380Y-53488095D01*
X122304000Y-53345238D01*
X122351619Y-53297619D01*
X123256380Y-52869047D02*
X122256380Y-52869047D01*
X123256380Y-52297619D02*
X122684952Y-52726190D01*
X122256380Y-52297619D02*
X122827809Y-52869047D01*
X123256380Y-51345238D02*
X123256380Y-51916666D01*
X123256380Y-51630952D02*
X122256380Y-51630952D01*
X122399238Y-51726190D01*
X122494476Y-51821428D01*
X122542095Y-51916666D01*
X123320380Y-74672833D02*
X122844190Y-75006166D01*
X123320380Y-75244261D02*
X122320380Y-75244261D01*
X122320380Y-74863309D01*
X122368000Y-74768071D01*
X122415619Y-74720452D01*
X122510857Y-74672833D01*
X122653714Y-74672833D01*
X122748952Y-74720452D01*
X122796571Y-74768071D01*
X122844190Y-74863309D01*
X122844190Y-75244261D01*
X122796571Y-74244261D02*
X122796571Y-73910928D01*
X123320380Y-73768071D02*
X123320380Y-74244261D01*
X122320380Y-74244261D01*
X122320380Y-73768071D01*
X123320380Y-72863309D02*
X123320380Y-73339500D01*
X122320380Y-73339500D01*
X122796571Y-72529976D02*
X122796571Y-72196642D01*
X123320380Y-72053785D02*
X123320380Y-72529976D01*
X122320380Y-72529976D01*
X122320380Y-72053785D01*
X123034666Y-71672833D02*
X123034666Y-71196642D01*
X123320380Y-71768071D02*
X122320380Y-71434738D01*
X123320380Y-71101404D01*
X123272761Y-70815690D02*
X123320380Y-70672833D01*
X123320380Y-70434738D01*
X123272761Y-70339500D01*
X123225142Y-70291880D01*
X123129904Y-70244261D01*
X123034666Y-70244261D01*
X122939428Y-70291880D01*
X122891809Y-70339500D01*
X122844190Y-70434738D01*
X122796571Y-70625214D01*
X122748952Y-70720452D01*
X122701333Y-70768071D01*
X122606095Y-70815690D01*
X122510857Y-70815690D01*
X122415619Y-70768071D01*
X122368000Y-70720452D01*
X122320380Y-70625214D01*
X122320380Y-70387119D01*
X122368000Y-70244261D01*
X122796571Y-69815690D02*
X122796571Y-69482357D01*
X123320380Y-69339500D02*
X123320380Y-69815690D01*
X122320380Y-69815690D01*
X122320380Y-69339500D01*
X123320380Y-68387119D02*
X123320380Y-68958547D01*
X123320380Y-68672833D02*
X122320380Y-68672833D01*
X122463238Y-68768071D01*
X122558476Y-68863309D01*
X122606095Y-68958547D01*
X129240380Y-142724190D02*
X129240380Y-142533714D01*
X129288000Y-142438476D01*
X129383238Y-142343238D01*
X129573714Y-142295619D01*
X129907047Y-142295619D01*
X130097523Y-142343238D01*
X130192761Y-142438476D01*
X130240380Y-142533714D01*
X130240380Y-142724190D01*
X130192761Y-142819428D01*
X130097523Y-142914666D01*
X129907047Y-142962285D01*
X129573714Y-142962285D01*
X129383238Y-142914666D01*
X129288000Y-142819428D01*
X129240380Y-142724190D01*
X129240380Y-141867047D02*
X130049904Y-141867047D01*
X130145142Y-141819428D01*
X130192761Y-141771809D01*
X130240380Y-141676571D01*
X130240380Y-141486095D01*
X130192761Y-141390857D01*
X130145142Y-141343238D01*
X130049904Y-141295619D01*
X129240380Y-141295619D01*
X129240380Y-140962285D02*
X129240380Y-140390857D01*
X130240380Y-140676571D02*
X129240380Y-140676571D01*
X129335619Y-140105142D02*
X129288000Y-140057523D01*
X129240380Y-139962285D01*
X129240380Y-139724190D01*
X129288000Y-139628952D01*
X129335619Y-139581333D01*
X129430857Y-139533714D01*
X129526095Y-139533714D01*
X129668952Y-139581333D01*
X130240380Y-140152761D01*
X130240380Y-139533714D01*
X129315380Y-137724190D02*
X129315380Y-137533714D01*
X129363000Y-137438476D01*
X129458238Y-137343238D01*
X129648714Y-137295619D01*
X129982047Y-137295619D01*
X130172523Y-137343238D01*
X130267761Y-137438476D01*
X130315380Y-137533714D01*
X130315380Y-137724190D01*
X130267761Y-137819428D01*
X130172523Y-137914666D01*
X129982047Y-137962285D01*
X129648714Y-137962285D01*
X129458238Y-137914666D01*
X129363000Y-137819428D01*
X129315380Y-137724190D01*
X129315380Y-136867047D02*
X130124904Y-136867047D01*
X130220142Y-136819428D01*
X130267761Y-136771809D01*
X130315380Y-136676571D01*
X130315380Y-136486095D01*
X130267761Y-136390857D01*
X130220142Y-136343238D01*
X130124904Y-136295619D01*
X129315380Y-136295619D01*
X129315380Y-135962285D02*
X129315380Y-135390857D01*
X130315380Y-135676571D02*
X129315380Y-135676571D01*
X130315380Y-134533714D02*
X130315380Y-135105142D01*
X130315380Y-134819428D02*
X129315380Y-134819428D01*
X129458238Y-134914666D01*
X129553476Y-135009904D01*
X129601095Y-135105142D01*
X130177380Y-128468000D02*
X129177380Y-128468000D01*
X130177380Y-127991809D02*
X129177380Y-127991809D01*
X130177380Y-127420380D01*
X129177380Y-127420380D01*
X129272619Y-126991809D02*
X129225000Y-126944190D01*
X129177380Y-126848952D01*
X129177380Y-126610857D01*
X129225000Y-126515619D01*
X129272619Y-126468000D01*
X129367857Y-126420380D01*
X129463095Y-126420380D01*
X129605952Y-126468000D01*
X130177380Y-127039428D01*
X130177380Y-126420380D01*
X130632380Y-123404000D02*
X129632380Y-123404000D01*
X130632380Y-122927809D02*
X129632380Y-122927809D01*
X130632380Y-122356380D01*
X129632380Y-122356380D01*
X130632380Y-121356380D02*
X130632380Y-121927809D01*
X130632380Y-121642095D02*
X129632380Y-121642095D01*
X129775238Y-121737333D01*
X129870476Y-121832571D01*
X129918095Y-121927809D01*
%LPC*%
D14*
X125018000Y-87369000D03*
X134618000Y-87369000D03*
D15*
X132318000Y-94869000D03*
X129818000Y-94869000D03*
D16*
X127318000Y-94869000D03*
D14*
X125018000Y-104006000D03*
X134618000Y-104006000D03*
D15*
X132318000Y-111506000D03*
X129818000Y-111506000D03*
D16*
X127318000Y-111506000D03*
D14*
X125144000Y-53460000D03*
X134744000Y-53460000D03*
D15*
X132444000Y-60960000D03*
X129944000Y-60960000D03*
D16*
X127444000Y-60960000D03*
D14*
X125208000Y-71049500D03*
X134808000Y-71049500D03*
D15*
X132508000Y-78549500D03*
X130008000Y-78549500D03*
D16*
X127508000Y-78549500D03*
G36*
G01*
X132318000Y-140048000D02*
X131018000Y-140048000D01*
G75*
G02*
X130368000Y-139398000I0J650000D01*
G01*
X130368000Y-138098000D01*
G75*
G02*
X131018000Y-137448000I650000J0D01*
G01*
X132318000Y-137448000D01*
G75*
G02*
X132968000Y-138098000I0J-650000D01*
G01*
X132968000Y-139398000D01*
G75*
G02*
X132318000Y-140048000I-650000J0D01*
G01*
G37*
D17*
X143068000Y-138748000D03*
G36*
G01*
X140618000Y-140048000D02*
X139318000Y-140048000D01*
G75*
G02*
X138668000Y-139398000I0J650000D01*
G01*
X138668000Y-138098000D01*
G75*
G02*
X139318000Y-137448000I650000J0D01*
G01*
X140618000Y-137448000D01*
G75*
G02*
X141268000Y-138098000I0J-650000D01*
G01*
X141268000Y-139398000D01*
G75*
G02*
X140618000Y-140048000I-650000J0D01*
G01*
G37*
G36*
G01*
X127333000Y-137448000D02*
X128633000Y-137448000D01*
G75*
G02*
X129283000Y-138098000I0J-650000D01*
G01*
X129283000Y-139398000D01*
G75*
G02*
X128633000Y-140048000I-650000J0D01*
G01*
X127333000Y-140048000D01*
G75*
G02*
X126683000Y-139398000I0J650000D01*
G01*
X126683000Y-138098000D01*
G75*
G02*
X127333000Y-137448000I650000J0D01*
G01*
G37*
X116583000Y-138748000D03*
G36*
G01*
X119033000Y-137448000D02*
X120333000Y-137448000D01*
G75*
G02*
X120983000Y-138098000I0J-650000D01*
G01*
X120983000Y-139398000D01*
G75*
G02*
X120333000Y-140048000I-650000J0D01*
G01*
X119033000Y-140048000D01*
G75*
G02*
X118383000Y-139398000I0J650000D01*
G01*
X118383000Y-138098000D01*
G75*
G02*
X119033000Y-137448000I650000J0D01*
G01*
G37*
D18*
X134938000Y-118999000D03*
X132398000Y-118999000D03*
X129858000Y-118999000D03*
X127318000Y-118999000D03*
X124778000Y-118999000D03*
X134938000Y-116459000D03*
X132398000Y-116459000D03*
X129858000Y-116459000D03*
X127318000Y-116459000D03*
G36*
G01*
X124178000Y-115609000D02*
X125378000Y-115609000D01*
G75*
G02*
X125628000Y-115859000I0J-250000D01*
G01*
X125628000Y-117059000D01*
G75*
G02*
X125378000Y-117309000I-250000J0D01*
G01*
X124178000Y-117309000D01*
G75*
G02*
X123928000Y-117059000I0J250000D01*
G01*
X123928000Y-115859000D01*
G75*
G02*
X124178000Y-115609000I250000J0D01*
G01*
G37*
G36*
G01*
X132255000Y-126268000D02*
X130955000Y-126268000D01*
G75*
G02*
X130305000Y-125618000I0J650000D01*
G01*
X130305000Y-124318000D01*
G75*
G02*
X130955000Y-123668000I650000J0D01*
G01*
X132255000Y-123668000D01*
G75*
G02*
X132905000Y-124318000I0J-650000D01*
G01*
X132905000Y-125618000D01*
G75*
G02*
X132255000Y-126268000I-650000J0D01*
G01*
G37*
D17*
X143005000Y-124968000D03*
G36*
G01*
X140555000Y-126268000D02*
X139255000Y-126268000D01*
G75*
G02*
X138605000Y-125618000I0J650000D01*
G01*
X138605000Y-124318000D01*
G75*
G02*
X139255000Y-123668000I650000J0D01*
G01*
X140555000Y-123668000D01*
G75*
G02*
X141205000Y-124318000I0J-650000D01*
G01*
X141205000Y-125618000D01*
G75*
G02*
X140555000Y-126268000I-650000J0D01*
G01*
G37*
G36*
G01*
X127650000Y-123604000D02*
X128950000Y-123604000D01*
G75*
G02*
X129600000Y-124254000I0J-650000D01*
G01*
X129600000Y-125554000D01*
G75*
G02*
X128950000Y-126204000I-650000J0D01*
G01*
X127650000Y-126204000D01*
G75*
G02*
X127000000Y-125554000I0J650000D01*
G01*
X127000000Y-124254000D01*
G75*
G02*
X127650000Y-123604000I650000J0D01*
G01*
G37*
X116900000Y-124904000D03*
G36*
G01*
X119350000Y-123604000D02*
X120650000Y-123604000D01*
G75*
G02*
X121300000Y-124254000I0J-650000D01*
G01*
X121300000Y-125554000D01*
G75*
G02*
X120650000Y-126204000I-650000J0D01*
G01*
X119350000Y-126204000D01*
G75*
G02*
X118700000Y-125554000I0J650000D01*
G01*
X118700000Y-124254000D01*
G75*
G02*
X119350000Y-123604000I650000J0D01*
G01*
G37*
M02*
