M48
; DRILL file {KiCad (5.1.10-1-10_14)} date Monday, October 11, 2021 at 09:18:44 PM
; FORMAT={-:-/ absolute / inch / decimal}
; #@! TF.CreationDate,2021-10-11T21:18:44+02:00
; #@! TF.GenerationSoftware,Kicad,Pcbnew,(5.1.10-1-10_14)
; #@! TF.FileFunction,Plated,1,2,PTH
FMAT,2
INCH
T1C0.0157
T2C0.0236
T3C0.0394
T4C0.0433
%
G90
G05
T1
X4.6144Y-3.435
X4.6916Y-2.5271
X4.7192Y-3.6671
X4.7383Y-3.4449
X4.7489Y-2.3963
X5.0608Y-3.9993
X5.2392Y-2.468
X5.4541Y-3.2954
X5.4606Y-3.1064
X5.4729Y-4.0295
X5.4902Y-3.0535
X5.5387Y-3.6517
X5.5748Y-2.555
X5.5925Y-3.8408
T3
X4.9125Y-4.585
X4.9125Y-4.685
X5.0125Y-3.735
X5.0125Y-4.39
X5.0125Y-4.585
X5.0125Y-4.685
X5.0175Y-2.4
X5.02Y-3.0925
X5.1109Y-3.735
X5.1109Y-4.39
X5.1125Y-4.585
X5.1125Y-4.685
X5.1159Y-2.4
X5.1184Y-3.0925
X5.2094Y-3.735
X5.2094Y-4.39
X5.2125Y-4.585
X5.2125Y-4.685
X5.2143Y-2.4
X5.2169Y-3.0925
X5.3125Y-4.585
X5.3125Y-4.685
T2
G00X4.5899Y-5.4428
M15
G01X4.5899Y-5.4822
M16
G05
G00X4.6024Y-4.8978
M15
G01X4.6024Y-4.9372
M16
G05
G00X4.7119Y-5.4428
M15
G01X4.7119Y-5.4822
M16
G05
G00X4.7244Y-4.8978
M15
G01X4.7244Y-4.9372
M16
G05
G00X5.0387Y-5.4428
M15
G01X5.0387Y-5.4822
M16
G05
G00X5.0512Y-4.8978
M15
G01X5.0512Y-4.9372
M16
G05
G00X5.1813Y-4.9397
M15
G01X5.1813Y-4.9003
M16
G05
G00X5.1838Y-5.4822
M15
G01X5.1838Y-5.4428
M16
G05
G00X5.5081Y-4.9397
M15
G01X5.5081Y-4.9003
M16
G05
G00X5.5106Y-5.4822
M15
G01X5.5106Y-5.4428
M16
G05
G00X5.6301Y-4.9397
M15
G01X5.6301Y-4.9003
M16
G05
G00X5.6326Y-5.4822
M15
G01X5.6326Y-5.4428
M16
G05
T4
G00X4.922Y-3.4535
M15
G01X4.922Y-3.4259
M16
G05
G00X4.922Y-4.1085
M15
G01X4.922Y-4.0809
M16
G05
G00X4.9269Y-2.1185
M15
G01X4.9269Y-2.0909
M16
G05
G00X4.9294Y-2.811
M15
G01X4.9294Y-2.7834
M16
G05
G00X5.2999Y-3.4535
M15
G01X5.2999Y-3.4259
M16
G05
G00X5.2999Y-4.1085
M15
G01X5.2999Y-4.0809
M16
G05
G00X5.3049Y-2.1185
M15
G01X5.3049Y-2.0909
M16
G05
G00X5.3074Y-2.811
M15
G01X5.3074Y-2.7834
M16
G05
T0
M30
