G04 #@! TF.GenerationSoftware,KiCad,Pcbnew,(5.1.10-1-10_14)*
G04 #@! TF.CreationDate,2021-10-11T21:18:44+02:00*
G04 #@! TF.ProjectId,main,6d61696e-2e6b-4696-9361-645f70636258,rev?*
G04 #@! TF.SameCoordinates,Original*
G04 #@! TF.FileFunction,Soldermask,Bot*
G04 #@! TF.FilePolarity,Negative*
%FSLAX46Y46*%
G04 Gerber Fmt 4.6, Leading zero omitted, Abs format (unit mm)*
G04 Created by KiCad (PCBNEW (5.1.10-1-10_14)) date 2021-10-11 21:18:44*
%MOMM*%
%LPD*%
G01*
G04 APERTURE LIST*
%ADD10O,2.720000X3.240000*%
%ADD11C,1.800000*%
%ADD12R,1.800000X1.800000*%
%ADD13O,2.300000X3.100000*%
%ADD14C,1.700000*%
%ADD15R,0.500000X0.500000*%
G04 APERTURE END LIST*
G36*
G01*
X142199000Y-95972500D02*
X141899000Y-95972500D01*
G75*
G02*
X141749000Y-95822500I0J150000D01*
G01*
X141749000Y-94172500D01*
G75*
G02*
X141899000Y-94022500I150000J0D01*
G01*
X142199000Y-94022500D01*
G75*
G02*
X142349000Y-94172500I0J-150000D01*
G01*
X142349000Y-95822500D01*
G75*
G02*
X142199000Y-95972500I-150000J0D01*
G01*
G37*
G36*
G01*
X140929000Y-95972500D02*
X140629000Y-95972500D01*
G75*
G02*
X140479000Y-95822500I0J150000D01*
G01*
X140479000Y-94172500D01*
G75*
G02*
X140629000Y-94022500I150000J0D01*
G01*
X140929000Y-94022500D01*
G75*
G02*
X141079000Y-94172500I0J-150000D01*
G01*
X141079000Y-95822500D01*
G75*
G02*
X140929000Y-95972500I-150000J0D01*
G01*
G37*
G36*
G01*
X139659000Y-95972500D02*
X139359000Y-95972500D01*
G75*
G02*
X139209000Y-95822500I0J150000D01*
G01*
X139209000Y-94172500D01*
G75*
G02*
X139359000Y-94022500I150000J0D01*
G01*
X139659000Y-94022500D01*
G75*
G02*
X139809000Y-94172500I0J-150000D01*
G01*
X139809000Y-95822500D01*
G75*
G02*
X139659000Y-95972500I-150000J0D01*
G01*
G37*
G36*
G01*
X138389000Y-95972500D02*
X138089000Y-95972500D01*
G75*
G02*
X137939000Y-95822500I0J150000D01*
G01*
X137939000Y-94172500D01*
G75*
G02*
X138089000Y-94022500I150000J0D01*
G01*
X138389000Y-94022500D01*
G75*
G02*
X138539000Y-94172500I0J-150000D01*
G01*
X138539000Y-95822500D01*
G75*
G02*
X138389000Y-95972500I-150000J0D01*
G01*
G37*
G36*
G01*
X138389000Y-100922500D02*
X138089000Y-100922500D01*
G75*
G02*
X137939000Y-100772500I0J150000D01*
G01*
X137939000Y-99122500D01*
G75*
G02*
X138089000Y-98972500I150000J0D01*
G01*
X138389000Y-98972500D01*
G75*
G02*
X138539000Y-99122500I0J-150000D01*
G01*
X138539000Y-100772500D01*
G75*
G02*
X138389000Y-100922500I-150000J0D01*
G01*
G37*
G36*
G01*
X139659000Y-100922500D02*
X139359000Y-100922500D01*
G75*
G02*
X139209000Y-100772500I0J150000D01*
G01*
X139209000Y-99122500D01*
G75*
G02*
X139359000Y-98972500I150000J0D01*
G01*
X139659000Y-98972500D01*
G75*
G02*
X139809000Y-99122500I0J-150000D01*
G01*
X139809000Y-100772500D01*
G75*
G02*
X139659000Y-100922500I-150000J0D01*
G01*
G37*
G36*
G01*
X140929000Y-100922500D02*
X140629000Y-100922500D01*
G75*
G02*
X140479000Y-100772500I0J150000D01*
G01*
X140479000Y-99122500D01*
G75*
G02*
X140629000Y-98972500I150000J0D01*
G01*
X140929000Y-98972500D01*
G75*
G02*
X141079000Y-99122500I0J-150000D01*
G01*
X141079000Y-100772500D01*
G75*
G02*
X140929000Y-100922500I-150000J0D01*
G01*
G37*
G36*
G01*
X142199000Y-100922500D02*
X141899000Y-100922500D01*
G75*
G02*
X141749000Y-100772500I0J150000D01*
G01*
X141749000Y-99122500D01*
G75*
G02*
X141899000Y-98972500I150000J0D01*
G01*
X142199000Y-98972500D01*
G75*
G02*
X142349000Y-99122500I0J-150000D01*
G01*
X142349000Y-100772500D01*
G75*
G02*
X142199000Y-100922500I-150000J0D01*
G01*
G37*
G36*
G01*
X121879000Y-96417000D02*
X121579000Y-96417000D01*
G75*
G02*
X121429000Y-96267000I0J150000D01*
G01*
X121429000Y-94617000D01*
G75*
G02*
X121579000Y-94467000I150000J0D01*
G01*
X121879000Y-94467000D01*
G75*
G02*
X122029000Y-94617000I0J-150000D01*
G01*
X122029000Y-96267000D01*
G75*
G02*
X121879000Y-96417000I-150000J0D01*
G01*
G37*
G36*
G01*
X120609000Y-96417000D02*
X120309000Y-96417000D01*
G75*
G02*
X120159000Y-96267000I0J150000D01*
G01*
X120159000Y-94617000D01*
G75*
G02*
X120309000Y-94467000I150000J0D01*
G01*
X120609000Y-94467000D01*
G75*
G02*
X120759000Y-94617000I0J-150000D01*
G01*
X120759000Y-96267000D01*
G75*
G02*
X120609000Y-96417000I-150000J0D01*
G01*
G37*
G36*
G01*
X119339000Y-96417000D02*
X119039000Y-96417000D01*
G75*
G02*
X118889000Y-96267000I0J150000D01*
G01*
X118889000Y-94617000D01*
G75*
G02*
X119039000Y-94467000I150000J0D01*
G01*
X119339000Y-94467000D01*
G75*
G02*
X119489000Y-94617000I0J-150000D01*
G01*
X119489000Y-96267000D01*
G75*
G02*
X119339000Y-96417000I-150000J0D01*
G01*
G37*
G36*
G01*
X118069000Y-96417000D02*
X117769000Y-96417000D01*
G75*
G02*
X117619000Y-96267000I0J150000D01*
G01*
X117619000Y-94617000D01*
G75*
G02*
X117769000Y-94467000I150000J0D01*
G01*
X118069000Y-94467000D01*
G75*
G02*
X118219000Y-94617000I0J-150000D01*
G01*
X118219000Y-96267000D01*
G75*
G02*
X118069000Y-96417000I-150000J0D01*
G01*
G37*
G36*
G01*
X118069000Y-101367000D02*
X117769000Y-101367000D01*
G75*
G02*
X117619000Y-101217000I0J150000D01*
G01*
X117619000Y-99567000D01*
G75*
G02*
X117769000Y-99417000I150000J0D01*
G01*
X118069000Y-99417000D01*
G75*
G02*
X118219000Y-99567000I0J-150000D01*
G01*
X118219000Y-101217000D01*
G75*
G02*
X118069000Y-101367000I-150000J0D01*
G01*
G37*
G36*
G01*
X119339000Y-101367000D02*
X119039000Y-101367000D01*
G75*
G02*
X118889000Y-101217000I0J150000D01*
G01*
X118889000Y-99567000D01*
G75*
G02*
X119039000Y-99417000I150000J0D01*
G01*
X119339000Y-99417000D01*
G75*
G02*
X119489000Y-99567000I0J-150000D01*
G01*
X119489000Y-101217000D01*
G75*
G02*
X119339000Y-101367000I-150000J0D01*
G01*
G37*
G36*
G01*
X120609000Y-101367000D02*
X120309000Y-101367000D01*
G75*
G02*
X120159000Y-101217000I0J150000D01*
G01*
X120159000Y-99567000D01*
G75*
G02*
X120309000Y-99417000I150000J0D01*
G01*
X120609000Y-99417000D01*
G75*
G02*
X120759000Y-99567000I0J-150000D01*
G01*
X120759000Y-101217000D01*
G75*
G02*
X120609000Y-101367000I-150000J0D01*
G01*
G37*
G36*
G01*
X121879000Y-101367000D02*
X121579000Y-101367000D01*
G75*
G02*
X121429000Y-101217000I0J150000D01*
G01*
X121429000Y-99567000D01*
G75*
G02*
X121579000Y-99417000I150000J0D01*
G01*
X121879000Y-99417000D01*
G75*
G02*
X122029000Y-99567000I0J-150000D01*
G01*
X122029000Y-101217000D01*
G75*
G02*
X121879000Y-101367000I-150000J0D01*
G01*
G37*
D10*
X125018000Y-87369000D03*
X134618000Y-87369000D03*
D11*
X132318000Y-94869000D03*
X129818000Y-94869000D03*
D12*
X127318000Y-94869000D03*
D10*
X125018000Y-104006000D03*
X134618000Y-104006000D03*
D11*
X132318000Y-111506000D03*
X129818000Y-111506000D03*
D12*
X127318000Y-111506000D03*
D10*
X125144000Y-53460000D03*
X134744000Y-53460000D03*
D11*
X132444000Y-60960000D03*
X129944000Y-60960000D03*
D12*
X127444000Y-60960000D03*
D10*
X125208000Y-71049500D03*
X134808000Y-71049500D03*
D11*
X132508000Y-78549500D03*
X130008000Y-78549500D03*
D12*
X127508000Y-78549500D03*
G36*
G01*
X140053001Y-55057000D02*
X139152999Y-55057000D01*
G75*
G02*
X138903000Y-54807001I0J249999D01*
G01*
X138903000Y-54281999D01*
G75*
G02*
X139152999Y-54032000I249999J0D01*
G01*
X140053001Y-54032000D01*
G75*
G02*
X140303000Y-54281999I0J-249999D01*
G01*
X140303000Y-54807001D01*
G75*
G02*
X140053001Y-55057000I-249999J0D01*
G01*
G37*
G36*
G01*
X140053001Y-56882000D02*
X139152999Y-56882000D01*
G75*
G02*
X138903000Y-56632001I0J249999D01*
G01*
X138903000Y-56106999D01*
G75*
G02*
X139152999Y-55857000I249999J0D01*
G01*
X140053001Y-55857000D01*
G75*
G02*
X140303000Y-56106999I0J-249999D01*
G01*
X140303000Y-56632001D01*
G75*
G02*
X140053001Y-56882000I-249999J0D01*
G01*
G37*
G36*
G01*
X119742000Y-62896501D02*
X119742000Y-61996499D01*
G75*
G02*
X119991999Y-61746500I249999J0D01*
G01*
X120517001Y-61746500D01*
G75*
G02*
X120767000Y-61996499I0J-249999D01*
G01*
X120767000Y-62896501D01*
G75*
G02*
X120517001Y-63146500I-249999J0D01*
G01*
X119991999Y-63146500D01*
G75*
G02*
X119742000Y-62896501I0J249999D01*
G01*
G37*
G36*
G01*
X117917000Y-62896501D02*
X117917000Y-61996499D01*
G75*
G02*
X118166999Y-61746500I249999J0D01*
G01*
X118692001Y-61746500D01*
G75*
G02*
X118942000Y-61996499I0J-249999D01*
G01*
X118942000Y-62896501D01*
G75*
G02*
X118692001Y-63146500I-249999J0D01*
G01*
X118166999Y-63146500D01*
G75*
G02*
X117917000Y-62896501I0J249999D01*
G01*
G37*
G36*
G01*
X140053001Y-59467000D02*
X139152999Y-59467000D01*
G75*
G02*
X138903000Y-59217001I0J249999D01*
G01*
X138903000Y-58691999D01*
G75*
G02*
X139152999Y-58442000I249999J0D01*
G01*
X140053001Y-58442000D01*
G75*
G02*
X140303000Y-58691999I0J-249999D01*
G01*
X140303000Y-59217001D01*
G75*
G02*
X140053001Y-59467000I-249999J0D01*
G01*
G37*
G36*
G01*
X140053001Y-61292000D02*
X139152999Y-61292000D01*
G75*
G02*
X138903000Y-61042001I0J249999D01*
G01*
X138903000Y-60516999D01*
G75*
G02*
X139152999Y-60267000I249999J0D01*
G01*
X140053001Y-60267000D01*
G75*
G02*
X140303000Y-60516999I0J-249999D01*
G01*
X140303000Y-61042001D01*
G75*
G02*
X140053001Y-61292000I-249999J0D01*
G01*
G37*
G36*
G01*
X118593000Y-79916001D02*
X118593000Y-79015999D01*
G75*
G02*
X118842999Y-78766000I249999J0D01*
G01*
X119368001Y-78766000D01*
G75*
G02*
X119618000Y-79015999I0J-249999D01*
G01*
X119618000Y-79916001D01*
G75*
G02*
X119368001Y-80166000I-249999J0D01*
G01*
X118842999Y-80166000D01*
G75*
G02*
X118593000Y-79916001I0J249999D01*
G01*
G37*
G36*
G01*
X116768000Y-79916001D02*
X116768000Y-79015999D01*
G75*
G02*
X117017999Y-78766000I249999J0D01*
G01*
X117543001Y-78766000D01*
G75*
G02*
X117793000Y-79015999I0J-249999D01*
G01*
X117793000Y-79916001D01*
G75*
G02*
X117543001Y-80166000I-249999J0D01*
G01*
X117017999Y-80166000D01*
G75*
G02*
X116768000Y-79916001I0J249999D01*
G01*
G37*
G36*
G01*
X139964001Y-85888000D02*
X139063999Y-85888000D01*
G75*
G02*
X138814000Y-85638001I0J249999D01*
G01*
X138814000Y-85112999D01*
G75*
G02*
X139063999Y-84863000I249999J0D01*
G01*
X139964001Y-84863000D01*
G75*
G02*
X140214000Y-85112999I0J-249999D01*
G01*
X140214000Y-85638001D01*
G75*
G02*
X139964001Y-85888000I-249999J0D01*
G01*
G37*
G36*
G01*
X139964001Y-87713000D02*
X139063999Y-87713000D01*
G75*
G02*
X138814000Y-87463001I0J249999D01*
G01*
X138814000Y-86937999D01*
G75*
G02*
X139063999Y-86688000I249999J0D01*
G01*
X139964001Y-86688000D01*
G75*
G02*
X140214000Y-86937999I0J-249999D01*
G01*
X140214000Y-87463001D01*
G75*
G02*
X139964001Y-87713000I-249999J0D01*
G01*
G37*
G36*
G01*
X119742000Y-65846501D02*
X119742000Y-64946499D01*
G75*
G02*
X119991999Y-64696500I249999J0D01*
G01*
X120517001Y-64696500D01*
G75*
G02*
X120767000Y-64946499I0J-249999D01*
G01*
X120767000Y-65846501D01*
G75*
G02*
X120517001Y-66096500I-249999J0D01*
G01*
X119991999Y-66096500D01*
G75*
G02*
X119742000Y-65846501I0J249999D01*
G01*
G37*
G36*
G01*
X117917000Y-65846501D02*
X117917000Y-64946499D01*
G75*
G02*
X118166999Y-64696500I249999J0D01*
G01*
X118692001Y-64696500D01*
G75*
G02*
X118942000Y-64946499I0J-249999D01*
G01*
X118942000Y-65846501D01*
G75*
G02*
X118692001Y-66096500I-249999J0D01*
G01*
X118166999Y-66096500D01*
G75*
G02*
X117917000Y-65846501I0J249999D01*
G01*
G37*
G36*
G01*
X139964001Y-90298000D02*
X139063999Y-90298000D01*
G75*
G02*
X138814000Y-90048001I0J249999D01*
G01*
X138814000Y-89522999D01*
G75*
G02*
X139063999Y-89273000I249999J0D01*
G01*
X139964001Y-89273000D01*
G75*
G02*
X140214000Y-89522999I0J-249999D01*
G01*
X140214000Y-90048001D01*
G75*
G02*
X139964001Y-90298000I-249999J0D01*
G01*
G37*
G36*
G01*
X139964001Y-92123000D02*
X139063999Y-92123000D01*
G75*
G02*
X138814000Y-91873001I0J249999D01*
G01*
X138814000Y-91347999D01*
G75*
G02*
X139063999Y-91098000I249999J0D01*
G01*
X139964001Y-91098000D01*
G75*
G02*
X140214000Y-91347999I0J-249999D01*
G01*
X140214000Y-91873001D01*
G75*
G02*
X139964001Y-92123000I-249999J0D01*
G01*
G37*
G36*
G01*
X118593000Y-82866001D02*
X118593000Y-81965999D01*
G75*
G02*
X118842999Y-81716000I249999J0D01*
G01*
X119368001Y-81716000D01*
G75*
G02*
X119618000Y-81965999I0J-249999D01*
G01*
X119618000Y-82866001D01*
G75*
G02*
X119368001Y-83116000I-249999J0D01*
G01*
X118842999Y-83116000D01*
G75*
G02*
X118593000Y-82866001I0J249999D01*
G01*
G37*
G36*
G01*
X116768000Y-82866001D02*
X116768000Y-81965999D01*
G75*
G02*
X117017999Y-81716000I249999J0D01*
G01*
X117543001Y-81716000D01*
G75*
G02*
X117793000Y-81965999I0J-249999D01*
G01*
X117793000Y-82866001D01*
G75*
G02*
X117543001Y-83116000I-249999J0D01*
G01*
X117017999Y-83116000D01*
G75*
G02*
X116768000Y-82866001I0J249999D01*
G01*
G37*
G36*
G01*
X140053001Y-63877000D02*
X139152999Y-63877000D01*
G75*
G02*
X138903000Y-63627001I0J249999D01*
G01*
X138903000Y-63101999D01*
G75*
G02*
X139152999Y-62852000I249999J0D01*
G01*
X140053001Y-62852000D01*
G75*
G02*
X140303000Y-63101999I0J-249999D01*
G01*
X140303000Y-63627001D01*
G75*
G02*
X140053001Y-63877000I-249999J0D01*
G01*
G37*
G36*
G01*
X140053001Y-65702000D02*
X139152999Y-65702000D01*
G75*
G02*
X138903000Y-65452001I0J249999D01*
G01*
X138903000Y-64926999D01*
G75*
G02*
X139152999Y-64677000I249999J0D01*
G01*
X140053001Y-64677000D01*
G75*
G02*
X140303000Y-64926999I0J-249999D01*
G01*
X140303000Y-65452001D01*
G75*
G02*
X140053001Y-65702000I-249999J0D01*
G01*
G37*
G36*
G01*
X140024001Y-81478000D02*
X139123999Y-81478000D01*
G75*
G02*
X138874000Y-81228001I0J249999D01*
G01*
X138874000Y-80702999D01*
G75*
G02*
X139123999Y-80453000I249999J0D01*
G01*
X140024001Y-80453000D01*
G75*
G02*
X140274000Y-80702999I0J-249999D01*
G01*
X140274000Y-81228001D01*
G75*
G02*
X140024001Y-81478000I-249999J0D01*
G01*
G37*
G36*
G01*
X140024001Y-83303000D02*
X139123999Y-83303000D01*
G75*
G02*
X138874000Y-83053001I0J249999D01*
G01*
X138874000Y-82527999D01*
G75*
G02*
X139123999Y-82278000I249999J0D01*
G01*
X140024001Y-82278000D01*
G75*
G02*
X140274000Y-82527999I0J-249999D01*
G01*
X140274000Y-83053001D01*
G75*
G02*
X140024001Y-83303000I-249999J0D01*
G01*
G37*
G36*
G01*
X132318000Y-140048000D02*
X131018000Y-140048000D01*
G75*
G02*
X130368000Y-139398000I0J650000D01*
G01*
X130368000Y-138098000D01*
G75*
G02*
X131018000Y-137448000I650000J0D01*
G01*
X132318000Y-137448000D01*
G75*
G02*
X132968000Y-138098000I0J-650000D01*
G01*
X132968000Y-139398000D01*
G75*
G02*
X132318000Y-140048000I-650000J0D01*
G01*
G37*
D13*
X143068000Y-138748000D03*
G36*
G01*
X140618000Y-140048000D02*
X139318000Y-140048000D01*
G75*
G02*
X138668000Y-139398000I0J650000D01*
G01*
X138668000Y-138098000D01*
G75*
G02*
X139318000Y-137448000I650000J0D01*
G01*
X140618000Y-137448000D01*
G75*
G02*
X141268000Y-138098000I0J-650000D01*
G01*
X141268000Y-139398000D01*
G75*
G02*
X140618000Y-140048000I-650000J0D01*
G01*
G37*
G36*
G01*
X127333000Y-137448000D02*
X128633000Y-137448000D01*
G75*
G02*
X129283000Y-138098000I0J-650000D01*
G01*
X129283000Y-139398000D01*
G75*
G02*
X128633000Y-140048000I-650000J0D01*
G01*
X127333000Y-140048000D01*
G75*
G02*
X126683000Y-139398000I0J650000D01*
G01*
X126683000Y-138098000D01*
G75*
G02*
X127333000Y-137448000I650000J0D01*
G01*
G37*
X116583000Y-138748000D03*
G36*
G01*
X119033000Y-137448000D02*
X120333000Y-137448000D01*
G75*
G02*
X120983000Y-138098000I0J-650000D01*
G01*
X120983000Y-139398000D01*
G75*
G02*
X120333000Y-140048000I-650000J0D01*
G01*
X119033000Y-140048000D01*
G75*
G02*
X118383000Y-139398000I0J650000D01*
G01*
X118383000Y-138098000D01*
G75*
G02*
X119033000Y-137448000I650000J0D01*
G01*
G37*
D14*
X134938000Y-118999000D03*
X132398000Y-118999000D03*
X129858000Y-118999000D03*
X127318000Y-118999000D03*
X124778000Y-118999000D03*
X134938000Y-116459000D03*
X132398000Y-116459000D03*
X129858000Y-116459000D03*
X127318000Y-116459000D03*
G36*
G01*
X124178000Y-115609000D02*
X125378000Y-115609000D01*
G75*
G02*
X125628000Y-115859000I0J-250000D01*
G01*
X125628000Y-117059000D01*
G75*
G02*
X125378000Y-117309000I-250000J0D01*
G01*
X124178000Y-117309000D01*
G75*
G02*
X123928000Y-117059000I0J250000D01*
G01*
X123928000Y-115859000D01*
G75*
G02*
X124178000Y-115609000I250000J0D01*
G01*
G37*
G36*
G01*
X132255000Y-126268000D02*
X130955000Y-126268000D01*
G75*
G02*
X130305000Y-125618000I0J650000D01*
G01*
X130305000Y-124318000D01*
G75*
G02*
X130955000Y-123668000I650000J0D01*
G01*
X132255000Y-123668000D01*
G75*
G02*
X132905000Y-124318000I0J-650000D01*
G01*
X132905000Y-125618000D01*
G75*
G02*
X132255000Y-126268000I-650000J0D01*
G01*
G37*
D13*
X143005000Y-124968000D03*
G36*
G01*
X140555000Y-126268000D02*
X139255000Y-126268000D01*
G75*
G02*
X138605000Y-125618000I0J650000D01*
G01*
X138605000Y-124318000D01*
G75*
G02*
X139255000Y-123668000I650000J0D01*
G01*
X140555000Y-123668000D01*
G75*
G02*
X141205000Y-124318000I0J-650000D01*
G01*
X141205000Y-125618000D01*
G75*
G02*
X140555000Y-126268000I-650000J0D01*
G01*
G37*
G36*
G01*
X127650000Y-123604000D02*
X128950000Y-123604000D01*
G75*
G02*
X129600000Y-124254000I0J-650000D01*
G01*
X129600000Y-125554000D01*
G75*
G02*
X128950000Y-126204000I-650000J0D01*
G01*
X127650000Y-126204000D01*
G75*
G02*
X127000000Y-125554000I0J650000D01*
G01*
X127000000Y-124254000D01*
G75*
G02*
X127650000Y-123604000I650000J0D01*
G01*
G37*
X116900000Y-124904000D03*
G36*
G01*
X119350000Y-123604000D02*
X120650000Y-123604000D01*
G75*
G02*
X121300000Y-124254000I0J-650000D01*
G01*
X121300000Y-125554000D01*
G75*
G02*
X120650000Y-126204000I-650000J0D01*
G01*
X119350000Y-126204000D01*
G75*
G02*
X118700000Y-125554000I0J650000D01*
G01*
X118700000Y-124254000D01*
G75*
G02*
X119350000Y-123604000I650000J0D01*
G01*
G37*
D15*
X120362000Y-59496500D03*
X118162000Y-59496500D03*
X119213000Y-76516000D03*
X117013000Y-76516000D03*
X120073000Y-73566000D03*
X117873000Y-73566000D03*
X139574000Y-76448000D03*
X139574000Y-78648000D03*
X120353000Y-53657500D03*
X118153000Y-53657500D03*
X139603000Y-50027000D03*
X139603000Y-52227000D03*
X139574000Y-72198000D03*
X139574000Y-74398000D03*
X120362000Y-56546500D03*
X118162000Y-56546500D03*
G36*
G01*
X118663000Y-85871000D02*
X118663000Y-84921000D01*
G75*
G02*
X118913000Y-84671000I250000J0D01*
G01*
X119413000Y-84671000D01*
G75*
G02*
X119663000Y-84921000I0J-250000D01*
G01*
X119663000Y-85871000D01*
G75*
G02*
X119413000Y-86121000I-250000J0D01*
G01*
X118913000Y-86121000D01*
G75*
G02*
X118663000Y-85871000I0J250000D01*
G01*
G37*
G36*
G01*
X116763000Y-85871000D02*
X116763000Y-84921000D01*
G75*
G02*
X117013000Y-84671000I250000J0D01*
G01*
X117513000Y-84671000D01*
G75*
G02*
X117763000Y-84921000I0J-250000D01*
G01*
X117763000Y-85871000D01*
G75*
G02*
X117513000Y-86121000I-250000J0D01*
G01*
X117013000Y-86121000D01*
G75*
G02*
X116763000Y-85871000I0J250000D01*
G01*
G37*
G36*
G01*
X140048000Y-68257000D02*
X139098000Y-68257000D01*
G75*
G02*
X138848000Y-68007000I0J250000D01*
G01*
X138848000Y-67507000D01*
G75*
G02*
X139098000Y-67257000I250000J0D01*
G01*
X140048000Y-67257000D01*
G75*
G02*
X140298000Y-67507000I0J-250000D01*
G01*
X140298000Y-68007000D01*
G75*
G02*
X140048000Y-68257000I-250000J0D01*
G01*
G37*
G36*
G01*
X140048000Y-70157000D02*
X139098000Y-70157000D01*
G75*
G02*
X138848000Y-69907000I0J250000D01*
G01*
X138848000Y-69407000D01*
G75*
G02*
X139098000Y-69157000I250000J0D01*
G01*
X140048000Y-69157000D01*
G75*
G02*
X140298000Y-69407000I0J-250000D01*
G01*
X140298000Y-69907000D01*
G75*
G02*
X140048000Y-70157000I-250000J0D01*
G01*
G37*
M02*
