G04 #@! TF.GenerationSoftware,KiCad,Pcbnew,(5.1.10-1-10_14)*
G04 #@! TF.CreationDate,2021-10-11T21:18:44+02:00*
G04 #@! TF.ProjectId,main,6d61696e-2e6b-4696-9361-645f70636258,rev?*
G04 #@! TF.SameCoordinates,Original*
G04 #@! TF.FileFunction,Copper,L1,Top*
G04 #@! TF.FilePolarity,Positive*
%FSLAX46Y46*%
G04 Gerber Fmt 4.6, Leading zero omitted, Abs format (unit mm)*
G04 Created by KiCad (PCBNEW (5.1.10-1-10_14)) date 2021-10-11 21:18:44*
%MOMM*%
%LPD*%
G01*
G04 APERTURE LIST*
G04 #@! TA.AperFunction,ComponentPad*
%ADD10O,2.720000X3.240000*%
G04 #@! TD*
G04 #@! TA.AperFunction,ComponentPad*
%ADD11C,1.800000*%
G04 #@! TD*
G04 #@! TA.AperFunction,ComponentPad*
%ADD12R,1.800000X1.800000*%
G04 #@! TD*
G04 #@! TA.AperFunction,ComponentPad*
%ADD13O,2.300000X3.100000*%
G04 #@! TD*
G04 #@! TA.AperFunction,ComponentPad*
%ADD14C,1.700000*%
G04 #@! TD*
G04 #@! TA.AperFunction,ViaPad*
%ADD15C,0.800000*%
G04 #@! TD*
G04 #@! TA.AperFunction,Conductor*
%ADD16C,0.250000*%
G04 #@! TD*
G04 APERTURE END LIST*
D10*
X125018000Y-87369000D03*
X134618000Y-87369000D03*
D11*
X132318000Y-94869000D03*
X129818000Y-94869000D03*
D12*
X127318000Y-94869000D03*
D10*
X125018000Y-104006000D03*
X134618000Y-104006000D03*
D11*
X132318000Y-111506000D03*
X129818000Y-111506000D03*
D12*
X127318000Y-111506000D03*
D10*
X125144000Y-53460000D03*
X134744000Y-53460000D03*
D11*
X132444000Y-60960000D03*
X129944000Y-60960000D03*
D12*
X127444000Y-60960000D03*
D10*
X125208000Y-71049500D03*
X134808000Y-71049500D03*
D11*
X132508000Y-78549500D03*
X130008000Y-78549500D03*
D12*
X127508000Y-78549500D03*
G04 #@! TA.AperFunction,ComponentPad*
G36*
G01*
X132318000Y-140048000D02*
X131018000Y-140048000D01*
G75*
G02*
X130368000Y-139398000I0J650000D01*
G01*
X130368000Y-138098000D01*
G75*
G02*
X131018000Y-137448000I650000J0D01*
G01*
X132318000Y-137448000D01*
G75*
G02*
X132968000Y-138098000I0J-650000D01*
G01*
X132968000Y-139398000D01*
G75*
G02*
X132318000Y-140048000I-650000J0D01*
G01*
G37*
G04 #@! TD.AperFunction*
D13*
X143068000Y-138748000D03*
G04 #@! TA.AperFunction,ComponentPad*
G36*
G01*
X140618000Y-140048000D02*
X139318000Y-140048000D01*
G75*
G02*
X138668000Y-139398000I0J650000D01*
G01*
X138668000Y-138098000D01*
G75*
G02*
X139318000Y-137448000I650000J0D01*
G01*
X140618000Y-137448000D01*
G75*
G02*
X141268000Y-138098000I0J-650000D01*
G01*
X141268000Y-139398000D01*
G75*
G02*
X140618000Y-140048000I-650000J0D01*
G01*
G37*
G04 #@! TD.AperFunction*
G04 #@! TA.AperFunction,ComponentPad*
G36*
G01*
X127333000Y-137448000D02*
X128633000Y-137448000D01*
G75*
G02*
X129283000Y-138098000I0J-650000D01*
G01*
X129283000Y-139398000D01*
G75*
G02*
X128633000Y-140048000I-650000J0D01*
G01*
X127333000Y-140048000D01*
G75*
G02*
X126683000Y-139398000I0J650000D01*
G01*
X126683000Y-138098000D01*
G75*
G02*
X127333000Y-137448000I650000J0D01*
G01*
G37*
G04 #@! TD.AperFunction*
X116583000Y-138748000D03*
G04 #@! TA.AperFunction,ComponentPad*
G36*
G01*
X119033000Y-137448000D02*
X120333000Y-137448000D01*
G75*
G02*
X120983000Y-138098000I0J-650000D01*
G01*
X120983000Y-139398000D01*
G75*
G02*
X120333000Y-140048000I-650000J0D01*
G01*
X119033000Y-140048000D01*
G75*
G02*
X118383000Y-139398000I0J650000D01*
G01*
X118383000Y-138098000D01*
G75*
G02*
X119033000Y-137448000I650000J0D01*
G01*
G37*
G04 #@! TD.AperFunction*
D14*
X134938000Y-118999000D03*
X132398000Y-118999000D03*
X129858000Y-118999000D03*
X127318000Y-118999000D03*
X124778000Y-118999000D03*
X134938000Y-116459000D03*
X132398000Y-116459000D03*
X129858000Y-116459000D03*
X127318000Y-116459000D03*
G04 #@! TA.AperFunction,ComponentPad*
G36*
G01*
X124178000Y-115609000D02*
X125378000Y-115609000D01*
G75*
G02*
X125628000Y-115859000I0J-250000D01*
G01*
X125628000Y-117059000D01*
G75*
G02*
X125378000Y-117309000I-250000J0D01*
G01*
X124178000Y-117309000D01*
G75*
G02*
X123928000Y-117059000I0J250000D01*
G01*
X123928000Y-115859000D01*
G75*
G02*
X124178000Y-115609000I250000J0D01*
G01*
G37*
G04 #@! TD.AperFunction*
G04 #@! TA.AperFunction,ComponentPad*
G36*
G01*
X132255000Y-126268000D02*
X130955000Y-126268000D01*
G75*
G02*
X130305000Y-125618000I0J650000D01*
G01*
X130305000Y-124318000D01*
G75*
G02*
X130955000Y-123668000I650000J0D01*
G01*
X132255000Y-123668000D01*
G75*
G02*
X132905000Y-124318000I0J-650000D01*
G01*
X132905000Y-125618000D01*
G75*
G02*
X132255000Y-126268000I-650000J0D01*
G01*
G37*
G04 #@! TD.AperFunction*
D13*
X143005000Y-124968000D03*
G04 #@! TA.AperFunction,ComponentPad*
G36*
G01*
X140555000Y-126268000D02*
X139255000Y-126268000D01*
G75*
G02*
X138605000Y-125618000I0J650000D01*
G01*
X138605000Y-124318000D01*
G75*
G02*
X139255000Y-123668000I650000J0D01*
G01*
X140555000Y-123668000D01*
G75*
G02*
X141205000Y-124318000I0J-650000D01*
G01*
X141205000Y-125618000D01*
G75*
G02*
X140555000Y-126268000I-650000J0D01*
G01*
G37*
G04 #@! TD.AperFunction*
G04 #@! TA.AperFunction,ComponentPad*
G36*
G01*
X127650000Y-123604000D02*
X128950000Y-123604000D01*
G75*
G02*
X129600000Y-124254000I0J-650000D01*
G01*
X129600000Y-125554000D01*
G75*
G02*
X128950000Y-126204000I-650000J0D01*
G01*
X127650000Y-126204000D01*
G75*
G02*
X127000000Y-125554000I0J650000D01*
G01*
X127000000Y-124254000D01*
G75*
G02*
X127650000Y-123604000I650000J0D01*
G01*
G37*
G04 #@! TD.AperFunction*
X116900000Y-124904000D03*
G04 #@! TA.AperFunction,ComponentPad*
G36*
G01*
X119350000Y-123604000D02*
X120650000Y-123604000D01*
G75*
G02*
X121300000Y-124254000I0J-650000D01*
G01*
X121300000Y-125554000D01*
G75*
G02*
X120650000Y-126204000I-650000J0D01*
G01*
X119350000Y-126204000D01*
G75*
G02*
X118700000Y-125554000I0J650000D01*
G01*
X118700000Y-124254000D01*
G75*
G02*
X119350000Y-123604000I650000J0D01*
G01*
G37*
G04 #@! TD.AperFunction*
D15*
X117204700Y-87248400D03*
X140683100Y-92753300D03*
X133076000Y-62686800D03*
X139451000Y-77559000D03*
X139011800Y-102348500D03*
X138698900Y-78902900D03*
X128543400Y-101582700D03*
X120620900Y-60865800D03*
X138534200Y-83704000D03*
X141600500Y-64897600D03*
X142048900Y-97556200D03*
X119166600Y-64188300D03*
X119868300Y-93145000D03*
X120353400Y-87500800D03*
D16*
X143005000Y-124968000D02*
X140683100Y-122646100D01*
X140683100Y-122646100D02*
X140683100Y-92753300D01*
X116900000Y-124904000D02*
X116900000Y-123028700D01*
X116900000Y-123028700D02*
X117204700Y-122724000D01*
X117204700Y-122724000D02*
X117204700Y-87248400D01*
X116583000Y-136872700D02*
X116900000Y-136555700D01*
X116900000Y-136555700D02*
X116900000Y-124904000D01*
X143005000Y-125337600D02*
X143005000Y-124968000D01*
X143005000Y-125337600D02*
X143005000Y-126843300D01*
X116583000Y-138748000D02*
X116583000Y-136872700D01*
X143005000Y-126843300D02*
X143068000Y-126906300D01*
X143068000Y-126906300D02*
X143068000Y-138748000D01*
X132398000Y-116459000D02*
X132398000Y-118999000D01*
X129858000Y-116459000D02*
X129858000Y-118999000D01*
X127318000Y-116459000D02*
X127318000Y-118999000D01*
X133076000Y-62686800D02*
X133076000Y-77981500D01*
X133076000Y-77981500D02*
X132508000Y-78549500D01*
X132318000Y-111506000D02*
X139759900Y-104064100D01*
X139759900Y-104064100D02*
X139759900Y-77867900D01*
X139759900Y-77867900D02*
X139451000Y-77559000D01*
X138698900Y-78902900D02*
X139282300Y-79486300D01*
X139282300Y-79486300D02*
X139282300Y-102078000D01*
X139282300Y-102078000D02*
X139011800Y-102348500D01*
X128543400Y-101582700D02*
X128543400Y-94137100D01*
X128543400Y-94137100D02*
X128733400Y-93947100D01*
X128733400Y-93947100D02*
X128733400Y-68978300D01*
X128733400Y-68978300D02*
X120620900Y-60865800D01*
X128300000Y-124904000D02*
X131067900Y-122136100D01*
X131067900Y-122136100D02*
X131067900Y-103020900D01*
X131067900Y-103020900D02*
X138534200Y-95554600D01*
X138534200Y-95554600D02*
X138534200Y-83704000D01*
X142048900Y-97556200D02*
X142048900Y-65346000D01*
X142048900Y-65346000D02*
X141600500Y-64897600D01*
X134938000Y-116459000D02*
X134938000Y-118999000D01*
X124778000Y-116459000D02*
X124778000Y-118999000D01*
X119166600Y-64188300D02*
X119126000Y-64228900D01*
X119126000Y-64228900D02*
X119126000Y-95073200D01*
X119126000Y-95073200D02*
X121949200Y-97896400D01*
X121949200Y-97896400D02*
X121949200Y-132714200D01*
X121949200Y-132714200D02*
X127983000Y-138748000D01*
X127508000Y-79774800D02*
X126950100Y-79774800D01*
X126950100Y-79774800D02*
X119576300Y-87148600D01*
X119576300Y-87148600D02*
X119576300Y-92853000D01*
X119576300Y-92853000D02*
X119868300Y-93145000D01*
X127508000Y-78549500D02*
X127508000Y-79774800D01*
X130008000Y-78549500D02*
X129944000Y-78485500D01*
X129944000Y-78485500D02*
X129944000Y-60960000D01*
X127318000Y-110280700D02*
X122399600Y-105362300D01*
X122399600Y-105362300D02*
X122399600Y-89547000D01*
X122399600Y-89547000D02*
X120353400Y-87500800D01*
X127318000Y-111506000D02*
X127318000Y-110280700D01*
X129818000Y-111506000D02*
X129818000Y-94869000D01*
X127318000Y-111506000D02*
X129818000Y-111506000D01*
M02*
