G04 #@! TF.GenerationSoftware,KiCad,Pcbnew,(5.1.10-1-10_14)*
G04 #@! TF.CreationDate,2021-11-27T15:41:33+01:00*
G04 #@! TF.ProjectId,main,6d61696e-2e6b-4696-9361-645f70636258,rev?*
G04 #@! TF.SameCoordinates,Original*
G04 #@! TF.FileFunction,Soldermask,Bot*
G04 #@! TF.FilePolarity,Negative*
%FSLAX46Y46*%
G04 Gerber Fmt 4.6, Leading zero omitted, Abs format (unit mm)*
G04 Created by KiCad (PCBNEW (5.1.10-1-10_14)) date 2021-11-27 15:41:33*
%MOMM*%
%LPD*%
G01*
G04 APERTURE LIST*
%ADD10O,2.720000X3.240000*%
%ADD11C,1.800000*%
%ADD12R,1.800000X1.800000*%
%ADD13O,2.300000X3.100000*%
%ADD14C,1.700000*%
%ADD15R,0.500000X0.500000*%
G04 APERTURE END LIST*
G36*
G01*
X139286000Y-108392000D02*
X138336000Y-108392000D01*
G75*
G02*
X138086000Y-108142000I0J250000D01*
G01*
X138086000Y-107642000D01*
G75*
G02*
X138336000Y-107392000I250000J0D01*
G01*
X139286000Y-107392000D01*
G75*
G02*
X139536000Y-107642000I0J-250000D01*
G01*
X139536000Y-108142000D01*
G75*
G02*
X139286000Y-108392000I-250000J0D01*
G01*
G37*
G36*
G01*
X139286000Y-110292000D02*
X138336000Y-110292000D01*
G75*
G02*
X138086000Y-110042000I0J250000D01*
G01*
X138086000Y-109542000D01*
G75*
G02*
X138336000Y-109292000I250000J0D01*
G01*
X139286000Y-109292000D01*
G75*
G02*
X139536000Y-109542000I0J-250000D01*
G01*
X139536000Y-110042000D01*
G75*
G02*
X139286000Y-110292000I-250000J0D01*
G01*
G37*
G36*
G01*
X118521000Y-109204000D02*
X117571000Y-109204000D01*
G75*
G02*
X117321000Y-108954000I0J250000D01*
G01*
X117321000Y-108454000D01*
G75*
G02*
X117571000Y-108204000I250000J0D01*
G01*
X118521000Y-108204000D01*
G75*
G02*
X118771000Y-108454000I0J-250000D01*
G01*
X118771000Y-108954000D01*
G75*
G02*
X118521000Y-109204000I-250000J0D01*
G01*
G37*
G36*
G01*
X118521000Y-111104000D02*
X117571000Y-111104000D01*
G75*
G02*
X117321000Y-110854000I0J250000D01*
G01*
X117321000Y-110354000D01*
G75*
G02*
X117571000Y-110104000I250000J0D01*
G01*
X118521000Y-110104000D01*
G75*
G02*
X118771000Y-110354000I0J-250000D01*
G01*
X118771000Y-110854000D01*
G75*
G02*
X118521000Y-111104000I-250000J0D01*
G01*
G37*
G36*
G01*
X139286000Y-104074000D02*
X138336000Y-104074000D01*
G75*
G02*
X138086000Y-103824000I0J250000D01*
G01*
X138086000Y-103324000D01*
G75*
G02*
X138336000Y-103074000I250000J0D01*
G01*
X139286000Y-103074000D01*
G75*
G02*
X139536000Y-103324000I0J-250000D01*
G01*
X139536000Y-103824000D01*
G75*
G02*
X139286000Y-104074000I-250000J0D01*
G01*
G37*
G36*
G01*
X139286000Y-105974000D02*
X138336000Y-105974000D01*
G75*
G02*
X138086000Y-105724000I0J250000D01*
G01*
X138086000Y-105224000D01*
G75*
G02*
X138336000Y-104974000I250000J0D01*
G01*
X139286000Y-104974000D01*
G75*
G02*
X139536000Y-105224000I0J-250000D01*
G01*
X139536000Y-105724000D01*
G75*
G02*
X139286000Y-105974000I-250000J0D01*
G01*
G37*
G36*
G01*
X121506000Y-104960000D02*
X120556000Y-104960000D01*
G75*
G02*
X120306000Y-104710000I0J250000D01*
G01*
X120306000Y-104210000D01*
G75*
G02*
X120556000Y-103960000I250000J0D01*
G01*
X121506000Y-103960000D01*
G75*
G02*
X121756000Y-104210000I0J-250000D01*
G01*
X121756000Y-104710000D01*
G75*
G02*
X121506000Y-104960000I-250000J0D01*
G01*
G37*
G36*
G01*
X121506000Y-106860000D02*
X120556000Y-106860000D01*
G75*
G02*
X120306000Y-106610000I0J250000D01*
G01*
X120306000Y-106110000D01*
G75*
G02*
X120556000Y-105860000I250000J0D01*
G01*
X121506000Y-105860000D01*
G75*
G02*
X121756000Y-106110000I0J-250000D01*
G01*
X121756000Y-106610000D01*
G75*
G02*
X121506000Y-106860000I-250000J0D01*
G01*
G37*
G36*
G01*
X142461000Y-104130000D02*
X141511000Y-104130000D01*
G75*
G02*
X141261000Y-103880000I0J250000D01*
G01*
X141261000Y-103380000D01*
G75*
G02*
X141511000Y-103130000I250000J0D01*
G01*
X142461000Y-103130000D01*
G75*
G02*
X142711000Y-103380000I0J-250000D01*
G01*
X142711000Y-103880000D01*
G75*
G02*
X142461000Y-104130000I-250000J0D01*
G01*
G37*
G36*
G01*
X142461000Y-106030000D02*
X141511000Y-106030000D01*
G75*
G02*
X141261000Y-105780000I0J250000D01*
G01*
X141261000Y-105280000D01*
G75*
G02*
X141511000Y-105030000I250000J0D01*
G01*
X142461000Y-105030000D01*
G75*
G02*
X142711000Y-105280000I0J-250000D01*
G01*
X142711000Y-105780000D01*
G75*
G02*
X142461000Y-106030000I-250000J0D01*
G01*
G37*
G36*
G01*
X118585000Y-104833000D02*
X117635000Y-104833000D01*
G75*
G02*
X117385000Y-104583000I0J250000D01*
G01*
X117385000Y-104083000D01*
G75*
G02*
X117635000Y-103833000I250000J0D01*
G01*
X118585000Y-103833000D01*
G75*
G02*
X118835000Y-104083000I0J-250000D01*
G01*
X118835000Y-104583000D01*
G75*
G02*
X118585000Y-104833000I-250000J0D01*
G01*
G37*
G36*
G01*
X118585000Y-106733000D02*
X117635000Y-106733000D01*
G75*
G02*
X117385000Y-106483000I0J250000D01*
G01*
X117385000Y-105983000D01*
G75*
G02*
X117635000Y-105733000I250000J0D01*
G01*
X118585000Y-105733000D01*
G75*
G02*
X118835000Y-105983000I0J-250000D01*
G01*
X118835000Y-106483000D01*
G75*
G02*
X118585000Y-106733000I-250000J0D01*
G01*
G37*
G36*
G01*
X142461000Y-108580000D02*
X141511000Y-108580000D01*
G75*
G02*
X141261000Y-108330000I0J250000D01*
G01*
X141261000Y-107830000D01*
G75*
G02*
X141511000Y-107580000I250000J0D01*
G01*
X142461000Y-107580000D01*
G75*
G02*
X142711000Y-107830000I0J-250000D01*
G01*
X142711000Y-108330000D01*
G75*
G02*
X142461000Y-108580000I-250000J0D01*
G01*
G37*
G36*
G01*
X142461000Y-110480000D02*
X141511000Y-110480000D01*
G75*
G02*
X141261000Y-110230000I0J250000D01*
G01*
X141261000Y-109730000D01*
G75*
G02*
X141511000Y-109480000I250000J0D01*
G01*
X142461000Y-109480000D01*
G75*
G02*
X142711000Y-109730000I0J-250000D01*
G01*
X142711000Y-110230000D01*
G75*
G02*
X142461000Y-110480000I-250000J0D01*
G01*
G37*
G36*
G01*
X142199000Y-95972500D02*
X141899000Y-95972500D01*
G75*
G02*
X141749000Y-95822500I0J150000D01*
G01*
X141749000Y-94172500D01*
G75*
G02*
X141899000Y-94022500I150000J0D01*
G01*
X142199000Y-94022500D01*
G75*
G02*
X142349000Y-94172500I0J-150000D01*
G01*
X142349000Y-95822500D01*
G75*
G02*
X142199000Y-95972500I-150000J0D01*
G01*
G37*
G36*
G01*
X140929000Y-95972500D02*
X140629000Y-95972500D01*
G75*
G02*
X140479000Y-95822500I0J150000D01*
G01*
X140479000Y-94172500D01*
G75*
G02*
X140629000Y-94022500I150000J0D01*
G01*
X140929000Y-94022500D01*
G75*
G02*
X141079000Y-94172500I0J-150000D01*
G01*
X141079000Y-95822500D01*
G75*
G02*
X140929000Y-95972500I-150000J0D01*
G01*
G37*
G36*
G01*
X139659000Y-95972500D02*
X139359000Y-95972500D01*
G75*
G02*
X139209000Y-95822500I0J150000D01*
G01*
X139209000Y-94172500D01*
G75*
G02*
X139359000Y-94022500I150000J0D01*
G01*
X139659000Y-94022500D01*
G75*
G02*
X139809000Y-94172500I0J-150000D01*
G01*
X139809000Y-95822500D01*
G75*
G02*
X139659000Y-95972500I-150000J0D01*
G01*
G37*
G36*
G01*
X138389000Y-95972500D02*
X138089000Y-95972500D01*
G75*
G02*
X137939000Y-95822500I0J150000D01*
G01*
X137939000Y-94172500D01*
G75*
G02*
X138089000Y-94022500I150000J0D01*
G01*
X138389000Y-94022500D01*
G75*
G02*
X138539000Y-94172500I0J-150000D01*
G01*
X138539000Y-95822500D01*
G75*
G02*
X138389000Y-95972500I-150000J0D01*
G01*
G37*
G36*
G01*
X138389000Y-100922500D02*
X138089000Y-100922500D01*
G75*
G02*
X137939000Y-100772500I0J150000D01*
G01*
X137939000Y-99122500D01*
G75*
G02*
X138089000Y-98972500I150000J0D01*
G01*
X138389000Y-98972500D01*
G75*
G02*
X138539000Y-99122500I0J-150000D01*
G01*
X138539000Y-100772500D01*
G75*
G02*
X138389000Y-100922500I-150000J0D01*
G01*
G37*
G36*
G01*
X139659000Y-100922500D02*
X139359000Y-100922500D01*
G75*
G02*
X139209000Y-100772500I0J150000D01*
G01*
X139209000Y-99122500D01*
G75*
G02*
X139359000Y-98972500I150000J0D01*
G01*
X139659000Y-98972500D01*
G75*
G02*
X139809000Y-99122500I0J-150000D01*
G01*
X139809000Y-100772500D01*
G75*
G02*
X139659000Y-100922500I-150000J0D01*
G01*
G37*
G36*
G01*
X140929000Y-100922500D02*
X140629000Y-100922500D01*
G75*
G02*
X140479000Y-100772500I0J150000D01*
G01*
X140479000Y-99122500D01*
G75*
G02*
X140629000Y-98972500I150000J0D01*
G01*
X140929000Y-98972500D01*
G75*
G02*
X141079000Y-99122500I0J-150000D01*
G01*
X141079000Y-100772500D01*
G75*
G02*
X140929000Y-100922500I-150000J0D01*
G01*
G37*
G36*
G01*
X142199000Y-100922500D02*
X141899000Y-100922500D01*
G75*
G02*
X141749000Y-100772500I0J150000D01*
G01*
X141749000Y-99122500D01*
G75*
G02*
X141899000Y-98972500I150000J0D01*
G01*
X142199000Y-98972500D01*
G75*
G02*
X142349000Y-99122500I0J-150000D01*
G01*
X142349000Y-100772500D01*
G75*
G02*
X142199000Y-100922500I-150000J0D01*
G01*
G37*
G36*
G01*
X121879000Y-96417000D02*
X121579000Y-96417000D01*
G75*
G02*
X121429000Y-96267000I0J150000D01*
G01*
X121429000Y-94617000D01*
G75*
G02*
X121579000Y-94467000I150000J0D01*
G01*
X121879000Y-94467000D01*
G75*
G02*
X122029000Y-94617000I0J-150000D01*
G01*
X122029000Y-96267000D01*
G75*
G02*
X121879000Y-96417000I-150000J0D01*
G01*
G37*
G36*
G01*
X120609000Y-96417000D02*
X120309000Y-96417000D01*
G75*
G02*
X120159000Y-96267000I0J150000D01*
G01*
X120159000Y-94617000D01*
G75*
G02*
X120309000Y-94467000I150000J0D01*
G01*
X120609000Y-94467000D01*
G75*
G02*
X120759000Y-94617000I0J-150000D01*
G01*
X120759000Y-96267000D01*
G75*
G02*
X120609000Y-96417000I-150000J0D01*
G01*
G37*
G36*
G01*
X119339000Y-96417000D02*
X119039000Y-96417000D01*
G75*
G02*
X118889000Y-96267000I0J150000D01*
G01*
X118889000Y-94617000D01*
G75*
G02*
X119039000Y-94467000I150000J0D01*
G01*
X119339000Y-94467000D01*
G75*
G02*
X119489000Y-94617000I0J-150000D01*
G01*
X119489000Y-96267000D01*
G75*
G02*
X119339000Y-96417000I-150000J0D01*
G01*
G37*
G36*
G01*
X118069000Y-96417000D02*
X117769000Y-96417000D01*
G75*
G02*
X117619000Y-96267000I0J150000D01*
G01*
X117619000Y-94617000D01*
G75*
G02*
X117769000Y-94467000I150000J0D01*
G01*
X118069000Y-94467000D01*
G75*
G02*
X118219000Y-94617000I0J-150000D01*
G01*
X118219000Y-96267000D01*
G75*
G02*
X118069000Y-96417000I-150000J0D01*
G01*
G37*
G36*
G01*
X118069000Y-101367000D02*
X117769000Y-101367000D01*
G75*
G02*
X117619000Y-101217000I0J150000D01*
G01*
X117619000Y-99567000D01*
G75*
G02*
X117769000Y-99417000I150000J0D01*
G01*
X118069000Y-99417000D01*
G75*
G02*
X118219000Y-99567000I0J-150000D01*
G01*
X118219000Y-101217000D01*
G75*
G02*
X118069000Y-101367000I-150000J0D01*
G01*
G37*
G36*
G01*
X119339000Y-101367000D02*
X119039000Y-101367000D01*
G75*
G02*
X118889000Y-101217000I0J150000D01*
G01*
X118889000Y-99567000D01*
G75*
G02*
X119039000Y-99417000I150000J0D01*
G01*
X119339000Y-99417000D01*
G75*
G02*
X119489000Y-99567000I0J-150000D01*
G01*
X119489000Y-101217000D01*
G75*
G02*
X119339000Y-101367000I-150000J0D01*
G01*
G37*
G36*
G01*
X120609000Y-101367000D02*
X120309000Y-101367000D01*
G75*
G02*
X120159000Y-101217000I0J150000D01*
G01*
X120159000Y-99567000D01*
G75*
G02*
X120309000Y-99417000I150000J0D01*
G01*
X120609000Y-99417000D01*
G75*
G02*
X120759000Y-99567000I0J-150000D01*
G01*
X120759000Y-101217000D01*
G75*
G02*
X120609000Y-101367000I-150000J0D01*
G01*
G37*
G36*
G01*
X121879000Y-101367000D02*
X121579000Y-101367000D01*
G75*
G02*
X121429000Y-101217000I0J150000D01*
G01*
X121429000Y-99567000D01*
G75*
G02*
X121579000Y-99417000I150000J0D01*
G01*
X121879000Y-99417000D01*
G75*
G02*
X122029000Y-99567000I0J-150000D01*
G01*
X122029000Y-101217000D01*
G75*
G02*
X121879000Y-101367000I-150000J0D01*
G01*
G37*
D10*
X125018000Y-87369000D03*
X134618000Y-87369000D03*
D11*
X132318000Y-94869000D03*
X129818000Y-94869000D03*
D12*
X127318000Y-94869000D03*
D10*
X125018000Y-104006000D03*
X134618000Y-104006000D03*
D11*
X132318000Y-111506000D03*
X129818000Y-111506000D03*
D12*
X127318000Y-111506000D03*
D10*
X125144000Y-53460000D03*
X134744000Y-53460000D03*
D11*
X132444000Y-60960000D03*
X129944000Y-60960000D03*
D12*
X127444000Y-60960000D03*
D10*
X125208000Y-71049500D03*
X134808000Y-71049500D03*
D11*
X132508000Y-78549500D03*
X130008000Y-78549500D03*
D12*
X127508000Y-78549500D03*
G36*
G01*
X141014002Y-55374500D02*
X140113998Y-55374500D01*
G75*
G02*
X139864000Y-55124502I0J249998D01*
G01*
X139864000Y-54599498D01*
G75*
G02*
X140113998Y-54349500I249998J0D01*
G01*
X141014002Y-54349500D01*
G75*
G02*
X141264000Y-54599498I0J-249998D01*
G01*
X141264000Y-55124502D01*
G75*
G02*
X141014002Y-55374500I-249998J0D01*
G01*
G37*
G36*
G01*
X141014002Y-57199500D02*
X140113998Y-57199500D01*
G75*
G02*
X139864000Y-56949502I0J249998D01*
G01*
X139864000Y-56424498D01*
G75*
G02*
X140113998Y-56174500I249998J0D01*
G01*
X141014002Y-56174500D01*
G75*
G02*
X141264000Y-56424498I0J-249998D01*
G01*
X141264000Y-56949502D01*
G75*
G02*
X141014002Y-57199500I-249998J0D01*
G01*
G37*
G36*
G01*
X118593000Y-62896502D02*
X118593000Y-61996498D01*
G75*
G02*
X118842998Y-61746500I249998J0D01*
G01*
X119368002Y-61746500D01*
G75*
G02*
X119618000Y-61996498I0J-249998D01*
G01*
X119618000Y-62896502D01*
G75*
G02*
X119368002Y-63146500I-249998J0D01*
G01*
X118842998Y-63146500D01*
G75*
G02*
X118593000Y-62896502I0J249998D01*
G01*
G37*
G36*
G01*
X116768000Y-62896502D02*
X116768000Y-61996498D01*
G75*
G02*
X117017998Y-61746500I249998J0D01*
G01*
X117543002Y-61746500D01*
G75*
G02*
X117793000Y-61996498I0J-249998D01*
G01*
X117793000Y-62896502D01*
G75*
G02*
X117543002Y-63146500I-249998J0D01*
G01*
X117017998Y-63146500D01*
G75*
G02*
X116768000Y-62896502I0J249998D01*
G01*
G37*
G36*
G01*
X141014002Y-59784500D02*
X140113998Y-59784500D01*
G75*
G02*
X139864000Y-59534502I0J249998D01*
G01*
X139864000Y-59009498D01*
G75*
G02*
X140113998Y-58759500I249998J0D01*
G01*
X141014002Y-58759500D01*
G75*
G02*
X141264000Y-59009498I0J-249998D01*
G01*
X141264000Y-59534502D01*
G75*
G02*
X141014002Y-59784500I-249998J0D01*
G01*
G37*
G36*
G01*
X141014002Y-61609500D02*
X140113998Y-61609500D01*
G75*
G02*
X139864000Y-61359502I0J249998D01*
G01*
X139864000Y-60834498D01*
G75*
G02*
X140113998Y-60584500I249998J0D01*
G01*
X141014002Y-60584500D01*
G75*
G02*
X141264000Y-60834498I0J-249998D01*
G01*
X141264000Y-61359502D01*
G75*
G02*
X141014002Y-61609500I-249998J0D01*
G01*
G37*
G36*
G01*
X118593000Y-79916002D02*
X118593000Y-79015998D01*
G75*
G02*
X118842998Y-78766000I249998J0D01*
G01*
X119368002Y-78766000D01*
G75*
G02*
X119618000Y-79015998I0J-249998D01*
G01*
X119618000Y-79916002D01*
G75*
G02*
X119368002Y-80166000I-249998J0D01*
G01*
X118842998Y-80166000D01*
G75*
G02*
X118593000Y-79916002I0J249998D01*
G01*
G37*
G36*
G01*
X116768000Y-79916002D02*
X116768000Y-79015998D01*
G75*
G02*
X117017998Y-78766000I249998J0D01*
G01*
X117543002Y-78766000D01*
G75*
G02*
X117793000Y-79015998I0J-249998D01*
G01*
X117793000Y-79916002D01*
G75*
G02*
X117543002Y-80166000I-249998J0D01*
G01*
X117017998Y-80166000D01*
G75*
G02*
X116768000Y-79916002I0J249998D01*
G01*
G37*
G36*
G01*
X141014002Y-86205500D02*
X140113998Y-86205500D01*
G75*
G02*
X139864000Y-85955502I0J249998D01*
G01*
X139864000Y-85430498D01*
G75*
G02*
X140113998Y-85180500I249998J0D01*
G01*
X141014002Y-85180500D01*
G75*
G02*
X141264000Y-85430498I0J-249998D01*
G01*
X141264000Y-85955502D01*
G75*
G02*
X141014002Y-86205500I-249998J0D01*
G01*
G37*
G36*
G01*
X141014002Y-88030500D02*
X140113998Y-88030500D01*
G75*
G02*
X139864000Y-87780502I0J249998D01*
G01*
X139864000Y-87255498D01*
G75*
G02*
X140113998Y-87005500I249998J0D01*
G01*
X141014002Y-87005500D01*
G75*
G02*
X141264000Y-87255498I0J-249998D01*
G01*
X141264000Y-87780502D01*
G75*
G02*
X141014002Y-88030500I-249998J0D01*
G01*
G37*
G36*
G01*
X118593000Y-65846502D02*
X118593000Y-64946498D01*
G75*
G02*
X118842998Y-64696500I249998J0D01*
G01*
X119368002Y-64696500D01*
G75*
G02*
X119618000Y-64946498I0J-249998D01*
G01*
X119618000Y-65846502D01*
G75*
G02*
X119368002Y-66096500I-249998J0D01*
G01*
X118842998Y-66096500D01*
G75*
G02*
X118593000Y-65846502I0J249998D01*
G01*
G37*
G36*
G01*
X116768000Y-65846502D02*
X116768000Y-64946498D01*
G75*
G02*
X117017998Y-64696500I249998J0D01*
G01*
X117543002Y-64696500D01*
G75*
G02*
X117793000Y-64946498I0J-249998D01*
G01*
X117793000Y-65846502D01*
G75*
G02*
X117543002Y-66096500I-249998J0D01*
G01*
X117017998Y-66096500D01*
G75*
G02*
X116768000Y-65846502I0J249998D01*
G01*
G37*
G36*
G01*
X141014002Y-90615500D02*
X140113998Y-90615500D01*
G75*
G02*
X139864000Y-90365502I0J249998D01*
G01*
X139864000Y-89840498D01*
G75*
G02*
X140113998Y-89590500I249998J0D01*
G01*
X141014002Y-89590500D01*
G75*
G02*
X141264000Y-89840498I0J-249998D01*
G01*
X141264000Y-90365502D01*
G75*
G02*
X141014002Y-90615500I-249998J0D01*
G01*
G37*
G36*
G01*
X141014002Y-92440500D02*
X140113998Y-92440500D01*
G75*
G02*
X139864000Y-92190502I0J249998D01*
G01*
X139864000Y-91665498D01*
G75*
G02*
X140113998Y-91415500I249998J0D01*
G01*
X141014002Y-91415500D01*
G75*
G02*
X141264000Y-91665498I0J-249998D01*
G01*
X141264000Y-92190502D01*
G75*
G02*
X141014002Y-92440500I-249998J0D01*
G01*
G37*
G36*
G01*
X118593000Y-82866002D02*
X118593000Y-81965998D01*
G75*
G02*
X118842998Y-81716000I249998J0D01*
G01*
X119368002Y-81716000D01*
G75*
G02*
X119618000Y-81965998I0J-249998D01*
G01*
X119618000Y-82866002D01*
G75*
G02*
X119368002Y-83116000I-249998J0D01*
G01*
X118842998Y-83116000D01*
G75*
G02*
X118593000Y-82866002I0J249998D01*
G01*
G37*
G36*
G01*
X116768000Y-82866002D02*
X116768000Y-81965998D01*
G75*
G02*
X117017998Y-81716000I249998J0D01*
G01*
X117543002Y-81716000D01*
G75*
G02*
X117793000Y-81965998I0J-249998D01*
G01*
X117793000Y-82866002D01*
G75*
G02*
X117543002Y-83116000I-249998J0D01*
G01*
X117017998Y-83116000D01*
G75*
G02*
X116768000Y-82866002I0J249998D01*
G01*
G37*
G36*
G01*
X141014002Y-64194500D02*
X140113998Y-64194500D01*
G75*
G02*
X139864000Y-63944502I0J249998D01*
G01*
X139864000Y-63419498D01*
G75*
G02*
X140113998Y-63169500I249998J0D01*
G01*
X141014002Y-63169500D01*
G75*
G02*
X141264000Y-63419498I0J-249998D01*
G01*
X141264000Y-63944502D01*
G75*
G02*
X141014002Y-64194500I-249998J0D01*
G01*
G37*
G36*
G01*
X141014002Y-66019500D02*
X140113998Y-66019500D01*
G75*
G02*
X139864000Y-65769502I0J249998D01*
G01*
X139864000Y-65244498D01*
G75*
G02*
X140113998Y-64994500I249998J0D01*
G01*
X141014002Y-64994500D01*
G75*
G02*
X141264000Y-65244498I0J-249998D01*
G01*
X141264000Y-65769502D01*
G75*
G02*
X141014002Y-66019500I-249998J0D01*
G01*
G37*
G36*
G01*
X141014002Y-81795500D02*
X140113998Y-81795500D01*
G75*
G02*
X139864000Y-81545502I0J249998D01*
G01*
X139864000Y-81020498D01*
G75*
G02*
X140113998Y-80770500I249998J0D01*
G01*
X141014002Y-80770500D01*
G75*
G02*
X141264000Y-81020498I0J-249998D01*
G01*
X141264000Y-81545502D01*
G75*
G02*
X141014002Y-81795500I-249998J0D01*
G01*
G37*
G36*
G01*
X141014002Y-83620500D02*
X140113998Y-83620500D01*
G75*
G02*
X139864000Y-83370502I0J249998D01*
G01*
X139864000Y-82845498D01*
G75*
G02*
X140113998Y-82595500I249998J0D01*
G01*
X141014002Y-82595500D01*
G75*
G02*
X141264000Y-82845498I0J-249998D01*
G01*
X141264000Y-83370502D01*
G75*
G02*
X141014002Y-83620500I-249998J0D01*
G01*
G37*
G36*
G01*
X132318000Y-140048000D02*
X131018000Y-140048000D01*
G75*
G02*
X130368000Y-139398000I0J650000D01*
G01*
X130368000Y-138098000D01*
G75*
G02*
X131018000Y-137448000I650000J0D01*
G01*
X132318000Y-137448000D01*
G75*
G02*
X132968000Y-138098000I0J-650000D01*
G01*
X132968000Y-139398000D01*
G75*
G02*
X132318000Y-140048000I-650000J0D01*
G01*
G37*
D13*
X143068000Y-138748000D03*
G36*
G01*
X140618000Y-140048000D02*
X139318000Y-140048000D01*
G75*
G02*
X138668000Y-139398000I0J650000D01*
G01*
X138668000Y-138098000D01*
G75*
G02*
X139318000Y-137448000I650000J0D01*
G01*
X140618000Y-137448000D01*
G75*
G02*
X141268000Y-138098000I0J-650000D01*
G01*
X141268000Y-139398000D01*
G75*
G02*
X140618000Y-140048000I-650000J0D01*
G01*
G37*
G36*
G01*
X127333000Y-137448000D02*
X128633000Y-137448000D01*
G75*
G02*
X129283000Y-138098000I0J-650000D01*
G01*
X129283000Y-139398000D01*
G75*
G02*
X128633000Y-140048000I-650000J0D01*
G01*
X127333000Y-140048000D01*
G75*
G02*
X126683000Y-139398000I0J650000D01*
G01*
X126683000Y-138098000D01*
G75*
G02*
X127333000Y-137448000I650000J0D01*
G01*
G37*
X116583000Y-138748000D03*
G36*
G01*
X119033000Y-137448000D02*
X120333000Y-137448000D01*
G75*
G02*
X120983000Y-138098000I0J-650000D01*
G01*
X120983000Y-139398000D01*
G75*
G02*
X120333000Y-140048000I-650000J0D01*
G01*
X119033000Y-140048000D01*
G75*
G02*
X118383000Y-139398000I0J650000D01*
G01*
X118383000Y-138098000D01*
G75*
G02*
X119033000Y-137448000I650000J0D01*
G01*
G37*
D14*
X134938000Y-118999000D03*
X132398000Y-118999000D03*
X129858000Y-118999000D03*
X127318000Y-118999000D03*
X124778000Y-118999000D03*
X134938000Y-116459000D03*
X132398000Y-116459000D03*
X129858000Y-116459000D03*
X127318000Y-116459000D03*
G36*
G01*
X124178000Y-115609000D02*
X125378000Y-115609000D01*
G75*
G02*
X125628000Y-115859000I0J-250000D01*
G01*
X125628000Y-117059000D01*
G75*
G02*
X125378000Y-117309000I-250000J0D01*
G01*
X124178000Y-117309000D01*
G75*
G02*
X123928000Y-117059000I0J250000D01*
G01*
X123928000Y-115859000D01*
G75*
G02*
X124178000Y-115609000I250000J0D01*
G01*
G37*
G36*
G01*
X132255000Y-126268000D02*
X130955000Y-126268000D01*
G75*
G02*
X130305000Y-125618000I0J650000D01*
G01*
X130305000Y-124318000D01*
G75*
G02*
X130955000Y-123668000I650000J0D01*
G01*
X132255000Y-123668000D01*
G75*
G02*
X132905000Y-124318000I0J-650000D01*
G01*
X132905000Y-125618000D01*
G75*
G02*
X132255000Y-126268000I-650000J0D01*
G01*
G37*
D13*
X143005000Y-124968000D03*
G36*
G01*
X140555000Y-126268000D02*
X139255000Y-126268000D01*
G75*
G02*
X138605000Y-125618000I0J650000D01*
G01*
X138605000Y-124318000D01*
G75*
G02*
X139255000Y-123668000I650000J0D01*
G01*
X140555000Y-123668000D01*
G75*
G02*
X141205000Y-124318000I0J-650000D01*
G01*
X141205000Y-125618000D01*
G75*
G02*
X140555000Y-126268000I-650000J0D01*
G01*
G37*
G36*
G01*
X127650000Y-123604000D02*
X128950000Y-123604000D01*
G75*
G02*
X129600000Y-124254000I0J-650000D01*
G01*
X129600000Y-125554000D01*
G75*
G02*
X128950000Y-126204000I-650000J0D01*
G01*
X127650000Y-126204000D01*
G75*
G02*
X127000000Y-125554000I0J650000D01*
G01*
X127000000Y-124254000D01*
G75*
G02*
X127650000Y-123604000I650000J0D01*
G01*
G37*
X116900000Y-124904000D03*
G36*
G01*
X119350000Y-123604000D02*
X120650000Y-123604000D01*
G75*
G02*
X121300000Y-124254000I0J-650000D01*
G01*
X121300000Y-125554000D01*
G75*
G02*
X120650000Y-126204000I-650000J0D01*
G01*
X119350000Y-126204000D01*
G75*
G02*
X118700000Y-125554000I0J650000D01*
G01*
X118700000Y-124254000D01*
G75*
G02*
X119350000Y-123604000I650000J0D01*
G01*
G37*
D15*
X119293000Y-59496500D03*
X117093000Y-59496500D03*
X119293000Y-76516000D03*
X117093000Y-76516000D03*
X119293000Y-73566000D03*
X117093000Y-73566000D03*
X140564000Y-76765500D03*
X140564000Y-78965500D03*
X119293000Y-53657500D03*
X117093000Y-53657500D03*
X140564000Y-50344500D03*
X140564000Y-52544500D03*
X140564000Y-72515500D03*
X140564000Y-74715500D03*
X119293000Y-56546500D03*
X117093000Y-56546500D03*
G36*
G01*
X141039000Y-68574500D02*
X140089000Y-68574500D01*
G75*
G02*
X139839000Y-68324500I0J250000D01*
G01*
X139839000Y-67824500D01*
G75*
G02*
X140089000Y-67574500I250000J0D01*
G01*
X141039000Y-67574500D01*
G75*
G02*
X141289000Y-67824500I0J-250000D01*
G01*
X141289000Y-68324500D01*
G75*
G02*
X141039000Y-68574500I-250000J0D01*
G01*
G37*
G36*
G01*
X141039000Y-70474500D02*
X140089000Y-70474500D01*
G75*
G02*
X139839000Y-70224500I0J250000D01*
G01*
X139839000Y-69724500D01*
G75*
G02*
X140089000Y-69474500I250000J0D01*
G01*
X141039000Y-69474500D01*
G75*
G02*
X141289000Y-69724500I0J-250000D01*
G01*
X141289000Y-70224500D01*
G75*
G02*
X141039000Y-70474500I-250000J0D01*
G01*
G37*
M02*
