G04 #@! TF.GenerationSoftware,KiCad,Pcbnew,(5.1.10-1-10_14)*
G04 #@! TF.CreationDate,2021-10-11T21:18:44+02:00*
G04 #@! TF.ProjectId,main,6d61696e-2e6b-4696-9361-645f70636258,rev?*
G04 #@! TF.SameCoordinates,Original*
G04 #@! TF.FileFunction,Copper,L2,Bot*
G04 #@! TF.FilePolarity,Positive*
%FSLAX46Y46*%
G04 Gerber Fmt 4.6, Leading zero omitted, Abs format (unit mm)*
G04 Created by KiCad (PCBNEW (5.1.10-1-10_14)) date 2021-10-11 21:18:44*
%MOMM*%
%LPD*%
G01*
G04 APERTURE LIST*
G04 #@! TA.AperFunction,ComponentPad*
%ADD10O,2.720000X3.240000*%
G04 #@! TD*
G04 #@! TA.AperFunction,ComponentPad*
%ADD11C,1.800000*%
G04 #@! TD*
G04 #@! TA.AperFunction,ComponentPad*
%ADD12R,1.800000X1.800000*%
G04 #@! TD*
G04 #@! TA.AperFunction,ComponentPad*
%ADD13O,2.300000X3.100000*%
G04 #@! TD*
G04 #@! TA.AperFunction,ComponentPad*
%ADD14C,1.700000*%
G04 #@! TD*
G04 #@! TA.AperFunction,SMDPad,CuDef*
%ADD15R,0.500000X0.500000*%
G04 #@! TD*
G04 #@! TA.AperFunction,ViaPad*
%ADD16C,0.800000*%
G04 #@! TD*
G04 #@! TA.AperFunction,Conductor*
%ADD17C,0.250000*%
G04 #@! TD*
G04 APERTURE END LIST*
G04 #@! TA.AperFunction,SMDPad,CuDef*
G36*
G01*
X142199000Y-95972500D02*
X141899000Y-95972500D01*
G75*
G02*
X141749000Y-95822500I0J150000D01*
G01*
X141749000Y-94172500D01*
G75*
G02*
X141899000Y-94022500I150000J0D01*
G01*
X142199000Y-94022500D01*
G75*
G02*
X142349000Y-94172500I0J-150000D01*
G01*
X142349000Y-95822500D01*
G75*
G02*
X142199000Y-95972500I-150000J0D01*
G01*
G37*
G04 #@! TD.AperFunction*
G04 #@! TA.AperFunction,SMDPad,CuDef*
G36*
G01*
X140929000Y-95972500D02*
X140629000Y-95972500D01*
G75*
G02*
X140479000Y-95822500I0J150000D01*
G01*
X140479000Y-94172500D01*
G75*
G02*
X140629000Y-94022500I150000J0D01*
G01*
X140929000Y-94022500D01*
G75*
G02*
X141079000Y-94172500I0J-150000D01*
G01*
X141079000Y-95822500D01*
G75*
G02*
X140929000Y-95972500I-150000J0D01*
G01*
G37*
G04 #@! TD.AperFunction*
G04 #@! TA.AperFunction,SMDPad,CuDef*
G36*
G01*
X139659000Y-95972500D02*
X139359000Y-95972500D01*
G75*
G02*
X139209000Y-95822500I0J150000D01*
G01*
X139209000Y-94172500D01*
G75*
G02*
X139359000Y-94022500I150000J0D01*
G01*
X139659000Y-94022500D01*
G75*
G02*
X139809000Y-94172500I0J-150000D01*
G01*
X139809000Y-95822500D01*
G75*
G02*
X139659000Y-95972500I-150000J0D01*
G01*
G37*
G04 #@! TD.AperFunction*
G04 #@! TA.AperFunction,SMDPad,CuDef*
G36*
G01*
X138389000Y-95972500D02*
X138089000Y-95972500D01*
G75*
G02*
X137939000Y-95822500I0J150000D01*
G01*
X137939000Y-94172500D01*
G75*
G02*
X138089000Y-94022500I150000J0D01*
G01*
X138389000Y-94022500D01*
G75*
G02*
X138539000Y-94172500I0J-150000D01*
G01*
X138539000Y-95822500D01*
G75*
G02*
X138389000Y-95972500I-150000J0D01*
G01*
G37*
G04 #@! TD.AperFunction*
G04 #@! TA.AperFunction,SMDPad,CuDef*
G36*
G01*
X138389000Y-100922500D02*
X138089000Y-100922500D01*
G75*
G02*
X137939000Y-100772500I0J150000D01*
G01*
X137939000Y-99122500D01*
G75*
G02*
X138089000Y-98972500I150000J0D01*
G01*
X138389000Y-98972500D01*
G75*
G02*
X138539000Y-99122500I0J-150000D01*
G01*
X138539000Y-100772500D01*
G75*
G02*
X138389000Y-100922500I-150000J0D01*
G01*
G37*
G04 #@! TD.AperFunction*
G04 #@! TA.AperFunction,SMDPad,CuDef*
G36*
G01*
X139659000Y-100922500D02*
X139359000Y-100922500D01*
G75*
G02*
X139209000Y-100772500I0J150000D01*
G01*
X139209000Y-99122500D01*
G75*
G02*
X139359000Y-98972500I150000J0D01*
G01*
X139659000Y-98972500D01*
G75*
G02*
X139809000Y-99122500I0J-150000D01*
G01*
X139809000Y-100772500D01*
G75*
G02*
X139659000Y-100922500I-150000J0D01*
G01*
G37*
G04 #@! TD.AperFunction*
G04 #@! TA.AperFunction,SMDPad,CuDef*
G36*
G01*
X140929000Y-100922500D02*
X140629000Y-100922500D01*
G75*
G02*
X140479000Y-100772500I0J150000D01*
G01*
X140479000Y-99122500D01*
G75*
G02*
X140629000Y-98972500I150000J0D01*
G01*
X140929000Y-98972500D01*
G75*
G02*
X141079000Y-99122500I0J-150000D01*
G01*
X141079000Y-100772500D01*
G75*
G02*
X140929000Y-100922500I-150000J0D01*
G01*
G37*
G04 #@! TD.AperFunction*
G04 #@! TA.AperFunction,SMDPad,CuDef*
G36*
G01*
X142199000Y-100922500D02*
X141899000Y-100922500D01*
G75*
G02*
X141749000Y-100772500I0J150000D01*
G01*
X141749000Y-99122500D01*
G75*
G02*
X141899000Y-98972500I150000J0D01*
G01*
X142199000Y-98972500D01*
G75*
G02*
X142349000Y-99122500I0J-150000D01*
G01*
X142349000Y-100772500D01*
G75*
G02*
X142199000Y-100922500I-150000J0D01*
G01*
G37*
G04 #@! TD.AperFunction*
G04 #@! TA.AperFunction,SMDPad,CuDef*
G36*
G01*
X121879000Y-96417000D02*
X121579000Y-96417000D01*
G75*
G02*
X121429000Y-96267000I0J150000D01*
G01*
X121429000Y-94617000D01*
G75*
G02*
X121579000Y-94467000I150000J0D01*
G01*
X121879000Y-94467000D01*
G75*
G02*
X122029000Y-94617000I0J-150000D01*
G01*
X122029000Y-96267000D01*
G75*
G02*
X121879000Y-96417000I-150000J0D01*
G01*
G37*
G04 #@! TD.AperFunction*
G04 #@! TA.AperFunction,SMDPad,CuDef*
G36*
G01*
X120609000Y-96417000D02*
X120309000Y-96417000D01*
G75*
G02*
X120159000Y-96267000I0J150000D01*
G01*
X120159000Y-94617000D01*
G75*
G02*
X120309000Y-94467000I150000J0D01*
G01*
X120609000Y-94467000D01*
G75*
G02*
X120759000Y-94617000I0J-150000D01*
G01*
X120759000Y-96267000D01*
G75*
G02*
X120609000Y-96417000I-150000J0D01*
G01*
G37*
G04 #@! TD.AperFunction*
G04 #@! TA.AperFunction,SMDPad,CuDef*
G36*
G01*
X119339000Y-96417000D02*
X119039000Y-96417000D01*
G75*
G02*
X118889000Y-96267000I0J150000D01*
G01*
X118889000Y-94617000D01*
G75*
G02*
X119039000Y-94467000I150000J0D01*
G01*
X119339000Y-94467000D01*
G75*
G02*
X119489000Y-94617000I0J-150000D01*
G01*
X119489000Y-96267000D01*
G75*
G02*
X119339000Y-96417000I-150000J0D01*
G01*
G37*
G04 #@! TD.AperFunction*
G04 #@! TA.AperFunction,SMDPad,CuDef*
G36*
G01*
X118069000Y-96417000D02*
X117769000Y-96417000D01*
G75*
G02*
X117619000Y-96267000I0J150000D01*
G01*
X117619000Y-94617000D01*
G75*
G02*
X117769000Y-94467000I150000J0D01*
G01*
X118069000Y-94467000D01*
G75*
G02*
X118219000Y-94617000I0J-150000D01*
G01*
X118219000Y-96267000D01*
G75*
G02*
X118069000Y-96417000I-150000J0D01*
G01*
G37*
G04 #@! TD.AperFunction*
G04 #@! TA.AperFunction,SMDPad,CuDef*
G36*
G01*
X118069000Y-101367000D02*
X117769000Y-101367000D01*
G75*
G02*
X117619000Y-101217000I0J150000D01*
G01*
X117619000Y-99567000D01*
G75*
G02*
X117769000Y-99417000I150000J0D01*
G01*
X118069000Y-99417000D01*
G75*
G02*
X118219000Y-99567000I0J-150000D01*
G01*
X118219000Y-101217000D01*
G75*
G02*
X118069000Y-101367000I-150000J0D01*
G01*
G37*
G04 #@! TD.AperFunction*
G04 #@! TA.AperFunction,SMDPad,CuDef*
G36*
G01*
X119339000Y-101367000D02*
X119039000Y-101367000D01*
G75*
G02*
X118889000Y-101217000I0J150000D01*
G01*
X118889000Y-99567000D01*
G75*
G02*
X119039000Y-99417000I150000J0D01*
G01*
X119339000Y-99417000D01*
G75*
G02*
X119489000Y-99567000I0J-150000D01*
G01*
X119489000Y-101217000D01*
G75*
G02*
X119339000Y-101367000I-150000J0D01*
G01*
G37*
G04 #@! TD.AperFunction*
G04 #@! TA.AperFunction,SMDPad,CuDef*
G36*
G01*
X120609000Y-101367000D02*
X120309000Y-101367000D01*
G75*
G02*
X120159000Y-101217000I0J150000D01*
G01*
X120159000Y-99567000D01*
G75*
G02*
X120309000Y-99417000I150000J0D01*
G01*
X120609000Y-99417000D01*
G75*
G02*
X120759000Y-99567000I0J-150000D01*
G01*
X120759000Y-101217000D01*
G75*
G02*
X120609000Y-101367000I-150000J0D01*
G01*
G37*
G04 #@! TD.AperFunction*
G04 #@! TA.AperFunction,SMDPad,CuDef*
G36*
G01*
X121879000Y-101367000D02*
X121579000Y-101367000D01*
G75*
G02*
X121429000Y-101217000I0J150000D01*
G01*
X121429000Y-99567000D01*
G75*
G02*
X121579000Y-99417000I150000J0D01*
G01*
X121879000Y-99417000D01*
G75*
G02*
X122029000Y-99567000I0J-150000D01*
G01*
X122029000Y-101217000D01*
G75*
G02*
X121879000Y-101367000I-150000J0D01*
G01*
G37*
G04 #@! TD.AperFunction*
D10*
X125018000Y-87369000D03*
X134618000Y-87369000D03*
D11*
X132318000Y-94869000D03*
X129818000Y-94869000D03*
D12*
X127318000Y-94869000D03*
D10*
X125018000Y-104006000D03*
X134618000Y-104006000D03*
D11*
X132318000Y-111506000D03*
X129818000Y-111506000D03*
D12*
X127318000Y-111506000D03*
D10*
X125144000Y-53460000D03*
X134744000Y-53460000D03*
D11*
X132444000Y-60960000D03*
X129944000Y-60960000D03*
D12*
X127444000Y-60960000D03*
D10*
X125208000Y-71049500D03*
X134808000Y-71049500D03*
D11*
X132508000Y-78549500D03*
X130008000Y-78549500D03*
D12*
X127508000Y-78549500D03*
G04 #@! TA.AperFunction,SMDPad,CuDef*
G36*
G01*
X140053001Y-55057000D02*
X139152999Y-55057000D01*
G75*
G02*
X138903000Y-54807001I0J249999D01*
G01*
X138903000Y-54281999D01*
G75*
G02*
X139152999Y-54032000I249999J0D01*
G01*
X140053001Y-54032000D01*
G75*
G02*
X140303000Y-54281999I0J-249999D01*
G01*
X140303000Y-54807001D01*
G75*
G02*
X140053001Y-55057000I-249999J0D01*
G01*
G37*
G04 #@! TD.AperFunction*
G04 #@! TA.AperFunction,SMDPad,CuDef*
G36*
G01*
X140053001Y-56882000D02*
X139152999Y-56882000D01*
G75*
G02*
X138903000Y-56632001I0J249999D01*
G01*
X138903000Y-56106999D01*
G75*
G02*
X139152999Y-55857000I249999J0D01*
G01*
X140053001Y-55857000D01*
G75*
G02*
X140303000Y-56106999I0J-249999D01*
G01*
X140303000Y-56632001D01*
G75*
G02*
X140053001Y-56882000I-249999J0D01*
G01*
G37*
G04 #@! TD.AperFunction*
G04 #@! TA.AperFunction,SMDPad,CuDef*
G36*
G01*
X119742000Y-62896501D02*
X119742000Y-61996499D01*
G75*
G02*
X119991999Y-61746500I249999J0D01*
G01*
X120517001Y-61746500D01*
G75*
G02*
X120767000Y-61996499I0J-249999D01*
G01*
X120767000Y-62896501D01*
G75*
G02*
X120517001Y-63146500I-249999J0D01*
G01*
X119991999Y-63146500D01*
G75*
G02*
X119742000Y-62896501I0J249999D01*
G01*
G37*
G04 #@! TD.AperFunction*
G04 #@! TA.AperFunction,SMDPad,CuDef*
G36*
G01*
X117917000Y-62896501D02*
X117917000Y-61996499D01*
G75*
G02*
X118166999Y-61746500I249999J0D01*
G01*
X118692001Y-61746500D01*
G75*
G02*
X118942000Y-61996499I0J-249999D01*
G01*
X118942000Y-62896501D01*
G75*
G02*
X118692001Y-63146500I-249999J0D01*
G01*
X118166999Y-63146500D01*
G75*
G02*
X117917000Y-62896501I0J249999D01*
G01*
G37*
G04 #@! TD.AperFunction*
G04 #@! TA.AperFunction,SMDPad,CuDef*
G36*
G01*
X140053001Y-59467000D02*
X139152999Y-59467000D01*
G75*
G02*
X138903000Y-59217001I0J249999D01*
G01*
X138903000Y-58691999D01*
G75*
G02*
X139152999Y-58442000I249999J0D01*
G01*
X140053001Y-58442000D01*
G75*
G02*
X140303000Y-58691999I0J-249999D01*
G01*
X140303000Y-59217001D01*
G75*
G02*
X140053001Y-59467000I-249999J0D01*
G01*
G37*
G04 #@! TD.AperFunction*
G04 #@! TA.AperFunction,SMDPad,CuDef*
G36*
G01*
X140053001Y-61292000D02*
X139152999Y-61292000D01*
G75*
G02*
X138903000Y-61042001I0J249999D01*
G01*
X138903000Y-60516999D01*
G75*
G02*
X139152999Y-60267000I249999J0D01*
G01*
X140053001Y-60267000D01*
G75*
G02*
X140303000Y-60516999I0J-249999D01*
G01*
X140303000Y-61042001D01*
G75*
G02*
X140053001Y-61292000I-249999J0D01*
G01*
G37*
G04 #@! TD.AperFunction*
G04 #@! TA.AperFunction,SMDPad,CuDef*
G36*
G01*
X118593000Y-79916001D02*
X118593000Y-79015999D01*
G75*
G02*
X118842999Y-78766000I249999J0D01*
G01*
X119368001Y-78766000D01*
G75*
G02*
X119618000Y-79015999I0J-249999D01*
G01*
X119618000Y-79916001D01*
G75*
G02*
X119368001Y-80166000I-249999J0D01*
G01*
X118842999Y-80166000D01*
G75*
G02*
X118593000Y-79916001I0J249999D01*
G01*
G37*
G04 #@! TD.AperFunction*
G04 #@! TA.AperFunction,SMDPad,CuDef*
G36*
G01*
X116768000Y-79916001D02*
X116768000Y-79015999D01*
G75*
G02*
X117017999Y-78766000I249999J0D01*
G01*
X117543001Y-78766000D01*
G75*
G02*
X117793000Y-79015999I0J-249999D01*
G01*
X117793000Y-79916001D01*
G75*
G02*
X117543001Y-80166000I-249999J0D01*
G01*
X117017999Y-80166000D01*
G75*
G02*
X116768000Y-79916001I0J249999D01*
G01*
G37*
G04 #@! TD.AperFunction*
G04 #@! TA.AperFunction,SMDPad,CuDef*
G36*
G01*
X139964001Y-85888000D02*
X139063999Y-85888000D01*
G75*
G02*
X138814000Y-85638001I0J249999D01*
G01*
X138814000Y-85112999D01*
G75*
G02*
X139063999Y-84863000I249999J0D01*
G01*
X139964001Y-84863000D01*
G75*
G02*
X140214000Y-85112999I0J-249999D01*
G01*
X140214000Y-85638001D01*
G75*
G02*
X139964001Y-85888000I-249999J0D01*
G01*
G37*
G04 #@! TD.AperFunction*
G04 #@! TA.AperFunction,SMDPad,CuDef*
G36*
G01*
X139964001Y-87713000D02*
X139063999Y-87713000D01*
G75*
G02*
X138814000Y-87463001I0J249999D01*
G01*
X138814000Y-86937999D01*
G75*
G02*
X139063999Y-86688000I249999J0D01*
G01*
X139964001Y-86688000D01*
G75*
G02*
X140214000Y-86937999I0J-249999D01*
G01*
X140214000Y-87463001D01*
G75*
G02*
X139964001Y-87713000I-249999J0D01*
G01*
G37*
G04 #@! TD.AperFunction*
G04 #@! TA.AperFunction,SMDPad,CuDef*
G36*
G01*
X119742000Y-65846501D02*
X119742000Y-64946499D01*
G75*
G02*
X119991999Y-64696500I249999J0D01*
G01*
X120517001Y-64696500D01*
G75*
G02*
X120767000Y-64946499I0J-249999D01*
G01*
X120767000Y-65846501D01*
G75*
G02*
X120517001Y-66096500I-249999J0D01*
G01*
X119991999Y-66096500D01*
G75*
G02*
X119742000Y-65846501I0J249999D01*
G01*
G37*
G04 #@! TD.AperFunction*
G04 #@! TA.AperFunction,SMDPad,CuDef*
G36*
G01*
X117917000Y-65846501D02*
X117917000Y-64946499D01*
G75*
G02*
X118166999Y-64696500I249999J0D01*
G01*
X118692001Y-64696500D01*
G75*
G02*
X118942000Y-64946499I0J-249999D01*
G01*
X118942000Y-65846501D01*
G75*
G02*
X118692001Y-66096500I-249999J0D01*
G01*
X118166999Y-66096500D01*
G75*
G02*
X117917000Y-65846501I0J249999D01*
G01*
G37*
G04 #@! TD.AperFunction*
G04 #@! TA.AperFunction,SMDPad,CuDef*
G36*
G01*
X139964001Y-90298000D02*
X139063999Y-90298000D01*
G75*
G02*
X138814000Y-90048001I0J249999D01*
G01*
X138814000Y-89522999D01*
G75*
G02*
X139063999Y-89273000I249999J0D01*
G01*
X139964001Y-89273000D01*
G75*
G02*
X140214000Y-89522999I0J-249999D01*
G01*
X140214000Y-90048001D01*
G75*
G02*
X139964001Y-90298000I-249999J0D01*
G01*
G37*
G04 #@! TD.AperFunction*
G04 #@! TA.AperFunction,SMDPad,CuDef*
G36*
G01*
X139964001Y-92123000D02*
X139063999Y-92123000D01*
G75*
G02*
X138814000Y-91873001I0J249999D01*
G01*
X138814000Y-91347999D01*
G75*
G02*
X139063999Y-91098000I249999J0D01*
G01*
X139964001Y-91098000D01*
G75*
G02*
X140214000Y-91347999I0J-249999D01*
G01*
X140214000Y-91873001D01*
G75*
G02*
X139964001Y-92123000I-249999J0D01*
G01*
G37*
G04 #@! TD.AperFunction*
G04 #@! TA.AperFunction,SMDPad,CuDef*
G36*
G01*
X118593000Y-82866001D02*
X118593000Y-81965999D01*
G75*
G02*
X118842999Y-81716000I249999J0D01*
G01*
X119368001Y-81716000D01*
G75*
G02*
X119618000Y-81965999I0J-249999D01*
G01*
X119618000Y-82866001D01*
G75*
G02*
X119368001Y-83116000I-249999J0D01*
G01*
X118842999Y-83116000D01*
G75*
G02*
X118593000Y-82866001I0J249999D01*
G01*
G37*
G04 #@! TD.AperFunction*
G04 #@! TA.AperFunction,SMDPad,CuDef*
G36*
G01*
X116768000Y-82866001D02*
X116768000Y-81965999D01*
G75*
G02*
X117017999Y-81716000I249999J0D01*
G01*
X117543001Y-81716000D01*
G75*
G02*
X117793000Y-81965999I0J-249999D01*
G01*
X117793000Y-82866001D01*
G75*
G02*
X117543001Y-83116000I-249999J0D01*
G01*
X117017999Y-83116000D01*
G75*
G02*
X116768000Y-82866001I0J249999D01*
G01*
G37*
G04 #@! TD.AperFunction*
G04 #@! TA.AperFunction,SMDPad,CuDef*
G36*
G01*
X140053001Y-63877000D02*
X139152999Y-63877000D01*
G75*
G02*
X138903000Y-63627001I0J249999D01*
G01*
X138903000Y-63101999D01*
G75*
G02*
X139152999Y-62852000I249999J0D01*
G01*
X140053001Y-62852000D01*
G75*
G02*
X140303000Y-63101999I0J-249999D01*
G01*
X140303000Y-63627001D01*
G75*
G02*
X140053001Y-63877000I-249999J0D01*
G01*
G37*
G04 #@! TD.AperFunction*
G04 #@! TA.AperFunction,SMDPad,CuDef*
G36*
G01*
X140053001Y-65702000D02*
X139152999Y-65702000D01*
G75*
G02*
X138903000Y-65452001I0J249999D01*
G01*
X138903000Y-64926999D01*
G75*
G02*
X139152999Y-64677000I249999J0D01*
G01*
X140053001Y-64677000D01*
G75*
G02*
X140303000Y-64926999I0J-249999D01*
G01*
X140303000Y-65452001D01*
G75*
G02*
X140053001Y-65702000I-249999J0D01*
G01*
G37*
G04 #@! TD.AperFunction*
G04 #@! TA.AperFunction,SMDPad,CuDef*
G36*
G01*
X140024001Y-81478000D02*
X139123999Y-81478000D01*
G75*
G02*
X138874000Y-81228001I0J249999D01*
G01*
X138874000Y-80702999D01*
G75*
G02*
X139123999Y-80453000I249999J0D01*
G01*
X140024001Y-80453000D01*
G75*
G02*
X140274000Y-80702999I0J-249999D01*
G01*
X140274000Y-81228001D01*
G75*
G02*
X140024001Y-81478000I-249999J0D01*
G01*
G37*
G04 #@! TD.AperFunction*
G04 #@! TA.AperFunction,SMDPad,CuDef*
G36*
G01*
X140024001Y-83303000D02*
X139123999Y-83303000D01*
G75*
G02*
X138874000Y-83053001I0J249999D01*
G01*
X138874000Y-82527999D01*
G75*
G02*
X139123999Y-82278000I249999J0D01*
G01*
X140024001Y-82278000D01*
G75*
G02*
X140274000Y-82527999I0J-249999D01*
G01*
X140274000Y-83053001D01*
G75*
G02*
X140024001Y-83303000I-249999J0D01*
G01*
G37*
G04 #@! TD.AperFunction*
G04 #@! TA.AperFunction,ComponentPad*
G36*
G01*
X132318000Y-140048000D02*
X131018000Y-140048000D01*
G75*
G02*
X130368000Y-139398000I0J650000D01*
G01*
X130368000Y-138098000D01*
G75*
G02*
X131018000Y-137448000I650000J0D01*
G01*
X132318000Y-137448000D01*
G75*
G02*
X132968000Y-138098000I0J-650000D01*
G01*
X132968000Y-139398000D01*
G75*
G02*
X132318000Y-140048000I-650000J0D01*
G01*
G37*
G04 #@! TD.AperFunction*
D13*
X143068000Y-138748000D03*
G04 #@! TA.AperFunction,ComponentPad*
G36*
G01*
X140618000Y-140048000D02*
X139318000Y-140048000D01*
G75*
G02*
X138668000Y-139398000I0J650000D01*
G01*
X138668000Y-138098000D01*
G75*
G02*
X139318000Y-137448000I650000J0D01*
G01*
X140618000Y-137448000D01*
G75*
G02*
X141268000Y-138098000I0J-650000D01*
G01*
X141268000Y-139398000D01*
G75*
G02*
X140618000Y-140048000I-650000J0D01*
G01*
G37*
G04 #@! TD.AperFunction*
G04 #@! TA.AperFunction,ComponentPad*
G36*
G01*
X127333000Y-137448000D02*
X128633000Y-137448000D01*
G75*
G02*
X129283000Y-138098000I0J-650000D01*
G01*
X129283000Y-139398000D01*
G75*
G02*
X128633000Y-140048000I-650000J0D01*
G01*
X127333000Y-140048000D01*
G75*
G02*
X126683000Y-139398000I0J650000D01*
G01*
X126683000Y-138098000D01*
G75*
G02*
X127333000Y-137448000I650000J0D01*
G01*
G37*
G04 #@! TD.AperFunction*
X116583000Y-138748000D03*
G04 #@! TA.AperFunction,ComponentPad*
G36*
G01*
X119033000Y-137448000D02*
X120333000Y-137448000D01*
G75*
G02*
X120983000Y-138098000I0J-650000D01*
G01*
X120983000Y-139398000D01*
G75*
G02*
X120333000Y-140048000I-650000J0D01*
G01*
X119033000Y-140048000D01*
G75*
G02*
X118383000Y-139398000I0J650000D01*
G01*
X118383000Y-138098000D01*
G75*
G02*
X119033000Y-137448000I650000J0D01*
G01*
G37*
G04 #@! TD.AperFunction*
D14*
X134938000Y-118999000D03*
X132398000Y-118999000D03*
X129858000Y-118999000D03*
X127318000Y-118999000D03*
X124778000Y-118999000D03*
X134938000Y-116459000D03*
X132398000Y-116459000D03*
X129858000Y-116459000D03*
X127318000Y-116459000D03*
G04 #@! TA.AperFunction,ComponentPad*
G36*
G01*
X124178000Y-115609000D02*
X125378000Y-115609000D01*
G75*
G02*
X125628000Y-115859000I0J-250000D01*
G01*
X125628000Y-117059000D01*
G75*
G02*
X125378000Y-117309000I-250000J0D01*
G01*
X124178000Y-117309000D01*
G75*
G02*
X123928000Y-117059000I0J250000D01*
G01*
X123928000Y-115859000D01*
G75*
G02*
X124178000Y-115609000I250000J0D01*
G01*
G37*
G04 #@! TD.AperFunction*
G04 #@! TA.AperFunction,ComponentPad*
G36*
G01*
X132255000Y-126268000D02*
X130955000Y-126268000D01*
G75*
G02*
X130305000Y-125618000I0J650000D01*
G01*
X130305000Y-124318000D01*
G75*
G02*
X130955000Y-123668000I650000J0D01*
G01*
X132255000Y-123668000D01*
G75*
G02*
X132905000Y-124318000I0J-650000D01*
G01*
X132905000Y-125618000D01*
G75*
G02*
X132255000Y-126268000I-650000J0D01*
G01*
G37*
G04 #@! TD.AperFunction*
D13*
X143005000Y-124968000D03*
G04 #@! TA.AperFunction,ComponentPad*
G36*
G01*
X140555000Y-126268000D02*
X139255000Y-126268000D01*
G75*
G02*
X138605000Y-125618000I0J650000D01*
G01*
X138605000Y-124318000D01*
G75*
G02*
X139255000Y-123668000I650000J0D01*
G01*
X140555000Y-123668000D01*
G75*
G02*
X141205000Y-124318000I0J-650000D01*
G01*
X141205000Y-125618000D01*
G75*
G02*
X140555000Y-126268000I-650000J0D01*
G01*
G37*
G04 #@! TD.AperFunction*
G04 #@! TA.AperFunction,ComponentPad*
G36*
G01*
X127650000Y-123604000D02*
X128950000Y-123604000D01*
G75*
G02*
X129600000Y-124254000I0J-650000D01*
G01*
X129600000Y-125554000D01*
G75*
G02*
X128950000Y-126204000I-650000J0D01*
G01*
X127650000Y-126204000D01*
G75*
G02*
X127000000Y-125554000I0J650000D01*
G01*
X127000000Y-124254000D01*
G75*
G02*
X127650000Y-123604000I650000J0D01*
G01*
G37*
G04 #@! TD.AperFunction*
X116900000Y-124904000D03*
G04 #@! TA.AperFunction,ComponentPad*
G36*
G01*
X119350000Y-123604000D02*
X120650000Y-123604000D01*
G75*
G02*
X121300000Y-124254000I0J-650000D01*
G01*
X121300000Y-125554000D01*
G75*
G02*
X120650000Y-126204000I-650000J0D01*
G01*
X119350000Y-126204000D01*
G75*
G02*
X118700000Y-125554000I0J650000D01*
G01*
X118700000Y-124254000D01*
G75*
G02*
X119350000Y-123604000I650000J0D01*
G01*
G37*
G04 #@! TD.AperFunction*
D15*
X120362000Y-59496500D03*
X118162000Y-59496500D03*
X119213000Y-76516000D03*
X117013000Y-76516000D03*
X120073000Y-73566000D03*
X117873000Y-73566000D03*
X139574000Y-76448000D03*
X139574000Y-78648000D03*
X120353000Y-53657500D03*
X118153000Y-53657500D03*
X139603000Y-50027000D03*
X139603000Y-52227000D03*
X139574000Y-72198000D03*
X139574000Y-74398000D03*
X120362000Y-56546500D03*
X118162000Y-56546500D03*
G04 #@! TA.AperFunction,SMDPad,CuDef*
G36*
G01*
X118663000Y-85871000D02*
X118663000Y-84921000D01*
G75*
G02*
X118913000Y-84671000I250000J0D01*
G01*
X119413000Y-84671000D01*
G75*
G02*
X119663000Y-84921000I0J-250000D01*
G01*
X119663000Y-85871000D01*
G75*
G02*
X119413000Y-86121000I-250000J0D01*
G01*
X118913000Y-86121000D01*
G75*
G02*
X118663000Y-85871000I0J250000D01*
G01*
G37*
G04 #@! TD.AperFunction*
G04 #@! TA.AperFunction,SMDPad,CuDef*
G36*
G01*
X116763000Y-85871000D02*
X116763000Y-84921000D01*
G75*
G02*
X117013000Y-84671000I250000J0D01*
G01*
X117513000Y-84671000D01*
G75*
G02*
X117763000Y-84921000I0J-250000D01*
G01*
X117763000Y-85871000D01*
G75*
G02*
X117513000Y-86121000I-250000J0D01*
G01*
X117013000Y-86121000D01*
G75*
G02*
X116763000Y-85871000I0J250000D01*
G01*
G37*
G04 #@! TD.AperFunction*
G04 #@! TA.AperFunction,SMDPad,CuDef*
G36*
G01*
X140048000Y-68257000D02*
X139098000Y-68257000D01*
G75*
G02*
X138848000Y-68007000I0J250000D01*
G01*
X138848000Y-67507000D01*
G75*
G02*
X139098000Y-67257000I250000J0D01*
G01*
X140048000Y-67257000D01*
G75*
G02*
X140298000Y-67507000I0J-250000D01*
G01*
X140298000Y-68007000D01*
G75*
G02*
X140048000Y-68257000I-250000J0D01*
G01*
G37*
G04 #@! TD.AperFunction*
G04 #@! TA.AperFunction,SMDPad,CuDef*
G36*
G01*
X140048000Y-70157000D02*
X139098000Y-70157000D01*
G75*
G02*
X138848000Y-69907000I0J250000D01*
G01*
X138848000Y-69407000D01*
G75*
G02*
X139098000Y-69157000I250000J0D01*
G01*
X140048000Y-69157000D01*
G75*
G02*
X140298000Y-69407000I0J-250000D01*
G01*
X140298000Y-69907000D01*
G75*
G02*
X140048000Y-70157000I-250000J0D01*
G01*
G37*
G04 #@! TD.AperFunction*
D16*
X117204700Y-87248400D03*
X140683100Y-92753300D03*
X133076000Y-62686800D03*
X139451000Y-77559000D03*
X139011800Y-102348500D03*
X138698900Y-78902900D03*
X128543400Y-101582700D03*
X120620900Y-60865800D03*
X138534200Y-83704000D03*
X141600500Y-64897600D03*
X142048900Y-97556200D03*
X119166600Y-64188300D03*
X119868300Y-93145000D03*
X120353400Y-87500800D03*
D17*
X139514000Y-91610500D02*
X140656800Y-92753300D01*
X140656800Y-92753300D02*
X140683100Y-92753300D01*
X117412100Y-83645100D02*
X117280500Y-83513500D01*
X117280500Y-83513500D02*
X117280500Y-82416000D01*
X119163000Y-85396000D02*
X117412100Y-83645100D01*
X117204700Y-87248400D02*
X116428000Y-86471700D01*
X116428000Y-86471700D02*
X116428000Y-84629200D01*
X116428000Y-84629200D02*
X117412100Y-83645100D01*
X118429500Y-65396500D02*
X116836100Y-66989900D01*
X116836100Y-66989900D02*
X116836100Y-74189800D01*
X116836100Y-74189800D02*
X118138600Y-75492300D01*
X118138600Y-75492300D02*
X119224100Y-75492300D01*
X119224100Y-75492300D02*
X119803200Y-76071400D01*
X119803200Y-76071400D02*
X119803200Y-76914100D01*
X119803200Y-76914100D02*
X118422500Y-78294800D01*
X118422500Y-78294800D02*
X116858900Y-78294800D01*
X116858900Y-78294800D02*
X116430000Y-78723700D01*
X116430000Y-78723700D02*
X116430000Y-81565500D01*
X116430000Y-81565500D02*
X117280500Y-82416000D01*
X139573000Y-67757000D02*
X139907100Y-67757000D01*
X139907100Y-67757000D02*
X141133400Y-68983300D01*
X141133400Y-68983300D02*
X141133400Y-82781200D01*
X141133400Y-82781200D02*
X140223400Y-83691200D01*
X140223400Y-83691200D02*
X139647100Y-83691200D01*
X139647100Y-83691200D02*
X138467300Y-84871000D01*
X138467300Y-84871000D02*
X138467300Y-86153800D01*
X138467300Y-86153800D02*
X139514000Y-87200500D01*
X116583000Y-138748000D02*
X118238900Y-140403900D01*
X118238900Y-140403900D02*
X141412100Y-140403900D01*
X141412100Y-140403900D02*
X143068000Y-138748000D01*
X139514000Y-91610500D02*
X140540600Y-90583900D01*
X140540600Y-90583900D02*
X140540600Y-88227100D01*
X140540600Y-88227100D02*
X139514000Y-87200500D01*
X116900000Y-124904000D02*
X121118800Y-120685200D01*
X121118800Y-120685200D02*
X125631800Y-120685200D01*
X125631800Y-120685200D02*
X127318000Y-118999000D01*
X129858000Y-116459000D02*
X132398000Y-116459000D01*
X127318000Y-116459000D02*
X129858000Y-116459000D01*
X120937300Y-56546500D02*
X120937300Y-56762200D01*
X120937300Y-56762200D02*
X129466600Y-65291500D01*
X129466600Y-65291500D02*
X131693600Y-65291500D01*
X131693600Y-65291500D02*
X140683100Y-74281000D01*
X140683100Y-74281000D02*
X140683100Y-81681400D01*
X140683100Y-81681400D02*
X139574000Y-82790500D01*
X120362000Y-56546500D02*
X120937300Y-56546500D01*
X119105500Y-82416000D02*
X121093900Y-84404400D01*
X121093900Y-84404400D02*
X121093900Y-96514200D01*
X121093900Y-96514200D02*
X119189000Y-98419100D01*
X118162000Y-57121800D02*
X118737400Y-57697200D01*
X118737400Y-57697200D02*
X118737400Y-59956600D01*
X118737400Y-59956600D02*
X115468100Y-63225900D01*
X115468100Y-63225900D02*
X115468100Y-95351200D01*
X115468100Y-95351200D02*
X118536000Y-98419100D01*
X118536000Y-98419100D02*
X119189000Y-98419100D01*
X118162000Y-56546500D02*
X118162000Y-57121800D01*
X119189000Y-100392000D02*
X119189000Y-98419100D01*
X139574000Y-72198000D02*
X139574000Y-71622700D01*
X139574000Y-71622700D02*
X140683000Y-70513700D01*
X140683000Y-70513700D02*
X140683000Y-69228300D01*
X140683000Y-69228300D02*
X140161700Y-68707000D01*
X140161700Y-68707000D02*
X138962500Y-68707000D01*
X138962500Y-68707000D02*
X138510200Y-68254700D01*
X138510200Y-68254700D02*
X138510200Y-66282300D01*
X138510200Y-66282300D02*
X139603000Y-65189500D01*
X139574000Y-74398000D02*
X139574000Y-74973300D01*
X139574000Y-74973300D02*
X140177400Y-75576700D01*
X140177400Y-75576700D02*
X140177400Y-79057400D01*
X140177400Y-79057400D02*
X139253800Y-79981000D01*
X139253800Y-79981000D02*
X139010600Y-79981000D01*
X139010600Y-79981000D02*
X137807500Y-81184100D01*
X137807500Y-81184100D02*
X137807500Y-88079000D01*
X137807500Y-88079000D02*
X139514000Y-89785500D01*
X139509000Y-99947500D02*
X138865100Y-99303600D01*
X138865100Y-99303600D02*
X138865100Y-92845600D01*
X138865100Y-92845600D02*
X138437900Y-92418400D01*
X138437900Y-92418400D02*
X138437900Y-90861600D01*
X138437900Y-90861600D02*
X139514000Y-89785500D01*
X139603000Y-50027000D02*
X139603000Y-50602300D01*
X139603000Y-50602300D02*
X140178400Y-51177700D01*
X140178400Y-51177700D02*
X140178400Y-52622800D01*
X140178400Y-52622800D02*
X139572400Y-53228800D01*
X139572400Y-53228800D02*
X139309300Y-53228800D01*
X139309300Y-53228800D02*
X136869700Y-55668400D01*
X136869700Y-55668400D02*
X136869700Y-58893100D01*
X136869700Y-58893100D02*
X133076000Y-62686800D01*
X120353000Y-53657500D02*
X120928300Y-53657500D01*
X139603000Y-52227000D02*
X139027700Y-52227000D01*
X139027700Y-52227000D02*
X138275800Y-51475100D01*
X138275800Y-51475100D02*
X123110700Y-51475100D01*
X123110700Y-51475100D02*
X120928300Y-53657500D01*
X121729000Y-100392000D02*
X124125100Y-100392000D01*
X124125100Y-100392000D02*
X128543400Y-95973700D01*
X128543400Y-95973700D02*
X128543400Y-82891800D01*
X128543400Y-82891800D02*
X119792900Y-74141300D01*
X119792900Y-74141300D02*
X119688200Y-74141300D01*
X119688200Y-74141300D02*
X119481600Y-73934700D01*
X119481600Y-73934700D02*
X119481600Y-67912200D01*
X119481600Y-67912200D02*
X121366100Y-66027700D01*
X121366100Y-66027700D02*
X121366100Y-58778000D01*
X121366100Y-58778000D02*
X117577600Y-54989500D01*
X117577600Y-54989500D02*
X117577600Y-53192000D01*
X117577600Y-53192000D02*
X117687400Y-53082200D01*
X117687400Y-53082200D02*
X119202400Y-53082200D01*
X119202400Y-53082200D02*
X119777700Y-53657500D01*
X120353000Y-53657500D02*
X119777700Y-53657500D01*
X139574000Y-77023300D02*
X139574000Y-77436000D01*
X139574000Y-77436000D02*
X139451000Y-77559000D01*
X139574000Y-76448000D02*
X139574000Y-77023300D01*
X120073000Y-73566000D02*
X133362000Y-73566000D01*
X133362000Y-73566000D02*
X138698900Y-78902900D01*
X142049000Y-99947500D02*
X142049000Y-100418000D01*
X142049000Y-100418000D02*
X140118500Y-102348500D01*
X140118500Y-102348500D02*
X139011800Y-102348500D01*
X138698900Y-78902900D02*
X138953800Y-78648000D01*
X138953800Y-78648000D02*
X138998700Y-78648000D01*
X139574000Y-78648000D02*
X138998700Y-78648000D01*
X119189000Y-95442000D02*
X120459000Y-95442000D01*
X118637700Y-76516000D02*
X118000800Y-76516000D01*
X118000800Y-76516000D02*
X115969000Y-78547800D01*
X115969000Y-78547800D02*
X115969000Y-95215200D01*
X115969000Y-95215200D02*
X117538600Y-96784800D01*
X117538600Y-96784800D02*
X118283700Y-96784800D01*
X118283700Y-96784800D02*
X119189000Y-95879500D01*
X119189000Y-95879500D02*
X119189000Y-95442000D01*
X119213000Y-76516000D02*
X118637700Y-76516000D01*
X118429500Y-62446500D02*
X116385800Y-64490200D01*
X116385800Y-64490200D02*
X116385800Y-75313500D01*
X116385800Y-75313500D02*
X117013000Y-75940700D01*
X117013000Y-76516000D02*
X117013000Y-75940700D01*
X120362000Y-60071800D02*
X120362000Y-60606900D01*
X120362000Y-60606900D02*
X120620900Y-60865800D01*
X120362000Y-59496500D02*
X120362000Y-60071800D01*
X139509000Y-94997500D02*
X140144000Y-95632500D01*
X140144000Y-95632500D02*
X140144000Y-101017300D01*
X140144000Y-101017300D02*
X139578600Y-101582700D01*
X139578600Y-101582700D02*
X128543400Y-101582700D01*
X140779000Y-94997500D02*
X139509000Y-94997500D01*
X139603000Y-56369500D02*
X140649700Y-55322800D01*
X140649700Y-55322800D02*
X140649700Y-50053700D01*
X140649700Y-50053700D02*
X140042400Y-49446400D01*
X140042400Y-49446400D02*
X120686300Y-49446400D01*
X120686300Y-49446400D02*
X117065000Y-53067700D01*
X117065000Y-53067700D02*
X117065000Y-57824200D01*
X117065000Y-57824200D02*
X118162000Y-58921200D01*
X118162000Y-59496500D02*
X118162000Y-58921200D01*
X138534200Y-83704000D02*
X138534200Y-82005300D01*
X138534200Y-82005300D02*
X139574000Y-80965500D01*
X141600500Y-64897600D02*
X140067400Y-63364500D01*
X140067400Y-63364500D02*
X139603000Y-63364500D01*
X131605000Y-124968000D02*
X133668000Y-122905000D01*
X133668000Y-122905000D02*
X133668000Y-110019800D01*
X133668000Y-110019800D02*
X142683800Y-101004000D01*
X142683800Y-101004000D02*
X142683800Y-98191100D01*
X142683800Y-98191100D02*
X142048900Y-97556200D01*
X134938000Y-118999000D02*
X134938000Y-124380900D01*
X134938000Y-124380900D02*
X132671100Y-126647800D01*
X132671100Y-126647800D02*
X130579900Y-126647800D01*
X130579900Y-126647800D02*
X129952600Y-126020500D01*
X129952600Y-126020500D02*
X129952600Y-121928400D01*
X129952600Y-121928400D02*
X128493900Y-120469700D01*
X128493900Y-120469700D02*
X128493900Y-118500100D01*
X128493900Y-118500100D02*
X127653600Y-117659800D01*
X127653600Y-117659800D02*
X123944000Y-117659800D01*
X123944000Y-117659800D02*
X117242500Y-110958300D01*
X117242500Y-110958300D02*
X117242500Y-99407800D01*
X117242500Y-99407800D02*
X117559300Y-99091000D01*
X117559300Y-99091000D02*
X118319700Y-99091000D01*
X118319700Y-99091000D02*
X118544900Y-99316200D01*
X118544900Y-99316200D02*
X118544900Y-101427600D01*
X118544900Y-101427600D02*
X118811100Y-101693800D01*
X118811100Y-101693800D02*
X119570800Y-101693800D01*
X119570800Y-101693800D02*
X119824000Y-101440600D01*
X119824000Y-101440600D02*
X119824000Y-99341300D01*
X119824000Y-99341300D02*
X121729000Y-97436300D01*
X121729000Y-97436300D02*
X121729000Y-95442000D01*
X142049000Y-94997500D02*
X142325800Y-94720700D01*
X142325800Y-94720700D02*
X142325800Y-63502300D01*
X142325800Y-63502300D02*
X139603000Y-60779500D01*
X134938000Y-116459000D02*
X143134100Y-108262900D01*
X143134100Y-108262900D02*
X143134100Y-96082600D01*
X143134100Y-96082600D02*
X142049000Y-94997500D01*
X117280500Y-79466000D02*
X118755500Y-80941000D01*
X118755500Y-80941000D02*
X119201400Y-80941000D01*
X119201400Y-80941000D02*
X121729000Y-83468600D01*
X121729000Y-83468600D02*
X121729000Y-95442000D01*
X117919000Y-100392000D02*
X117919000Y-101438700D01*
X117919000Y-101438700D02*
X118633500Y-102153200D01*
X118633500Y-102153200D02*
X123286300Y-102153200D01*
X123286300Y-102153200D02*
X125492000Y-99947500D01*
X125492000Y-99947500D02*
X138239000Y-99947500D01*
X124778000Y-116459000D02*
X123286300Y-114967300D01*
X123286300Y-114967300D02*
X123286300Y-102153200D01*
X120254500Y-62446500D02*
X120254500Y-63100400D01*
X120254500Y-63100400D02*
X119166600Y-64188300D01*
X131668000Y-138748000D02*
X131668000Y-128670200D01*
X131668000Y-128670200D02*
X143584400Y-116753800D01*
X143584400Y-116753800D02*
X143584400Y-61405400D01*
X143584400Y-61405400D02*
X139841000Y-57662000D01*
X139841000Y-57662000D02*
X139367800Y-57662000D01*
X139367800Y-57662000D02*
X138529500Y-56823700D01*
X138529500Y-56823700D02*
X138529500Y-55618000D01*
X138529500Y-55618000D02*
X139603000Y-54544500D01*
X119105500Y-79466000D02*
X122377900Y-82738400D01*
X122377900Y-82738400D02*
X122377900Y-97894100D01*
X122377900Y-97894100D02*
X120459000Y-99813000D01*
X120459000Y-99813000D02*
X120459000Y-100392000D01*
X120254500Y-65396500D02*
X117286400Y-68364600D01*
X117286400Y-68364600D02*
X117286400Y-74003200D01*
X117286400Y-74003200D02*
X118325200Y-75042000D01*
X118325200Y-75042000D02*
X119410800Y-75042000D01*
X119410800Y-75042000D02*
X120274200Y-75905400D01*
X120274200Y-75905400D02*
X120274200Y-78297300D01*
X120274200Y-78297300D02*
X119105500Y-79466000D01*
X139603000Y-58954500D02*
X138546800Y-60010700D01*
X138546800Y-60010700D02*
X138546800Y-63892600D01*
X138546800Y-63892600D02*
X138931200Y-64277000D01*
X138931200Y-64277000D02*
X140276800Y-64277000D01*
X140276800Y-64277000D02*
X140875200Y-64875400D01*
X140875200Y-64875400D02*
X140875200Y-65198000D01*
X140875200Y-65198000D02*
X141583800Y-65906600D01*
X141583800Y-65906600D02*
X141583800Y-83305700D01*
X141583800Y-83305700D02*
X139514000Y-85375500D01*
X139514000Y-85375500D02*
X141414000Y-87275500D01*
X141414000Y-87275500D02*
X141414000Y-97165400D01*
X141414000Y-97165400D02*
X140779000Y-97800400D01*
X140779000Y-97800400D02*
X140779000Y-99947500D01*
X132444000Y-60960000D02*
X132350700Y-61053300D01*
X132350700Y-61053300D02*
X132350700Y-63002100D01*
X132350700Y-63002100D02*
X139005600Y-69657000D01*
X139005600Y-69657000D02*
X139573000Y-69657000D01*
X117919000Y-95442000D02*
X117919000Y-94973200D01*
X117919000Y-94973200D02*
X119747200Y-93145000D01*
X119747200Y-93145000D02*
X119868300Y-93145000D01*
X129944000Y-60960000D02*
X132444000Y-60960000D01*
X127508000Y-78549500D02*
X130008000Y-78549500D01*
X118153000Y-53657500D02*
X118728300Y-53657500D01*
X118728300Y-53657500D02*
X126030800Y-60960000D01*
X126030800Y-60960000D02*
X127444000Y-60960000D01*
X117263000Y-85396000D02*
X119367800Y-87500800D01*
X119367800Y-87500800D02*
X120353400Y-87500800D01*
X132318000Y-94869000D02*
X129818000Y-94869000D01*
X132318000Y-94869000D02*
X138110500Y-94869000D01*
X138110500Y-94869000D02*
X138239000Y-94997500D01*
X117873000Y-73566000D02*
X118448300Y-73566000D01*
X118448300Y-73566000D02*
X119474000Y-74591700D01*
X119474000Y-74591700D02*
X119606400Y-74591700D01*
X119606400Y-74591700D02*
X127318000Y-82303300D01*
X127318000Y-82303300D02*
X127318000Y-94869000D01*
M02*
