<?xml version="1.0" encoding="UTF-8" standalone="no"?>
<svg
   xmlns:dc="http://purl.org/dc/elements/1.1/"
   xmlns:cc="http://creativecommons.org/ns#"
   xmlns:rdf="http://www.w3.org/1999/02/22-rdf-syntax-ns#"
   xmlns:svg="http://www.w3.org/2000/svg"
   xmlns="http://www.w3.org/2000/svg"
   xmlns:sodipodi="http://sodipodi.sourceforge.net/DTD/sodipodi-0.dtd"
   xmlns:inkscape="http://www.inkscape.org/namespaces/inkscape"
   sodipodi:docname="panel.svg"
   inkscape:version="1.0 (4035a4f, 2020-05-01)"
   width="30.24mm"
   height="128.5mm"
   viewBox="0 0 30.24 128.5"
   version="1.1"
   id="svg16337">
  <defs
     id="defs16331" />
  <sodipodi:namedview
     units="mm"
     inkscape:window-maximized="0"
     inkscape:window-y="23"
     inkscape:window-x="0"
     inkscape:window-height="964"
     inkscape:window-width="1920"
     showgrid="false"
     inkscape:document-rotation="0"
     inkscape:current-layer="layer1"
     inkscape:document-units="mm"
     inkscape:cy="247.8444"
     inkscape:cx="121.36343"
     inkscape:zoom="1.6885538"
     inkscape:pageshadow="2"
     inkscape:pageopacity="0.0"
     borderopacity="1.0"
     bordercolor="#666666"
     pagecolor="#ffffff"
     id="base" />
  <metadata
     id="metadata16334">
    <rdf:RDF>
      <cc:Work
         rdf:about="">
        <dc:format>image/svg+xml</dc:format>
        <dc:type
           rdf:resource="http://purl.org/dc/dcmitype/StillImage" />
        <dc:title></dc:title>
      </cc:Work>
    </rdf:RDF>
  </metadata>
  <g
     style="display:inline"
     inkscape:label="[fixed] BG"
     inkscape:groupmode="layer"
     sodipodi:insensitive="true"
     id="g17038">
    <rect
       x="0"
       y="0"
       width="70.800003"
       height="128.5"
       style="fill:#ffffff;fill-opacity:1;stroke:none"
       id="rect17036" />
  </g>
  <g
     style="display:inline"
     inkscape:label="Edge.Cuts"
     inkscape:groupmode="layer"
     id="g17040">
    <path
       d="M 0,0 H 30.24 V 128.5 H 0 V 0"
       style="fill:#000000;stroke:none;stroke-width:0mm"
       id="rect16904" />
    <path
       id="rect16909"
       d="m 6.35,1.4 h 2.3 l 0.16404,0.00823 0.1592,0.02416 0.15357,0.03931 0.14714,0.05365 0.13992,0.06721 0.13191,0.07997 0.23662,0.19507 0.19507,0.23662 0.07993,0.13191 0.0672,0.13992 0.0537,0.14714 0.0393,0.15357 0.0242,0.1592 L 10.25,3 10.2418,3.16404 10.2176,3.32324 10.1783,3.47681 10.1246,3.62395 10.0574,3.76387 9.97747,3.89578 9.7824,4.1324 9.54578,4.32747 9.41387,4.40744 9.27395,4.47465 9.12681,4.5283 8.97324,4.56761 8.81404,4.59177 8.65,4.6 H 6.35 L 6.18596,4.59177 6.02676,4.56761 5.87319,4.5283 5.72605,4.47465 5.58613,4.40744 5.45422,4.32747 5.2176,4.1324 5.02253,3.89578 4.94256,3.76387 4.87535,3.62395 4.8217,3.47681 4.78239,3.32324 4.75823,3.16404 4.75,3 4.75823,2.83596 4.78239,2.67676 4.8217,2.52319 4.87535,2.37605 4.94256,2.23613 5.02253,2.10422 5.2176,1.8676 5.45422,1.67253 5.58613,1.59256 5.72605,1.52535 5.87319,1.4717 6.02676,1.43239 6.18596,1.40823 6.35,1.4 v 0"
       style="fill:#ffffff;stroke:none;stroke-width:0" />
    <path
       style="fill:#ffffff;stroke:none;stroke-width:0"
       d="m 22.0205,123.9 h 2.3 l 0.1641,0.008 0.1592,0.024 0.1535,0.04 0.1472,0.053 0.1399,0.068 0.1319,0.08 0.2366,0.195 0.1951,0.236 0.08,0.132 0.0672,0.14 0.0536,0.147 0.0393,0.154 0.0242,0.159 0.0082,0.164 -0.0082,0.164 -0.0242,0.159 -0.0393,0.154 -0.0536,0.147 -0.0672,0.14 -0.08,0.132 -0.1951,0.236 -0.2366,0.195 -0.1319,0.08 -0.1399,0.068 -0.1472,0.053 -0.1535,0.04 -0.1592,0.024 -0.1641,0.008 h -2.3 l -0.164,-0.008 -0.1592,-0.024 -0.1536,-0.04 -0.1471,-0.053 -0.1399,-0.068 -0.1319,-0.08 -0.2367,-0.195 -0.195,-0.236 -0.08,-0.132 -0.0672,-0.14 -0.0537,-0.147 -0.0393,-0.154 -0.0241,-0.159 -0.0083,-0.164 0.0083,-0.164 0.0241,-0.159 0.0393,-0.154 0.0537,-0.147 0.0672,-0.14 0.08,-0.132 0.195,-0.236 0.2367,-0.195 0.1319,-0.08 0.1399,-0.068 0.1471,-0.053 0.1536,-0.04 0.1592,-0.024 0.164,-0.008 v 0"
       id="rect16907-5" />
    <path
       d="m 18.82,15.198439 -0.0191,0.3783 -0.0561,0.3673 -0.0912,0.3546 -0.1244,0.34 -0.1558,0.3234 -0.1853,0.3051 -0.213,0.2848 -0.2388,0.2628 -0.2628,0.2388 -0.2848,0.213 -0.3051,0.1853 -0.3234,0.1558 -0.34,0.1244 -0.3545,0.0912 -0.3674,0.0561 -0.3783,0.0191 -0.3657,-0.0181 -0.3595,-0.0537 -0.3509,-0.0882 -0.3399,-0.1217 -0.3263,-0.1542 -0.3105,-0.1858 -0.2921,-0.2163 -0.2714,-0.2457 -0.2458,-0.2714 -0.2163,-0.2922 -0.1857,-0.3104 -0.1543,-0.3264 -0.1217,-0.3398 -0.0882,-0.3509 -0.0536,-0.3595 -0.0181,-0.3657 0.0181,-0.3657 0.0536,-0.3595 0.0882,-0.3509 0.1217,-0.3399 0.1543,-0.3263 0.1857,-0.3105 0.2163,-0.2921 0.2458,-0.2714 0.2714,-0.2458 0.2921,-0.2163 0.3105,-0.1857 0.3263,-0.1543 0.3399,-0.1217 0.3509,-0.0882 0.3595,-0.0536 0.3657,-0.0181 0.3657,0.0181 0.3595,0.0536 0.3509,0.0882 0.3398,0.1217 0.3264,0.1543 0.3104,0.1857 0.2922,0.2163 0.2714,0.2458 0.2458,0.2714 0.2162,0.2921 0.1858,0.3105 0.1542,0.3263 0.1217,0.3399 0.0882,0.3509 0.0537,0.3595 0.0181,0.3657"
       style="display:inline;mix-blend-mode:normal;fill:#ffffff;stroke:none;stroke-width:0.465"
       id="path41208" />
    <path
       id="path41208-8"
       style="display:inline;mix-blend-mode:normal;fill:#ffffff;stroke:none;stroke-width:0.465"
       d="m 18.82,33.981972 -0.0191,0.378299 -0.0561,0.367301 -0.0912,0.354599 -0.1244,0.340001 -0.1558,0.3234 -0.1853,0.3051 -0.213,0.2848 -0.2388,0.2628 -0.2628,0.2388 -0.2848,0.213 -0.3051,0.1853 -0.3234,0.1558 -0.34,0.1244 -0.3545,0.0912 -0.3674,0.0561 -0.3783,0.0191 -0.3657,-0.0181 -0.3595,-0.0537 -0.3509,-0.0882 -0.3399,-0.1217 -0.3263,-0.1542 -0.3105,-0.1858 -0.2921,-0.2163 -0.2714,-0.2457 -0.2458,-0.2714 -0.2163,-0.292201 -0.1857,-0.310399 -0.1543,-0.3264 -0.1217,-0.3398 -0.0882,-0.3509 -0.0536,-0.359501 -0.0181,-0.365699 0.0181,-0.3657 0.0536,-0.3595 0.0882,-0.3509 0.1217,-0.3399 0.1543,-0.3263 0.1857,-0.3105 0.2163,-0.2921 0.2458,-0.2714 0.2714,-0.2458 0.2921,-0.2163 0.3105,-0.1857 0.3263,-0.1543 0.3399,-0.1217 0.3509,-0.0882 0.3595,-0.0536 0.3657,-0.0181 0.3657,0.0181 0.3595,0.0536 0.3509,0.0882 0.3398,0.1217 0.3264,0.1543 0.3104,0.1857 0.2922,0.2163 0.2714,0.2458 0.2458,0.2714 0.2162,0.2921 0.1858,0.3105 0.1542,0.3263 0.1217,0.3399 0.0882,0.3509 0.0537,0.3595 0.0181,0.3657" />
    <path
       id="path41208-9"
       style="display:inline;mix-blend-mode:normal;fill:#ffffff;stroke:none;stroke-width:0.465"
       d="m 18.819999,51.374814 -0.0191,0.3783 -0.0561,0.3673 -0.0912,0.3546 -0.1244,0.34 -0.1558,0.3234 -0.1853,0.3051 -0.213,0.2848 -0.2388,0.2628 -0.2628,0.2388 -0.2848,0.213 -0.3051,0.1853 -0.3234,0.155801 -0.34,0.124399 -0.3545,0.0912 -0.3674,0.0561 -0.3783,0.0191 -0.3657,-0.0181 -0.3595,-0.0537 -0.350899,-0.0882 -0.339901,-0.1217 -0.3263,-0.1542 -0.3105,-0.1858 -0.2921,-0.2163 -0.2714,-0.2457 -0.2458,-0.2714 -0.2163,-0.2922 -0.1857,-0.3104 -0.1543,-0.3264 -0.1217,-0.3398 -0.0882,-0.350899 -0.0536,-0.359501 -0.0181,-0.3657 0.0181,-0.3657 0.0536,-0.3595 0.0882,-0.3509 0.1217,-0.3399 0.1543,-0.3263 0.1857,-0.3105 0.2163,-0.2921 0.2458,-0.2714 0.2714,-0.2458 0.2921,-0.2163 0.3105,-0.1857 0.3263,-0.1543 0.3399,-0.1217 0.350901,-0.0882 0.359499,-0.0536 0.3657,-0.0181 0.3657,0.0181 0.3595,0.0536 0.350901,0.0882 0.339799,0.1217 0.3264,0.1543 0.3104,0.1857 0.2922,0.2163 0.2714,0.2458 0.2458,0.2714 0.216201,0.2921 0.185799,0.3105 0.1542,0.3263 0.121701,0.3399 0.0882,0.3509 0.0537,0.3595 0.0181,0.3657" />
    <path
       id="path41208-7"
       style="display:inline;mix-blend-mode:normal;fill:#ffffff;stroke:none;stroke-width:0.465"
       d="m 18.819999,70.177888 -0.0191,0.3783 -0.0561,0.3673 -0.0912,0.3546 -0.1244,0.34 -0.1558,0.3234 -0.1853,0.3051 -0.213,0.2848 -0.2388,0.2628 -0.2628,0.2388 -0.2848,0.213 -0.3051,0.1853 -0.3234,0.1558 -0.34,0.1244 -0.3545,0.0912 -0.3674,0.0561 -0.3783,0.0191 -0.3657,-0.0181 -0.3595,-0.0537 -0.350899,-0.0882 -0.339901,-0.1217 -0.3263,-0.1542 -0.3105,-0.1858 -0.2921,-0.2163 -0.2714,-0.2457 -0.2458,-0.2714 -0.2163,-0.2922 -0.1857,-0.3104 -0.1543,-0.3264 -0.1217,-0.3398 -0.0882,-0.3509 -0.0536,-0.3595 -0.0181,-0.3657 0.0181,-0.3657 0.0536,-0.3595 0.0882,-0.3509 0.1217,-0.3399 0.1543,-0.3263 0.1857,-0.3105 0.2163,-0.2921 0.2458,-0.2714 0.2714,-0.2458 0.2921,-0.2163 0.3105,-0.1857 0.3263,-0.1543 0.3399,-0.1217 0.350901,-0.0882 0.359499,-0.0536 0.3657,-0.0181 0.3657,0.0181 0.3595,0.0536 0.350901,0.0882 0.339799,0.1217 0.3264,0.1543 0.3104,0.1857 0.2922,0.2163 0.2714,0.2458 0.2458,0.2714 0.216201,0.2921 0.185799,0.3105 0.1542,0.3263 0.121701,0.3399 0.0882,0.3509 0.0537,0.3595 0.0181,0.3657" />
    <path
       id="path47744-9-3"
       style="display:inline;mix-blend-mode:normal;fill:#ffffff;stroke:none;stroke-width:0.465"
       d="m 24.879566,108.61433 -0.0156,0.316 -0.0464,0.311 -0.0763,0.303 -0.1053,0.294 -0.1333,0.282 -0.1607,0.269 -0.1871,0.253 -0.2125,0.234 -0.2347,0.213 -0.2527,0.187 -0.2685,0.161 -0.2823,0.133 -0.2939,0.105 -0.3035,0.076 -0.3109,0.047 -0.3163,0.016 -0.3163,-0.016 -0.3109,-0.047 -0.3034,-0.076 -0.294,-0.105 -0.2822,-0.133 -0.2685,-0.161 -0.2527,-0.187 -0.2347,-0.213 -0.2126,-0.234 -0.187,-0.253 -0.1607,-0.269 -0.1334,-0.282 -0.1053,-0.294 -0.0762,-0.303 -0.0464,-0.311 -0.0157,-0.316 0.0157,-0.317 0.0464,-0.311 0.0762,-0.303 0.1053,-0.294 0.1334,-0.282 0.1607,-0.269 0.187,-0.252 0.2126,-0.235 0.2347,-0.213 0.2527,-0.187 0.2685,-0.16 0.2822,-0.134 0.294,-0.105 0.3034,-0.076 0.3109,-0.047 0.3163,-0.015 0.3163,0.015 0.3109,0.047 0.3035,0.076 0.2939,0.105 0.2823,0.134 0.268499,0.16 0.252701,0.187 0.2347,0.213 0.212499,0.235 0.187101,0.252 0.160699,0.269 0.1333,0.282 0.1053,0.294 0.0763,0.303 0.0464,0.311 0.0156,0.317 v 0" />
    <path
       d="m 11.648564,108.62826 -0.0156,0.316 -0.0464,0.311 -0.0763,0.303 -0.1053,0.294 -0.1333,0.282 -0.1607,0.269 -0.1871,0.253 -0.212499,0.234 -0.2347,0.213 -0.2527,0.187 -0.2684999,0.161 -0.2823001,0.133 -0.2939,0.105 -0.3035001,0.076 -0.3109,0.047 -0.3162998,0.016 -0.3163001,-0.016 -0.3109003,-0.047 -0.3034001,-0.076 -0.2939999,-0.105 -0.2821998,-0.133 -0.2685003,-0.161 -0.2526998,-0.187 -0.2347,-0.213 -0.2126001,-0.234 -0.1870001,-0.253 -0.1606999,-0.269 -0.1334,-0.282 -0.1053,-0.294 -0.0762,-0.303 -0.0464,-0.311 -0.0157,-0.316 0.0157,-0.317 0.0464,-0.311 0.0762,-0.303 0.1053,-0.294 0.1334,-0.282 0.1606999,-0.269 0.1870001,-0.252 0.2126001,-0.235 0.2347,-0.213 0.2526998,-0.187 0.2685003,-0.16 0.2821998,-0.134 0.2939999,-0.105 0.3034001,-0.076 0.3109,-0.047 0.3163001,-0.015 0.3162999,0.015 0.3108999,0.047 0.3035001,0.076 0.2939,0.105 0.2823001,0.134 0.2685002,0.16 0.252699,0.187 0.2347,0.213 0.2125,0.235 0.1871,0.252 0.1607,0.269 0.1333,0.282 0.1053,0.294 0.0763,0.303 0.0464,0.311 0.0156,0.317 v 0"
       style="display:inline;mix-blend-mode:normal;fill:#ffffff;stroke:none;stroke-width:0.465"
       id="path47744-9-3-6" />
    <path
       d="m 11.704499,93.191631 -0.0156,0.3163 -0.0464,0.3109 -0.0763,0.3035 -0.1053,0.2939 -0.1333,0.2822 -0.1607,0.2686 -0.1871,0.2526 -0.2125,0.2347 -0.2348,0.2126 -0.2526,0.1871 -0.2685,0.1606 -0.2823099,0.1334 -0.29392,0.1053 -0.30346,0.0762 -0.31093,0.0464 -0.31628,0.0157 -0.31628,-0.0157 -0.31092,-0.0464 -0.30347,-0.0762 -0.29392,-0.1053 -0.28226,-0.1334 -0.26851,-0.1606 -0.25266,-0.1871 -0.23472,-0.2126 -0.21257,-0.2347 -0.18705,-0.2526 -0.16066,-0.2686 -0.13339,-0.2822 -0.10527,-0.2939 -0.07626,-0.3035 -0.0464,-0.3109 -0.01566,-0.3163 0.01566,-0.3163 0.0464,-0.3109 0.07626,-0.3035 0.10527,-0.2939 0.13339,-0.2823 0.16066,-0.2685 0.18705,-0.2526 0.21257,-0.2347 0.23472,-0.2126 0.25266,-0.1871 0.26851,-0.1606 0.28226,-0.1334 0.29392,-0.1053 0.30347,-0.0763 0.31092,-0.0463 0.31628,-0.0157 0.31628,0.0157 0.31093,0.0463 0.30346,0.0763 0.29392,0.1053 0.2823099,0.1334 0.2685,0.1606 0.2526,0.1871 0.2348,0.2126 0.2125,0.2347 0.1871,0.2526 0.1607,0.2685 0.1333,0.2823 0.1053,0.2939 0.0763,0.3035 0.0464,0.3109 0.0156,0.3163 v 0"
       style="display:inline;mix-blend-mode:normal;fill:#ffffff;stroke:none;stroke-width:0.465"
       id="path47744" />
    <path
       d="m 24.935501,93.191631 -0.0156,0.3163 -0.0464,0.3109 -0.0763,0.3035 -0.1053,0.2939 -0.1333,0.2822 -0.1607,0.2686 -0.1871,0.2526 -0.2125,0.2347 -0.2347,0.2126 -0.2527,0.1871 -0.2685,0.1606 -0.2823,0.1334 -0.2939,0.1053 -0.3035,0.0762 -0.3109,0.0464 -0.3163,0.0157 -0.3163,-0.0157 -0.3109,-0.0464 -0.3034,-0.0762 -0.294,-0.1053 -0.2822,-0.1334 -0.2685,-0.1606 -0.2527,-0.1871 -0.2347,-0.2126 -0.2126,-0.2347 -0.187,-0.2526 -0.1607,-0.2686 -0.1334,-0.2822 -0.1053,-0.2939 -0.0762,-0.3035 -0.0464,-0.3109 -0.0157,-0.3163 0.0157,-0.3163 0.0464,-0.3109 0.0762,-0.3035 0.1053,-0.2939 0.1334,-0.2823 0.1607,-0.2685 0.187,-0.2526 0.2126,-0.2347 0.2347,-0.2126 0.2527,-0.1871 0.2685,-0.1606 0.2822,-0.1334 0.294,-0.1053 0.3034,-0.0763 0.3109,-0.0463 0.3163,-0.0157 0.3163,0.0157 0.3109,0.0463 0.3035,0.0763 0.2939,0.1053 0.2823,0.1334 0.2685,0.1606 0.2527,0.1871 0.2347,0.2126 0.2125,0.2347 0.1871,0.2526 0.1607,0.2685 0.1333,0.2823 0.1053,0.2939 0.0763,0.3035 0.0464,0.3109 0.0156,0.3163 v 0"
       style="display:inline;mix-blend-mode:normal;fill:#ffffff;stroke:none;stroke-width:0.465"
       id="path47744-9" />
  </g>
  <g
     inkscape:groupmode="layer"
     id="layer1"
     inkscape:label="F.SilkS"
     style="display:none;mix-blend-mode:normal">
    <text
       xml:space="preserve"
       style="font-size:3.52778px;line-height:1.25;font-family:Polyline;-inkscape-font-specification:Polyline;display:inline;fill:#f9f9f9;stroke-width:0.264583"
       x="1.4705607"
       y="126.69447"
       id="text885"><tspan
         sodipodi:role="line"
         id="tspan883"
         x="1.4705607"
         y="126.69447"
         style="font-size:3.52778px;fill:#f9f9f9;stroke-width:0.264583">LMNC</tspan></text>
    <text
       xml:space="preserve"
       style="font-size:3.52778px;line-height:1.25;font-family:Polyline;-inkscape-font-specification:Polyline;display:inline;stroke-width:0.264583"
       x="10.18307"
       y="4.0764241"
       id="text889"><tspan
         sodipodi:role="line"
         x="10.18307"
         y="4.0764241"
         style="font-size:3.52778px;fill:#f9f9f9;stroke-width:0.264583"
         id="tspan895"> 2x AR/ENV</tspan></text>
    <text
       id="text889-0"
       y="25.206636"
       x="7.7880259"
       style="font-size:3.52777px;line-height:1.25;font-family:Polyline;-inkscape-font-specification:Polyline;display:inline;stroke-width:0.264583"
       xml:space="preserve"><tspan
         id="tspan895-9"
         style="font-size:3.52777px;fill:#f9f9f9;stroke-width:0.264583"
         y="25.206636"
         x="7.7880259"
         sodipodi:role="line">ATTACK 1</tspan></text>
    <path
       id="rect988"
       style="fill:#f2f2f2;stroke:none;stroke-width:0.465"
       d="m 16.243846,103.41254 v 14.41101 h 10.983309 v -14.41101 z m 4.976957,11.00657 c 0.08819,0 0.159164,0.071 0.159164,0.15916 v 1.67535 h 0.599446 v -1.67535 c 0,-0.0881 0.07046,-0.15916 0.158647,-0.15916 0.0882,0 0.158647,0.071 0.158647,0.15916 v 1.834 c 0,0.0882 -0.07045,0.15916 -0.158647,0.15916 h -0.917257 c -0.08819,0 -0.158647,-0.071 -0.158647,-0.15916 v -1.834 c 0,-0.0881 0.07046,-0.15916 0.158647,-0.15916 z m 1.832963,0 h 0.917257 c 0.08819,0 0.158646,0.071 0.158646,0.15916 0,0.0881 -0.07046,0.15865 -0.158646,0.15865 h -0.299724 v 1.67535 c 0,0.0882 -0.07097,0.15916 -0.159163,0.15916 -0.08819,0 -0.158647,-0.071 -0.158647,-0.15916 v -1.67535 h -0.299723 c -0.08819,0 -0.158646,-0.0704 -0.158646,-0.15865 0,-0.0881 0.07046,-0.15916 0.158646,-0.15916 z m -3.207039,10e-4 c 0.04057,0 0.08142,0.0149 0.113171,0.045 l 0.45837,0.45889 c 0.02822,0.0318 0.04599,0.0704 0.04599,0.11265 v 0.91726 c 0,0.0424 -0.01777,0.081 -0.04599,0.11265 l -0.45837,0.45889 c -0.03175,0.0318 -0.07436,0.046 -0.113171,0.046 -0.04234,0 -0.0809,-0.0142 -0.112655,-0.046 l -0.458886,-0.45891 c -0.02822,-0.0318 -0.04599,-0.0704 -0.04599,-0.11265 v -0.91726 c 0,-0.0424 0.01777,-0.0809 0.04599,-0.11266 l 0.458886,-0.45888 c 0.03175,-0.03 0.07209,-0.045 0.112655,-0.045 z m 0,0.38396 -0.299723,0.29972 v 0.7829 l 0.299723,0.30024 0.299723,-0.30024 v -0.78292 z" />
    <text
       xml:space="preserve"
       style="font-size:3.52777px;line-height:1.25;font-family:Polyline;-inkscape-font-specification:Polyline;display:inline;stroke-width:0.264583"
       x="4.8380985"
       y="101.39327"
       id="text889-0-1"><tspan
         sodipodi:role="line"
         x="4.8380985"
         y="101.39327"
         style="font-size:3.52777px;fill:#f9f9f9;stroke-width:0.264583"
         id="tspan895-9-5">GATE</tspan></text>
    <text
       xml:space="preserve"
       style="font-size:3.52777px;line-height:1.25;font-family:Polyline;-inkscape-font-specification:Polyline;display:inline;stroke-width:0.264583"
       x="18.069101"
       y="101.39377"
       id="text889-0-5"><tspan
         sodipodi:role="line"
         x="18.069101"
         y="101.39377"
         style="font-size:3.52777px;fill:#f9f9f9;stroke-width:0.264583"
         id="tspan895-9-8">GATE</tspan></text>
    <path
       d="m 3.0128447,103.42647 v 14.41101 H 13.996153 v -14.41101 z m 4.976957,11.00657 c 0.08819,0 0.159164,0.071 0.159164,0.15916 v 1.67535 h 0.5994461 v -1.67535 c 0,-0.0881 0.07046,-0.15916 0.1586468,-0.15916 0.0882,0 0.1586471,0.071 0.1586471,0.15916 v 1.834 c 0,0.0882 -0.07045,0.15916 -0.1586471,0.15916 H 7.9898017 c -0.08819,0 -0.1586469,-0.071 -0.1586469,-0.15916 v -1.834 c 0,-0.0881 0.07046,-0.15916 0.1586469,-0.15916 z m 1.8329632,0 h 0.9172561 c 0.08819,0 0.158646,0.071 0.158646,0.15916 0,0.0881 -0.07046,0.15865 -0.158646,0.15865 h -0.299724 v 1.67535 c 0,0.0882 -0.07097,0.15916 -0.159163,0.15916 -0.08819,0 -0.158646,-0.071 -0.158646,-0.15916 v -1.67535 H 9.8227649 c -0.08819,0 -0.158646,-0.0704 -0.158646,-0.15865 0,-0.0881 0.07046,-0.15916 0.158646,-0.15916 z m -3.2070392,10e-4 c 0.04057,0 0.08142,0.0149 0.113171,0.045 l 0.45837,0.45889 c 0.02822,0.0318 0.04599,0.0704 0.04599,0.11265 v 0.91726 c 0,0.0424 -0.017769,0.081 -0.04599,0.11265 l -0.45837,0.45889 c -0.03175,0.0318 -0.07436,0.046 -0.113171,0.046 -0.04234,0 -0.0809,-0.0142 -0.1126551,-0.046 l -0.4588859,-0.45891 c -0.02822,-0.0318 -0.04599,-0.0704 -0.04599,-0.11265 v -0.91726 c 0,-0.0424 0.017769,-0.0809 0.04599,-0.11266 l 0.4588859,-0.45888 c 0.03175,-0.03 0.07209,-0.045 0.1126551,-0.045 z m 0,0.38396 -0.2997229,0.29972 v 0.7829 l 0.2997229,0.30024 0.2997232,-0.30024 v -0.78292 z"
       style="display:inline;fill:#f2f2f2;stroke:none;stroke-width:0.465"
       id="rect988-4" />
    <text
       xml:space="preserve"
       style="font-size:3.52777px;line-height:1.25;font-family:Polyline;-inkscape-font-specification:Polyline;display:inline;stroke-width:0.264583"
       x="6.8716326"
       y="43.99017"
       id="text889-0-0"><tspan
         sodipodi:role="line"
         x="6.8716326"
         y="43.99017"
         style="font-size:3.52777px;fill:#f9f9f9;stroke-width:0.264583"
         id="tspan895-9-58">RELEASE 1</tspan></text>
    <text
       xml:space="preserve"
       style="font-size:3.52777px;line-height:1.25;font-family:Polyline;-inkscape-font-specification:Polyline;display:inline;stroke-width:0.264583"
       x="7.7880259"
       y="61.383011"
       id="text889-0-58"><tspan
         sodipodi:role="line"
         x="7.7880259"
         y="61.383011"
         style="font-size:3.52777px;fill:#f9f9f9;stroke-width:0.264583"
         id="tspan895-9-3">ATTACk 2</tspan></text>
    <text
       xml:space="preserve"
       style="font-size:3.52777px;line-height:1.25;font-family:Polyline;-inkscape-font-specification:Polyline;display:inline;stroke-width:0.264583"
       x="6.8716326"
       y="80.186081"
       id="text889-0-3"><tspan
         sodipodi:role="line"
         x="6.8716326"
         y="80.186081"
         style="font-size:3.52777px;fill:#f9f9f9;stroke-width:0.264583"
         id="tspan895-9-7">RElEASE 2</tspan></text>
    <text
       id="text889-0-3-5"
       y="87.819984"
       x="7.5872788"
       style="font-size:3.52777px;line-height:1.25;font-family:Polyline;-inkscape-font-specification:Polyline;display:inline;stroke-width:0.264583"
       xml:space="preserve"><tspan
         id="tspan895-9-7-3"
         style="font-size:3.52777px;fill:#f9f9f9;stroke-width:0.264583"
         y="87.819984"
         x="7.5872788"
         sodipodi:role="line">1</tspan></text>
    <text
       xml:space="preserve"
       style="font-size:3.52777px;line-height:1.25;font-family:Polyline;-inkscape-font-specification:Polyline;display:inline;stroke-width:0.264583"
       x="20.818281"
       y="87.747314"
       id="text889-0-3-5-3"><tspan
         sodipodi:role="line"
         x="20.818281"
         y="87.747314"
         style="font-size:3.52777px;fill:#f9f9f9;stroke-width:0.264583"
         id="tspan895-9-7-3-3">2</tspan></text>
  </g>
</svg>
