<?xml version="1.0" encoding="UTF-8" standalone="no"?>
<svg
   xmlns:dc="http://purl.org/dc/elements/1.1/"
   xmlns:cc="http://creativecommons.org/ns#"
   xmlns:rdf="http://www.w3.org/1999/02/22-rdf-syntax-ns#"
   xmlns:svg="http://www.w3.org/2000/svg"
   xmlns="http://www.w3.org/2000/svg"
   xmlns:sodipodi="http://sodipodi.sourceforge.net/DTD/sodipodi-0.dtd"
   xmlns:inkscape="http://www.inkscape.org/namespaces/inkscape"
   id="svg16337"
   version="1.1"
   viewBox="0 0 30.24 128.5"
   height="128.5mm"
   width="30.24mm"
   inkscape:version="1.0 (4035a4f, 2020-05-01)"
   sodipodi:docname="panel.svg">
  <defs
     id="defs16331" />
  <sodipodi:namedview
     units="mm"
     inkscape:window-maximized="0"
     inkscape:window-y="23"
     inkscape:window-x="0"
     inkscape:window-height="964"
     inkscape:window-width="1920"
     showgrid="false"
     inkscape:document-rotation="0"
     inkscape:current-layer="layer1"
     inkscape:document-units="mm"
     inkscape:cy="260.8733"
     inkscape:cx="226.77909"
     inkscape:zoom="1.6885538"
     inkscape:pageshadow="2"
     inkscape:pageopacity="0.0"
     borderopacity="1.0"
     bordercolor="#666666"
     pagecolor="#ffffff"
     id="base" />
  <metadata
     id="metadata16334">
    <rdf:RDF>
      <cc:Work
         rdf:about="">
        <dc:format>image/svg+xml</dc:format>
        <dc:type
           rdf:resource="http://purl.org/dc/dcmitype/StillImage" />
        <dc:title />
      </cc:Work>
    </rdf:RDF>
  </metadata>
  <g
     style="display:inline"
     inkscape:label="[fixed] BG"
     inkscape:groupmode="layer"
     sodipodi:insensitive="true"
     id="g17038">
    <rect
       x="0"
       y="0"
       width="70.800003"
       height="128.5"
       style="fill:#ffffff;fill-opacity:1;stroke:none"
       id="rect17036" />
  </g>
  <g
     style="display:inline"
     inkscape:label="Edge.Cuts"
     inkscape:groupmode="layer"
     id="g17040">
    <path
       d="M 0 0 L 30.24 0 L 30.24 128.5 L 0 128.5 L 0 0"
       style="fill:#000000;stroke:none;stroke-width:0mm"
       id="rect16904" />
    <path
       id="rect16909"
       d="M 6.35 1.4 L 8.65 1.4 L 8.81404 1.40823 L 8.97324 1.43239 L 9.12681 1.4717 L 9.27395 1.52535 L 9.41387 1.59256 L 9.54578 1.67253 L 9.7824 1.8676 L 9.97747 2.10422 L 10.0574 2.23613 L 10.1246 2.37605 L 10.1783 2.52319 L 10.2176 2.67676 L 10.2418 2.83596 L 10.25 3 L 10.2418 3.16404 L 10.2176 3.32324 L 10.1783 3.47681 L 10.1246 3.62395 L 10.0574 3.76387 L 9.97747 3.89578 L 9.7824 4.1324 L 9.54578 4.32747 L 9.41387 4.40744 L 9.27395 4.47465 L 9.12681 4.5283 L 8.97324 4.56761 L 8.81404 4.59177 L 8.65 4.6 L 6.35 4.6 L 6.18596 4.59177 L 6.02676 4.56761 L 5.87319 4.5283 L 5.72605 4.47465 L 5.58613 4.40744 L 5.45422 4.32747 L 5.2176 4.1324 L 5.02253 3.89578 L 4.94256 3.76387 L 4.87535 3.62395 L 4.8217 3.47681 L 4.78239 3.32324 L 4.75823 3.16404 L 4.75 3 L 4.75823 2.83596 L 4.78239 2.67676 L 4.8217 2.52319 L 4.87535 2.37605 L 4.94256 2.23613 L 5.02253 2.10422 L 5.2176 1.8676 L 5.45422 1.67253 L 5.58613 1.59256 L 5.72605 1.52535 L 5.87319 1.4717 L 6.02676 1.43239 L 6.18596 1.40823 L 6.35 1.4 L 6.35 1.4"
       style="fill:#ffffff;stroke:none;stroke-width:0" />
    <path
       style="fill:#ffffff;stroke:none;stroke-width:0"
       d="M 22.0205 123.9 L 24.3205 123.9 L 24.4846 123.908 L 24.6438 123.932 L 24.7973 123.972 L 24.9445 124.025 L 25.0844 124.093 L 25.2163 124.173 L 25.4529 124.368 L 25.648 124.604 L 25.728 124.736 L 25.7952 124.876 L 25.8488 125.023 L 25.8881 125.177 L 25.9123 125.336 L 25.9205 125.5 L 25.9123 125.664 L 25.8881 125.823 L 25.8488 125.977 L 25.7952 126.124 L 25.728 126.264 L 25.648 126.396 L 25.4529 126.632 L 25.2163 126.827 L 25.0844 126.907 L 24.9445 126.975 L 24.7973 127.028 L 24.6438 127.068 L 24.4846 127.092 L 24.3205 127.1 L 22.0205 127.1 L 21.8565 127.092 L 21.6973 127.068 L 21.5437 127.028 L 21.3966 126.975 L 21.2567 126.907 L 21.1248 126.827 L 20.8881 126.632 L 20.6931 126.396 L 20.6131 126.264 L 20.5459 126.124 L 20.4922 125.977 L 20.4529 125.823 L 20.4288 125.664 L 20.4205 125.5 L 20.4288 125.336 L 20.4529 125.177 L 20.4922 125.023 L 20.5459 124.876 L 20.6131 124.736 L 20.6931 124.604 L 20.8881 124.368 L 21.1248 124.173 L 21.2567 124.093 L 21.3966 124.025 L 21.5437 123.972 L 21.6973 123.932 L 21.8565 123.908 L 22.0205 123.9 L 22.0205 123.9"
       id="rect16907-5" />
    <path
       d="M 18.82 17.315 L 18.8009 17.6933 L 18.7448 18.0606 L 18.6536 18.4152 L 18.5292 18.7552 L 18.3734 19.0786 L 18.1881 19.3837 L 17.9751 19.6685 L 17.7363 19.9313 L 17.4735 20.1701 L 17.1887 20.3831 L 16.8836 20.5684 L 16.5602 20.7242 L 16.2202 20.8486 L 15.8657 20.9398 L 15.4983 20.9959 L 15.12 21.015 L 14.7543 20.9969 L 14.3948 20.9432 L 14.0439 20.855 L 13.704 20.7333 L 13.3777 20.5791 L 13.0672 20.3933 L 12.7751 20.177 L 12.5037 19.9313 L 12.2579 19.6599 L 12.0416 19.3677 L 11.8559 19.0573 L 11.7016 18.7309 L 11.5799 18.3911 L 11.4917 18.0402 L 11.4381 17.6807 L 11.42 17.315 L 11.4381 16.9493 L 11.4917 16.5898 L 11.5799 16.2389 L 11.7016 15.899 L 11.8559 15.5727 L 12.0416 15.2622 L 12.2579 14.9701 L 12.5037 14.6987 L 12.7751 14.4529 L 13.0672 14.2366 L 13.3777 14.0509 L 13.704 13.8966 L 14.0439 13.7749 L 14.3948 13.6867 L 14.7543 13.6331 L 15.12 13.615 L 15.4857 13.6331 L 15.8452 13.6867 L 16.1961 13.7749 L 16.5359 13.8966 L 16.8623 14.0509 L 17.1727 14.2366 L 17.4649 14.4529 L 17.7363 14.6987 L 17.9821 14.9701 L 18.1983 15.2622 L 18.3841 15.5727 L 18.5383 15.899 L 18.66 16.2389 L 18.7482 16.5898 L 18.8019 16.9493 L 18.82 17.315"
       style="display:inline;mix-blend-mode:normal;fill:#ffffff;stroke:none;stroke-width:0.465"
       id="path41208" />
    <path
       id="path41208-8"
       style="display:inline;mix-blend-mode:normal;fill:#ffffff;stroke:none;stroke-width:0.465"
       d="M 18.82 35.0404 L 18.8009 35.4187 L 18.7448 35.786 L 18.6536 36.1406 L 18.5292 36.4806 L 18.3734 36.804 L 18.1881 37.1091 L 17.9751 37.3939 L 17.7363 37.6567 L 17.4735 37.8955 L 17.1887 38.1085 L 16.8836 38.2938 L 16.5602 38.4496 L 16.2202 38.574 L 15.8657 38.6652 L 15.4983 38.7213 L 15.12 38.7404 L 14.7543 38.7223 L 14.3948 38.6686 L 14.0439 38.5804 L 13.704 38.4587 L 13.3777 38.3045 L 13.0672 38.1187 L 12.7751 37.9024 L 12.5037 37.6567 L 12.2579 37.3853 L 12.0416 37.0931 L 11.8559 36.7827 L 11.7016 36.4563 L 11.5799 36.1165 L 11.4917 35.7656 L 11.4381 35.4061 L 11.42 35.0404 L 11.4381 34.6747 L 11.4917 34.3152 L 11.5799 33.9643 L 11.7016 33.6244 L 11.8559 33.2981 L 12.0416 32.9876 L 12.2579 32.6955 L 12.5037 32.4241 L 12.7751 32.1783 L 13.0672 31.962 L 13.3777 31.7763 L 13.704 31.622 L 14.0439 31.5003 L 14.3948 31.4121 L 14.7543 31.3585 L 15.12 31.3404 L 15.4857 31.3585 L 15.8452 31.4121 L 16.1961 31.5003 L 16.5359 31.622 L 16.8623 31.7763 L 17.1727 31.962 L 17.4649 32.1783 L 17.7363 32.4241 L 17.9821 32.6955 L 18.1983 32.9876 L 18.3841 33.2981 L 18.5383 33.6244 L 18.66 33.9643 L 18.7482 34.3152 L 18.8019 34.6747 L 18.82 35.0404" />
    <path
       id="path41208-9"
       style="display:inline;mix-blend-mode:normal;fill:#ffffff;stroke:none;stroke-width:0.465"
       d="M 18.82 51.3748 L 18.8009 51.7531 L 18.7448 52.1204 L 18.6536 52.475 L 18.5292 52.815 L 18.3734 53.1384 L 18.1881 53.4435 L 17.9751 53.7283 L 17.7363 53.9911 L 17.4735 54.2299 L 17.1887 54.4429 L 16.8836 54.6282 L 16.5602 54.784 L 16.2202 54.9084 L 15.8657 54.9996 L 15.4983 55.0557 L 15.12 55.0748 L 14.7543 55.0567 L 14.3948 55.003 L 14.0439 54.9148 L 13.704 54.7931 L 13.3777 54.6389 L 13.0672 54.4531 L 12.7751 54.2368 L 12.5037 53.9911 L 12.2579 53.7197 L 12.0416 53.4275 L 11.8559 53.1171 L 11.7016 52.7907 L 11.5799 52.4509 L 11.4917 52.1 L 11.4381 51.7405 L 11.42 51.3748 L 11.4381 51.0091 L 11.4917 50.6496 L 11.5799 50.2987 L 11.7016 49.9588 L 11.8559 49.6325 L 12.0416 49.322 L 12.2579 49.0299 L 12.5037 48.7585 L 12.7751 48.5127 L 13.0672 48.2964 L 13.3777 48.1107 L 13.704 47.9564 L 14.0439 47.8347 L 14.3948 47.7465 L 14.7543 47.6929 L 15.12 47.6748 L 15.4857 47.6929 L 15.8452 47.7465 L 16.1961 47.8347 L 16.5359 47.9564 L 16.8623 48.1107 L 17.1727 48.2964 L 17.4649 48.5127 L 17.7363 48.7585 L 17.9821 49.0299 L 18.1983 49.322 L 18.3841 49.6325 L 18.5383 49.9588 L 18.66 50.2987 L 18.7482 50.6496 L 18.8019 51.0091 L 18.82 51.3748" />
    <path
       id="path41208-7"
       style="display:inline;mix-blend-mode:normal;fill:#ffffff;stroke:none;stroke-width:0.465"
       d="M 18.82 68.0612 L 18.8009 68.4395 L 18.7448 68.8068 L 18.6536 69.1614 L 18.5292 69.5014 L 18.3734 69.8248 L 18.1881 70.1299 L 17.9751 70.4147 L 17.7363 70.6775 L 17.4735 70.9163 L 17.1887 71.1293 L 16.8836 71.3146 L 16.5602 71.4704 L 16.2202 71.5948 L 15.8657 71.686 L 15.4983 71.7421 L 15.12 71.7612 L 14.7543 71.7431 L 14.3948 71.6894 L 14.0439 71.6012 L 13.704 71.4795 L 13.3777 71.3253 L 13.0672 71.1395 L 12.7751 70.9232 L 12.5037 70.6775 L 12.2579 70.4061 L 12.0416 70.1139 L 11.8559 69.8035 L 11.7016 69.4771 L 11.5799 69.1373 L 11.4917 68.7864 L 11.4381 68.4269 L 11.42 68.0612 L 11.4381 67.6955 L 11.4917 67.336 L 11.5799 66.9851 L 11.7016 66.6452 L 11.8559 66.3189 L 12.0416 66.0084 L 12.2579 65.7163 L 12.5037 65.4449 L 12.7751 65.1991 L 13.0672 64.9828 L 13.3777 64.7971 L 13.704 64.6428 L 14.0439 64.5211 L 14.3948 64.4329 L 14.7543 64.3793 L 15.12 64.3612 L 15.4857 64.3793 L 15.8452 64.4329 L 16.1961 64.5211 L 16.5359 64.6428 L 16.8623 64.7971 L 17.1727 64.9828 L 17.4649 65.1991 L 17.7363 65.4449 L 17.9821 65.7163 L 18.1983 66.0084 L 18.3841 66.3189 L 18.5383 66.6452 L 18.66 66.9851 L 18.7482 67.336 L 18.8019 67.6955 L 18.82 68.0612" />
    <path
       id="path47744-9-3"
       style="display:inline;mix-blend-mode:normal;fill:#ffffff;stroke:none;stroke-width:0.465"
       d="M 24.8796 102.793 L 24.864 103.109 L 24.8176 103.42 L 24.7413 103.723 L 24.636 104.017 L 24.5027 104.299 L 24.342 104.568 L 24.1549 104.821 L 23.9424 105.055 L 23.7077 105.268 L 23.455 105.455 L 23.1865 105.616 L 22.9042 105.749 L 22.6103 105.854 L 22.3068 105.93 L 21.9959 105.977 L 21.6796 105.993 L 21.3633 105.977 L 21.0524 105.93 L 20.749 105.854 L 20.455 105.749 L 20.1728 105.616 L 19.9043 105.455 L 19.6516 105.268 L 19.4169 105.055 L 19.2043 104.821 L 19.0173 104.568 L 18.8566 104.299 L 18.7232 104.017 L 18.6179 103.723 L 18.5417 103.42 L 18.4953 103.109 L 18.4796 102.793 L 18.4953 102.476 L 18.5417 102.165 L 18.6179 101.862 L 18.7232 101.568 L 18.8566 101.286 L 19.0173 101.017 L 19.2043 100.765 L 19.4169 100.53 L 19.6516 100.317 L 19.9043 100.13 L 20.1728 99.9702 L 20.455 99.8362 L 20.749 99.7312 L 21.0524 99.6552 L 21.3633 99.6082 L 21.6796 99.5932 L 21.9959 99.6082 L 22.3068 99.6552 L 22.6103 99.7312 L 22.9042 99.8362 L 23.1865 99.9702 L 23.455 100.13 L 23.7077 100.317 L 23.9424 100.53 L 24.1549 100.765 L 24.342 101.017 L 24.5027 101.286 L 24.636 101.568 L 24.7413 101.862 L 24.8176 102.165 L 24.864 102.476 L 24.8796 102.793 L 24.8796 102.793" />
    <path
       d="M 11.6486 102.807 L 11.633 103.123 L 11.5866 103.434 L 11.5103 103.737 L 11.405 104.031 L 11.2717 104.313 L 11.111 104.582 L 10.9239 104.835 L 10.7114 105.069 L 10.4767 105.282 L 10.224 105.469 L 9.95547 105.63 L 9.67317 105.763 L 9.37927 105.868 L 9.07576 105.944 L 8.76486 105.991 L 8.44857 106.007 L 8.13227 105.991 L 7.82136 105.944 L 7.51796 105.868 L 7.22396 105.763 L 6.94176 105.63 L 6.67326 105.469 L 6.42056 105.282 L 6.18586 105.069 L 5.97326 104.835 L 5.78626 104.582 L 5.62556 104.313 L 5.49216 104.031 L 5.38686 103.737 L 5.31066 103.434 L 5.26426 103.123 L 5.24856 102.807 L 5.26426 102.49 L 5.31066 102.179 L 5.38686 101.876 L 5.49216 101.582 L 5.62556 101.3 L 5.78626 101.031 L 5.97326 100.779 L 6.18586 100.544 L 6.42056 100.331 L 6.67326 100.144 L 6.94176 99.9842 L 7.22396 99.8502 L 7.51796 99.7452 L 7.82136 99.6692 L 8.13226 99.6222 L 8.44856 99.6072 L 8.76486 99.6222 L 9.07576 99.6692 L 9.37926 99.7452 L 9.67316 99.8502 L 9.95546 99.9842 L 10.224 100.144 L 10.4767 100.331 L 10.7114 100.544 L 10.9239 100.779 L 11.111 101.031 L 11.2717 101.3 L 11.405 101.582 L 11.5103 101.876 L 11.5866 102.179 L 11.633 102.49 L 11.6486 102.807 L 11.6486 102.807"
       style="display:inline;mix-blend-mode:normal;fill:#ffffff;stroke:none;stroke-width:0.465"
       id="path47744-9-3-6" />
    <path
       d="M 11.7045 88.9583 L 11.6889 89.2746 L 11.6425 89.5855 L 11.5662 89.889 L 11.4609 90.1829 L 11.3276 90.4651 L 11.1669 90.7337 L 10.9798 90.9863 L 10.7673 91.221 L 10.5325 91.4336 L 10.2799 91.6207 L 10.0114 91.7813 L 9.72909 91.9147 L 9.43517 92.02 L 9.13171 92.0962 L 8.82078 92.1426 L 8.5045 92.1583 L 8.18822 92.1426 L 7.8773 92.0962 L 7.57383 92.02 L 7.27991 91.9147 L 6.99765 91.7813 L 6.72914 91.6207 L 6.47648 91.4336 L 6.24176 91.221 L 6.02919 90.9863 L 5.84214 90.7337 L 5.68148 90.4651 L 5.54809 90.1829 L 5.44282 89.889 L 5.36656 89.5855 L 5.32016 89.2746 L 5.3045 88.9583 L 5.32016 88.642 L 5.36656 88.3311 L 5.44282 88.0276 L 5.54809 87.7337 L 5.68148 87.4514 L 5.84214 87.1829 L 6.02919 86.9303 L 6.24176 86.6956 L 6.47648 86.483 L 6.72914 86.2959 L 6.99765 86.1353 L 7.27991 86.0019 L 7.57383 85.8966 L 7.8773 85.8203 L 8.18822 85.774 L 8.5045 85.7583 L 8.82078 85.774 L 9.13171 85.8203 L 9.43517 85.8966 L 9.72909 86.0019 L 10.0114 86.1353 L 10.2799 86.2959 L 10.5325 86.483 L 10.7673 86.6956 L 10.9798 86.9303 L 11.1669 87.1829 L 11.3276 87.4514 L 11.4609 87.7337 L 11.5662 88.0276 L 11.6425 88.3311 L 11.6889 88.642 L 11.7045 88.9583 L 11.7045 88.9583"
       style="display:inline;mix-blend-mode:normal;fill:#ffffff;stroke:none;stroke-width:0.465"
       id="path47744" />
    <path
       d="M 24.9355 88.9583 L 24.9199 89.2746 L 24.8735 89.5855 L 24.7972 89.889 L 24.6919 90.1829 L 24.5586 90.4651 L 24.3979 90.7337 L 24.2108 90.9863 L 23.9983 91.221 L 23.7636 91.4336 L 23.5109 91.6207 L 23.2424 91.7813 L 22.9601 91.9147 L 22.6662 92.02 L 22.3627 92.0962 L 22.0518 92.1426 L 21.7355 92.1583 L 21.4192 92.1426 L 21.1083 92.0962 L 20.8049 92.02 L 20.5109 91.9147 L 20.2287 91.7813 L 19.9602 91.6207 L 19.7075 91.4336 L 19.4728 91.221 L 19.2602 90.9863 L 19.0732 90.7337 L 18.9125 90.4651 L 18.7791 90.1829 L 18.6738 89.889 L 18.5976 89.5855 L 18.5512 89.2746 L 18.5355 88.9583 L 18.5512 88.642 L 18.5976 88.3311 L 18.6738 88.0276 L 18.7791 87.7337 L 18.9125 87.4514 L 19.0732 87.1829 L 19.2602 86.9303 L 19.4728 86.6956 L 19.7075 86.483 L 19.9602 86.2959 L 20.2287 86.1353 L 20.5109 86.0019 L 20.8049 85.8966 L 21.1083 85.8203 L 21.4192 85.774 L 21.7355 85.7583 L 22.0518 85.774 L 22.3627 85.8203 L 22.6662 85.8966 L 22.9601 86.0019 L 23.2424 86.1353 L 23.5109 86.2959 L 23.7636 86.483 L 23.9983 86.6956 L 24.2108 86.9303 L 24.3979 87.1829 L 24.5586 87.4514 L 24.6919 87.7337 L 24.7972 88.0276 L 24.8735 88.3311 L 24.9199 88.642 L 24.9355 88.9583 L 24.9355 88.9583"
       style="display:inline;mix-blend-mode:normal;fill:#ffffff;stroke:none;stroke-width:0.465"
       id="path47744-9" />
  </g>
  <g
     inkscape:groupmode="layer"
     id="layer1"
     inkscape:label="F.SilkS"
     style="display:inline;mix-blend-mode:normal">
    <text
       xml:space="preserve"
       style="font-size:3.52778px;line-height:1.25;font-family:Polyline;-inkscape-font-specification:Polyline;display:inline;fill:#f9f9f9;stroke-width:0.264583"
       x="1.4705607"
       y="126.69447"
       id="text885"><tspan
         sodipodi:role="line"
         id="tspan883"
         x="1.4705607"
         y="126.69447"
         style="font-size:3.52778px;fill:#f9f9f9;stroke-width:0.264583">LMNC</tspan></text>
    <text
       xml:space="preserve"
       style="font-size:3.52778px;line-height:1.25;font-family:Polyline;-inkscape-font-specification:Polyline;display:inline;stroke-width:0.264583"
       x="10.18307"
       y="4.0764241"
       id="text889"><tspan
         sodipodi:role="line"
         x="10.18307"
         y="4.0764241"
         style="font-size:3.52778px;fill:#f9f9f9;stroke-width:0.264583"
         id="tspan895"> 2x AR/ENV</tspan></text>
    <text
       id="text889-0"
       y="27.323305"
       x="7.7880259"
       style="font-size:3.52777px;line-height:1.25;font-family:Polyline;-inkscape-font-specification:Polyline;display:inline;stroke-width:0.264583"
       xml:space="preserve"><tspan
         id="tspan895-9"
         style="font-size:3.52777px;fill:#f9f9f9;stroke-width:0.264583"
         y="27.323305"
         x="7.7880259"
         sodipodi:role="line">ATTACK 1</tspan></text>
    <path
       id="rect988"
       style="fill:#f2f2f2;stroke:none;stroke-width:0.465"
       d="M 16.243846,97.591685 V 112.00268 H 27.227155 V 97.591685 Z m 4.976957,11.006555 c 0.08819,0 0.159164,0.071 0.159164,0.15916 v 1.67535 h 0.599446 v -1.67535 c 0,-0.0881 0.07046,-0.15916 0.158647,-0.15916 0.0882,0 0.158647,0.071 0.158647,0.15916 v 1.834 c 0,0.0882 -0.07045,0.15916 -0.158647,0.15916 h -0.917257 c -0.08819,0 -0.158647,-0.071 -0.158647,-0.15916 v -1.834 c 0,-0.0881 0.07046,-0.15916 0.158647,-0.15916 z m 1.832963,0 h 0.917257 c 0.08819,0 0.158646,0.071 0.158646,0.15916 0,0.0881 -0.07046,0.15865 -0.158646,0.15865 h -0.299724 v 1.67535 c 0,0.0882 -0.07097,0.15916 -0.159163,0.15916 -0.08819,0 -0.158647,-0.071 -0.158647,-0.15916 v -1.67535 h -0.299723 c -0.08819,0 -0.158646,-0.0704 -0.158646,-0.15865 0,-0.0881 0.07046,-0.15916 0.158646,-0.15916 z m -3.207039,10e-4 c 0.04057,0 0.08142,0.0149 0.113171,0.045 l 0.45837,0.45889 c 0.02822,0.0318 0.04599,0.0704 0.04599,0.11265 v 0.91726 c 0,0.0424 -0.01777,0.081 -0.04599,0.11265 l -0.45837,0.45889 c -0.03175,0.0318 -0.07436,0.046 -0.113171,0.046 -0.04234,0 -0.0809,-0.0142 -0.112655,-0.046 l -0.458886,-0.45891 c -0.02822,-0.0318 -0.04599,-0.0704 -0.04599,-0.11265 v -0.91726 c 0,-0.0424 0.01777,-0.0809 0.04599,-0.11266 l 0.458886,-0.45888 c 0.03175,-0.03 0.07209,-0.045 0.112655,-0.045 z m 0,0.38396 -0.299723,0.29972 v 0.7829 l 0.299723,0.30024 0.299723,-0.30024 v -0.78292 z" />
    <text
       xml:space="preserve"
       style="font-size:3.52777px;line-height:1.25;font-family:Polyline;-inkscape-font-specification:Polyline;display:inline;stroke-width:0.264583"
       x="4.8380985"
       y="95.572449"
       id="text889-0-1"><tspan
         sodipodi:role="line"
         x="4.8380985"
         y="95.572449"
         style="font-size:3.52777px;fill:#f9f9f9;stroke-width:0.264583"
         id="tspan895-9-5">GATE</tspan></text>
    <text
       xml:space="preserve"
       style="font-size:3.52777px;line-height:1.25;font-family:Polyline;-inkscape-font-specification:Polyline;display:inline;stroke-width:0.264583"
       x="18.069101"
       y="95.572922"
       id="text889-0-5"><tspan
         sodipodi:role="line"
         x="18.069101"
         y="95.572922"
         style="font-size:3.52777px;fill:#f9f9f9;stroke-width:0.264583"
         id="tspan895-9-8">GATE</tspan></text>
    <path
       d="M 3.0128447,97.605615 V 112.01661 H 13.996153 V 97.605615 Z m 4.976957,11.006555 c 0.08819,0 0.159164,0.071 0.159164,0.15916 v 1.67535 h 0.5994461 v -1.67535 c 0,-0.0881 0.07046,-0.15916 0.1586468,-0.15916 0.0882,0 0.1586471,0.071 0.1586471,0.15916 v 1.834 c 0,0.0882 -0.07045,0.15916 -0.1586471,0.15916 H 7.9898017 c -0.08819,0 -0.1586469,-0.071 -0.1586469,-0.15916 v -1.834 c 0,-0.0881 0.07046,-0.15916 0.1586469,-0.15916 z m 1.8329632,0 h 0.9172561 c 0.08819,0 0.158646,0.071 0.158646,0.15916 0,0.0881 -0.07046,0.15865 -0.158646,0.15865 h -0.299724 v 1.67535 c 0,0.0882 -0.07097,0.15916 -0.159163,0.15916 -0.08819,0 -0.158646,-0.071 -0.158646,-0.15916 v -1.67535 H 9.8227649 c -0.08819,0 -0.158646,-0.0704 -0.158646,-0.15865 0,-0.0881 0.07046,-0.15916 0.158646,-0.15916 z m -3.2070392,10e-4 c 0.04057,0 0.08142,0.0149 0.113171,0.045 l 0.45837,0.45889 c 0.02822,0.0318 0.04599,0.0704 0.04599,0.11265 v 0.91726 c 0,0.0424 -0.017769,0.081 -0.04599,0.11265 l -0.45837,0.45889 c -0.03175,0.0318 -0.07436,0.046 -0.113171,0.046 -0.04234,0 -0.0809,-0.0142 -0.1126551,-0.046 L 6.0441847,110.2596 c -0.02822,-0.0318 -0.04599,-0.0704 -0.04599,-0.11265 v -0.91726 c 0,-0.0424 0.017769,-0.0809 0.04599,-0.11266 l 0.4588859,-0.45888 c 0.03175,-0.03 0.07209,-0.045 0.1126551,-0.045 z m 0,0.38396 -0.2997229,0.29972 v 0.7829 l 0.2997229,0.30024 0.2997232,-0.30024 v -0.78292 z"
       style="display:inline;fill:#f2f2f2;stroke:none;stroke-width:0.465"
       id="rect988-4" />
    <text
       xml:space="preserve"
       style="font-size:3.52777px;line-height:1.25;font-family:Polyline;-inkscape-font-specification:Polyline;display:inline;stroke-width:0.264583"
       x="6.8716326"
       y="45.048504"
       id="text889-0-0"><tspan
         sodipodi:role="line"
         x="6.8716326"
         y="45.048504"
         style="font-size:3.52777px;fill:#f9f9f9;stroke-width:0.264583"
         id="tspan895-9-58">RELEASE 1</tspan></text>
    <text
       xml:space="preserve"
       style="font-size:3.52777px;line-height:1.25;font-family:Polyline;-inkscape-font-specification:Polyline;display:inline;stroke-width:0.264583"
       x="7.7880259"
       y="61.383011"
       id="text889-0-58"><tspan
         sodipodi:role="line"
         x="7.7880259"
         y="61.383011"
         style="font-size:3.52777px;fill:#f9f9f9;stroke-width:0.264583"
         id="tspan895-9-3">ATTACk 2</tspan></text>
    <text
       xml:space="preserve"
       style="font-size:3.52777px;line-height:1.25;font-family:Polyline;-inkscape-font-specification:Polyline;display:inline;stroke-width:0.264583"
       x="6.8716326"
       y="78.069412"
       id="text889-0-3"><tspan
         sodipodi:role="line"
         x="6.8716326"
         y="78.069412"
         style="font-size:3.52777px;fill:#f9f9f9;stroke-width:0.264583"
         id="tspan895-9-7">RElEASE 2</tspan></text>
    <text
       id="text889-0-3-5"
       y="83.586647"
       x="7.5872788"
       style="font-size:3.52777px;line-height:1.25;font-family:Polyline;-inkscape-font-specification:Polyline;display:inline;stroke-width:0.264583"
       xml:space="preserve"><tspan
         id="tspan895-9-7-3"
         style="font-size:3.52777px;fill:#f9f9f9;stroke-width:0.264583"
         y="83.586647"
         x="7.5872788"
         sodipodi:role="line">1</tspan></text>
    <text
       xml:space="preserve"
       style="font-size:3.52777px;line-height:1.25;font-family:Polyline;-inkscape-font-specification:Polyline;display:inline;stroke-width:0.264583"
       x="20.818281"
       y="83.513977"
       id="text889-0-3-5-3"><tspan
         sodipodi:role="line"
         x="20.818281"
         y="83.513977"
         style="font-size:3.52777px;fill:#f9f9f9;stroke-width:0.264583"
         id="tspan895-9-7-3-3">2</tspan></text>
  </g>
</svg>
